<?xml version="1.0" encoding="UTF-8"?>
<!DOCTYPE svg PUBLIC "-//W3C//DTD SVG 1.1//EN" "http://www.w3.org/Graphics/SVG/1.1/DTD/svg11.dtd">
<!-- Creator: CorelDRAW Standard 2024 -->
<svg xmlns="http://www.w3.org/2000/svg" xml:space="preserve" width="600px" height="600px" version="1.1" style="shape-rendering:geometricPrecision; text-rendering:geometricPrecision; image-rendering:optimizeQuality; fill-rule:evenodd; clip-rule:evenodd"
viewBox="0 0 600 600"
 xmlns:xlink="http://www.w3.org/1999/xlink"
 xmlns:xodm="http://www.corel.com/coreldraw/odm/2003">
 <defs>
  <style type="text/css">
   <![CDATA[
    .fil0 {fill:#282829}
    .fil1 {fill:#878787}
    .fil2 {fill:#DADADA}
    .fil3 {fill:#282829;fill-rule:nonzero}
    .fil4 {fill:#DADADA;fill-rule:nonzero}
   ]]>
  </style>
 </defs>
 <g id="Camada_x0020_1">
  <metadata id="CorelCorpID_0Corel-Layer"/>
  <polygon class="fil0" points="117.219,158.868 463.58,158.868 463.58,497.314 292.116,593 117.219,492.877 "/>
  <path id="_7" class="fil1" d="M156.112 197.91l124.63 -0.079 0.289 42.817 -8.624 43.475 -55.018 30.449 14.644 -71.939 -29.229 0.323 -0.5 10.938 -46.11 20.759 -0.082 -76.743zm114.938 93.056l-43.941 221.512 -44.524 -26.939 33.46 -164.367 55.005 -30.206z"/>
  <path id="K" class="fil1" d="M292.284 197.91l46.285 -0.637 0.1 85.885 49.889 27.262 37.052 20.557 0.134 143.706 -46.294 26.974 -1.977 -144.798 -39.138 -21.187 -0.259 190.093 -45.342 26.419 -0.45 -354.274zm52.33 81.91l20.825 -11.694 -0.126 -71.22 47.046 -0.648 -0.66 98.747 -19.982 11.167 -47.103 -26.352z"/>
  <rect class="fil0" x="54.438" y="354.979" width="472.023" height="65.416"/>
  <rect class="fil2" x="62.453" y="364.135" width="455.686" height="47.104"/>
  <polygon class="fil0" points="212.406,150.394 368.174,150.718 391.862,88.956 330.19,111.467 290.504,20.154 251.23,110.698 190.768,90.486 "/>
  <path class="fil3" d="M457.419 395.291c0,5.94 -1.26,7.013 -7.646,7.013l-19.219 0c-7.265,0 -7.656,-2.227 -7.656,-7.837l0 -12.837c0,-6.491 1.873,-8.993 9.579,-8.993l17.296 0c2.799,0 5.002,0.868 5.971,1.85 0.969,0.982 1.574,3.032 1.574,6.024 -1.991,0.415 -3.983,0.832 -5.974,1.247 -0.69,-2.339 -0.637,-3.046 -2.199,-3.046 -6.063,0 -10.862,0 -16.925,0 -2.508,0.073 -2.686,0.839 -2.668,3.736 0,5.107 0,5.872 0,10.979 0,1.896 0.473,3.196 1.539,3.196 6.934,0 12.329,0 19.263,0 0.472,0.02 0.522,-5.617 0,-5.708l-10.304 0 0 -5.864 15.1 0c1.413,0.029 2.269,0.249 2.269,1.481l0 8.759z"/>
  <polygon class="fil3" points="361.078,402.309 354.211,402.309 354.211,372.86 361.078,372.86 "/>
  <polygon class="fil3" points="345.394,402.304 334.528,402.304 316.795,389.571 316.795,402.304 309.862,402.304 309.862,372.671 316.795,372.671 316.795,385.504 333.262,372.671 343.195,372.671 323.728,387.171 "/>
  <polygon class="fil3" points="273.466,402.432 268.732,402.432 246.148,383.706 246.148,402.706 239.881,402.706 239.973,373.224 244.706,373.224 267.266,392.965 267.357,372.95 273.557,372.95 "/>
  <polygon class="fil3" points="190.964,373.372 174.353,402.542 169.62,402.542 152.83,373.372 160.63,373.372 172.563,393.839 183.83,373.372 "/>
  <polygon class="fil3" points="148.11,402.304 117.811,402.304 117.811,372.78 147.777,372.78 147.846,378.273 124.212,378.273 124.143,385.237 138.344,385.237 138.344,390.104 124.143,390.104 124.143,397.182 148.11,397.182 "/>
  <path class="fil3" d="M103.531 395.105c0,5.513 -3.392,7.097 -7.334,7.117l-15.919 0.082c-5.48,0.028 -8.854,-0.742 -8.577,-7.274l5.735 -1.035c0.003,2.178 0.475,3.477 3.268,3.477 5.585,0.075 8.062,-0.031 13.648,0.044 1.939,0 3.91,-0.03 3.91,-4.118 0,-3.377 -1.882,-3.368 -4.164,-3.368l-13.756 0.108c-5.345,0.041 -6.913,-0.755 -6.913,-5.605l0 -4.682c0,-5.472 2.958,-6.042 8.018,-6.042l12.49 0c6.502,0 9.573,0.539 9.434,6.851l-5.315 1.424c-0.203,-2.905 -1.314,-3.786 -4.599,-3.833l-10.72 0c-3.04,0.045 -4.04,-0.122 -4.04,3.439 0,3.388 0.849,3.496 3.618,3.404l13.882 -0.072c5.628,-0.029 7.334,0.809 7.334,6.667l0 3.416z"/>
  <polygon class="fil3" points="228.228,402.453 197.929,402.453 197.929,372.928 227.894,372.928 227.963,378.422 204.33,378.422 204.26,385.386 218.462,385.386 218.462,390.253 204.26,390.253 204.26,397.331 228.228,397.331 "/>
  <polygon class="fil3" points="409.269,402.332 404.535,402.332 381.95,383.607 381.95,402.606 375.684,402.606 375.775,373.124 380.509,373.124 403.068,392.865 403.16,372.85 409.36,372.85 "/>
  <path class="fil3" d="M502.774 395.054c0,5.513 -3.392,7.097 -7.333,7.117l-15.92 0.082c-5.48,0.029 -8.854,-0.741 -8.577,-7.273l5.735 -1.036c0.003,2.178 0.476,3.477 3.268,3.477 5.585,0.075 8.063,-0.031 13.648,0.044 1.939,0 3.91,-0.03 3.91,-4.118 0,-3.377 -1.881,-3.368 -4.163,-3.368l-13.757 0.108c-5.345,0.041 -6.913,-0.755 -6.913,-5.605l0 -4.682c0,-5.471 2.958,-6.041 8.018,-6.041l12.491 0c6.501,0 9.572,0.538 9.434,6.85l-5.315 1.424c-0.204,-2.905 -1.314,-3.786 -4.6,-3.833l-10.719 0c-3.04,0.046 -4.04,-0.121 -4.04,3.44 0,3.388 0.848,3.496 3.617,3.403l13.883 -0.072c5.627,-0.028 7.333,0.81 7.333,6.667l0 3.416z"/>
  <polygon class="fil0" points="283.312,396.242 301.091,396.283 303.795,388.444 296.756,391.301 292.226,379.712 287.743,391.204 280.843,388.638 "/>
  <g id="Burgers_x0020_N_x0060_Beers">
   <path class="fil3" d="M331.277 452.891l0 -20.666 16.394 0c1.508,0 2.601,0.32 3.28,0.961 0.674,0.635 1.014,1.656 1.014,3.051l0 2.517c0,0.993 -0.284,1.788 -0.853,2.375 -0.568,0.595 -1.383,0.961 -2.446,1.109 1.1,0.153 1.952,0.581 2.551,1.268 0.6,0.687 0.896,1.589 0.896,2.697l0 2.629c0,1.376 -0.463,2.39 -1.396,3.058 -0.933,0.667 -2.342,1.001 -4.245,1.001l-15.195 0z"/>
   <path class="fil3" d="M420.455 445.43l0 2.361c0,1.564 -0.776,2.682 -1.314,3.247 -0.539,0.567 -1.56,0.85 -3.066,0.85l-9.69 0c-1.543,0 -2.007,-0.23 -2.554,-0.796 -0.547,-0.566 -5.625,-3.765 -5.625,-5.331l0 -0.479c0.034,-2.476 3.373,-1.65 3.373,-3.69l0 -1.908c0,-1.545 1.756,-3.475 2.298,-4.049 0.541,-0.573 1.577,-0.863 3.108,-0.863l8.865 0c1.501,0 2.531,0.279 3.085,0.823 0.557,0.547 1.345,1.46 1.345,2.849 0,2.378 0.175,4.65 0.175,6.986z"/>
   <path class="fil3" d="M383.179 452.143l0 -17.599 15.31 0c1.4,0 2.411,0.27 3.041,0.804 0.622,0.534 0.937,1.408 0.937,2.621l0 4.134c0,1.198 -0.032,2.505 -0.653,3.03 -1.215,1.027 -0.83,0.94 -2.422,0.94l6.947 6.07 -9.662 0 -3.939 -3.542 0 3.542 -9.559 0z"/>
   <path class="fil3" d="M368.668 452.143l0 -17.619 17.503 0 0 6.826c-1.038,1.51 -1.449,0.617 -2.478,0.884l0 3.04c3.061,-1.053 -0.199,0.609 2.671,0l0 6.869 -17.696 0z"/>
   <polygon class="fil3" points="328.494,437.486 322.196,437.608 314.145,428.766 324.292,428.849 "/>
   <polygon class="fil3" points="297.093,452.76 297.009,434.044 303.618,434.067 309.524,438.951 309.553,434.107 317.643,434.17 317.561,452.76 311.789,452.926 306.081,448.164 306.081,452.76 "/>
   <polygon class="fil3" points="234.69,452.864 234.69,434.401 253.033,434.401 253.033,437.675 242.685,437.675 242.685,441.69 250.927,441.69 250.927,444.876 242.685,444.876 242.685,449.415 253.235,449.415 253.235,452.864 "/>
   <path class="fil3" d="M237.291 448.759c0,1.755 -0.284,2.95 -0.859,3.585 -0.574,0.636 -1.674,0.954 -3.302,0.954l-11.61 0c-1.628,0 -2.727,-0.318 -3.302,-0.954 -0.575,-0.635 -0.859,-1.83 -0.859,-3.585l0 -10.129c0,-1.747 0.284,-2.942 0.859,-3.577 0.575,-0.636 1.674,-0.954 3.302,-0.954l11.61 0c1.616,0 2.715,0.31 3.289,0.931 0.582,0.627 0.453,1.801 0.872,3.38 0.878,3.306 0,5.166 0,10.349z"/>
   <path class="fil3" d="M198.785 452.81l-0.2 -18.57 15.096 0c1.237,0 2.334,0.507 2.888,1.065 0.552,0.554 0.828,1.468 0.828,2.732l0 4.919c0,1.246 0.12,0.974 0.163,1.776 0.081,1.509 -0.457,3.791 2.734,7.979l-9.412 0.007 -4.036 -4.546 0 4.78 -8.061 -0.142z"/>
   <path class="fil3" d="M199.592 434.148l-0.044 14.151c-0.005,1.875 -0.818,2.825 -1.408,3.519 -0.588,0.692 -1.972,1.135 -3.623,1.135l-8.611 0c-1.645,0 -2.328,-0.394 -2.905,-1.079 -0.576,-0.682 -1.572,-1.729 -1.567,-3.625l0.044 -14.151c14.988,0.112 -0.178,0.05 18.114,0.05z"/>
   <path class="fil4" d="M173.294 437.386l-7.393 0 0 3.588 7.393 0c0.562,0 0.949,-0.083 1.165,-0.243 0.217,-0.16 0.324,-0.443 0.324,-0.841l0 -1.419c0,-0.394 -0.107,-0.671 -0.324,-0.837 -0.216,-0.165 -0.603,-0.248 -1.165,-0.248zm0 6.067l-7.393 0 0 3.821 7.393 0c0.616,0 1.031,-0.097 1.246,-0.296 0.216,-0.2 0.324,-0.55 0.324,-1.056l0 -1.132c0,-0.506 -0.108,-0.851 -0.324,-1.045 -0.215,-0.195 -0.63,-0.292 -1.246,-0.292zm-10.579 6.533l0 -15.05 11.938 0c1.098,0 1.894,0.233 2.389,0.701 0.491,0.461 0.738,1.205 0.738,2.221l0 1.833c0,0.724 -0.207,1.303 -0.621,1.73 -0.414,0.433 -1.008,0.7 -1.782,0.807 0.802,0.112 1.422,0.423 1.859,0.924 0.436,0.5 0.652,1.157 0.652,1.964l0 1.915c0,1.001 -0.337,1.74 -1.017,2.226 -0.679,0.486 -1.705,0.729 -3.091,0.729l-11.065 0zm23.192 -12.337l0 10.033 7.938 0 0 -10.033 2.807 0 0 9.421c0,1.118 -0.206,1.886 -0.625,2.299 -0.418,0.413 -1.21,0.617 -2.38,0.617l-7.542 0c-1.166,0 -1.953,-0.204 -2.363,-0.612 -0.409,-0.409 -0.616,-1.176 -0.616,-2.304l0 -9.421 2.781 0zm24.924 2.129l-6.349 0 0 3.412 6.349 0c0.482,0 0.815,-0.077 0.995,-0.228 0.18,-0.151 0.27,-0.408 0.27,-0.768l0 -1.42c0,-0.359 -0.09,-0.617 -0.27,-0.767 -0.18,-0.151 -0.513,-0.229 -0.995,-0.229zm-9.102 10.208l0 -12.337 10.287 0c0.94,0 1.619,0.189 2.042,0.564 0.418,0.374 0.63,0.986 0.63,1.837l0 2.898c0,0.841 -0.212,1.444 -0.63,1.813 -0.423,0.374 -1.102,0.559 -2.042,0.559l-1.567 0 5.427 4.666 -3.992 0 -4.782 -4.666 -2.62 0 0 4.666 -2.753 0zm28.749 -10.062l-8.694 0 0 7.7 8.694 0 0 -2.625 -4.535 0 0 -2.188 7.262 0 0 4.259c0,1.128 -0.202,1.895 -0.612,2.304 -0.409,0.408 -1.193,0.612 -2.353,0.612l-8.271 0c-1.161,0 -1.944,-0.204 -2.354,-0.612 -0.409,-0.409 -0.611,-1.176 -0.611,-2.304l0 -6.509c0,-1.123 0.202,-1.891 0.611,-2.299 0.41,-0.409 1.193,-0.613 2.354,-0.613l8.271 0c1.152,0 1.935,0.199 2.344,0.598 0.414,0.403 0.621,1.122 0.621,2.172l0 0.322 -2.727 0.495 0 -1.312zm7.475 10.062l0 -12.337 12.257 0 0 2.188 -9.449 0 0 2.682 5.507 0 0 2.13 -5.507 0 0 3.033 9.584 0 0 2.304 -12.392 0zm25.514 -10.208l-6.35 0 0 3.412 6.35 0c0.481,0 0.814,-0.077 0.994,-0.228 0.18,-0.151 0.27,-0.408 0.27,-0.768l0 -1.42c0,-0.359 -0.09,-0.617 -0.27,-0.767 -0.18,-0.151 -0.513,-0.229 -0.994,-0.229zm-9.104 10.208l0 -12.337 10.287 0c0.94,0 1.62,0.189 2.043,0.564 0.418,0.374 0.629,0.986 0.629,1.837l0 2.898c0,0.841 -0.211,1.444 -0.629,1.813 -0.423,0.374 -1.103,0.559 -2.043,0.559l-1.566 0 5.427 4.666 -3.991 0 -4.784 -4.666 -2.619 0 0 4.666 -2.754 0zm28.102 -10.12l-7.857 0 0 2.596 7.434 0c1.166,0 1.953,0.203 2.358,0.607 0.4,0.404 0.603,1.167 0.603,2.299l0 1.702c0,1.128 -0.207,1.895 -0.616,2.304 -0.415,0.408 -1.193,0.612 -2.345,0.612l-7.407 0c-1.179,0 -1.98,-0.204 -2.399,-0.612 -0.418,-0.409 -0.625,-1.176 -0.625,-2.304l0 -0.345 2.484 -0.501 0 1.458 8.397 0 0 -2.829 -7.398 0c-1.17,0 -1.961,-0.204 -2.376,-0.617 -0.414,-0.414 -0.621,-1.181 -0.621,-2.305l0 -1.375c0,-1.113 0.207,-1.872 0.621,-2.285 0.415,-0.413 1.206,-0.622 2.376,-0.622l6.777 0c1.148,0 1.935,0.199 2.358,0.593 0.427,0.393 0.639,1.089 0.639,2.09l0 0.297 -2.403 0.549 0 -1.312zm17.802 10.12l0 -12.337 1.912 0 9.697 8.191 0 -8.191 2.511 0 0 12.337 -1.922 0 -9.66 -8.322 0 8.322 -2.538 0zm25.374 -13.941l-1.728 0 -3.888 -4.93 2.926 0 2.69 4.93zm28.782 13.941l0 -12.337 12.257 0 0 2.188 -9.45 0 0 2.682 5.508 0 0 2.13 -5.508 0 0 3.033 9.585 0 0 2.304 -12.392 0zm16.411 0l0 -12.337 12.257 0 0 2.188 -9.45 0 0 2.682 5.508 0 0 2.13 -5.508 0 0 3.033 9.585 0 0 2.304 -12.392 0zm25.513 -10.208l-6.349 0 0 3.412 6.349 0c0.482,0 0.815,-0.077 0.995,-0.228 0.18,-0.151 0.27,-0.408 0.27,-0.768l0 -1.42c0,-0.359 -0.09,-0.617 -0.27,-0.767 -0.18,-0.151 -0.513,-0.229 -0.995,-0.229zm-9.103 10.208l0 -12.337 10.287 0c0.94,0 1.62,0.189 2.043,0.564 0.418,0.374 0.63,0.986 0.63,1.837l0 2.898c0,0.841 -0.212,1.444 -0.63,1.813 -0.423,0.374 -1.103,0.559 -2.043,0.559l-1.566 0 5.427 4.666 -3.992 0 -4.783 -4.666 -2.619 0 0 4.666 -2.754 0zm28.102 -10.12l-7.857 0 0 2.596 7.434 0c1.166,0 1.952,0.203 2.358,0.607 0.4,0.404 0.602,1.167 0.602,2.299l0 1.702c0,1.128 -0.206,1.895 -0.615,2.304 -0.414,0.408 -1.193,0.612 -2.345,0.612l-7.407 0c-1.179,0 -1.98,-0.204 -2.398,-0.612 -0.419,-0.409 -0.626,-1.176 -0.626,-2.304l0 -0.345 2.484 -0.501 0 1.458 8.397 0 0 -2.829 -7.398 0c-1.17,0 -1.962,-0.204 -2.376,-0.617 -0.414,-0.414 -0.621,-1.181 -0.621,-2.305l0 -1.375c0,-1.113 0.207,-1.872 0.621,-2.285 0.414,-0.413 1.206,-0.622 2.376,-0.622l6.777 0c1.147,0 1.935,0.199 2.358,0.593 0.427,0.393 0.639,1.089 0.639,2.09l0 0.297 -2.403 0.549 0 -1.312zm-70.755 -2.48l-7.394 0 0 3.588 7.394 0c0.562,0 0.949,-0.083 1.165,-0.243 0.216,-0.16 0.324,-0.443 0.324,-0.841l0 -1.419c0,-0.394 -0.108,-0.671 -0.324,-0.837 -0.216,-0.165 -0.603,-0.248 -1.165,-0.248zm0 6.067l-7.394 0 0 3.821 7.394 0c0.616,0 1.03,-0.097 1.246,-0.296 0.216,-0.2 0.323,-0.55 0.323,-1.056l0 -1.132c0,-0.506 -0.107,-0.851 -0.323,-1.045 -0.216,-0.195 -0.63,-0.292 -1.246,-0.292zm-10.58 6.533l0 -15.05 11.939 0c1.097,0 1.894,0.233 2.388,0.701 0.491,0.461 0.739,1.205 0.739,2.221l0 1.833c0,0.724 -0.207,1.303 -0.622,1.73 -0.413,0.433 -1.007,0.7 -1.781,0.807 0.801,0.112 1.422,0.423 1.858,0.924 0.437,0.5 0.653,1.157 0.653,1.964l0 1.915c0,1.001 -0.338,1.74 -1.017,2.226 -0.679,0.486 -1.706,0.729 -3.091,0.729l-11.066 0z"/>
  </g>
 </g>
</svg>
