<?xml version="1.0" encoding="UTF-8"?>
<!DOCTYPE svg PUBLIC "-//W3C//DTD SVG 1.1//EN" "http://www.w3.org/Graphics/SVG/1.1/DTD/svg11.dtd">
<!-- Creator: CorelDRAW Standard 2024 -->
<svg xmlns="http://www.w3.org/2000/svg" xml:space="preserve" width="600px" height="600px" version="1.1" style="shape-rendering:geometricPrecision; text-rendering:geometricPrecision; image-rendering:optimizeQuality; fill-rule:evenodd; clip-rule:evenodd"
viewBox="0 0 600 600"
 xmlns:xlink="http://www.w3.org/1999/xlink"
 xmlns:xodm="http://www.corel.com/coreldraw/odm/2003">
 <defs>
  <style type="text/css">
   <![CDATA[
    .str2 {stroke:black;stroke-width:8;stroke-miterlimit:22.9256}
    .str0 {stroke:black;stroke-width:4;stroke-miterlimit:22.9256;stroke-dasharray:8.000000 11.999000}
    .str1 {stroke:white;stroke-width:4;stroke-miterlimit:22.9256;stroke-dasharray:8.000000 11.999000}
    .fil1 {fill:none}
    .fil3 {fill:none;fill-rule:nonzero}
    .fil0 {fill:white}
    .fil2 {fill:#282828;fill-rule:nonzero}
   ]]>
  </style>
   <clipPath id="id0">
    <path d="M300 7c161.819,0 293,131.181 293,293 0,161.819 -131.181,293 -293,293 -161.819,0 -293,-131.181 -293,-293 0,-161.819 131.181,-293 293,-293z"/>
   </clipPath>
    <clipPath id="id1" style="clip-rule:nonzero">
     <path d="M204.937 267.817c0,0 -6.856,-8.659 -2.526,-17.318 4.329,-8.659 10.463,-8.299 20.926,-4.33 10.463,3.969 41.13,8.134 47.984,9.479 6.855,1.345 11.545,6.757 11.545,6.757 0,0 3.609,-1.443 4.69,-0.36 1.084,1.082 4.691,2.164 5.774,0.721 1.082,-1.444 -2.526,-5.412 0,-5.412 2.524,0 19.482,2.887 23.811,1.082 4.33,-1.803 14.432,-2.33 16.236,-2.788 1.804,-0.459 14.792,-1.902 19.843,-7.314 5.051,-5.411 24.173,0.722 27.06,5.051 2.886,4.33 8.658,8.298 7.937,11.906 -0.722,3.608 -5.051,8.659 -10.463,5.052 -5.411,-3.609 -11.906,-8.298 -19.122,-7.216 -7.216,1.082 -24.894,5.369 -29.945,8.457 -5.051,3.087 -19.122,3.087 -24.173,2.727 -5.051,-0.361 -8.948,-3.648 -9.886,0.16 -0.937,3.809 -6.71,7.777 -6.71,7.777 0,0 -6.855,-7.577 -11.545,-7.577 -4.691,0 -12.267,-3.968 -20.565,-5.772 -8.299,-1.804 -31.028,-9.38 -34.636,-9.741 -3.608,-0.361 -15.875,1.443 -16.235,8.659zm294.943 246.392c-8.607,8.033 -17.697,15.555 -27.224,22.515 -2.131,-4.666 1.038,-6.498 -1.458,-8.057 -2.886,-1.804 -9.38,-7.216 -8.659,-10.464 0.722,-3.246 5.051,-3.246 0,-6.133 -5.051,-2.886 -9.38,-7.215 -5.051,-9.019 4.33,-1.805 -1.082,-2.886 0.361,-9.02 1.443,-6.134 -2.526,-9.38 -7.216,-9.38 -4.69,0 -14.431,13.349 -11.184,16.957 3.247,3.607 6.134,6.855 1.803,10.462 -4.329,3.608 -3.692,5.351 -2.345,8.659 1.985,4.871 -5.275,5.917 -2.388,10.607 2.886,4.691 3.29,5.268 -0.679,7.072 -3.968,1.804 -0.179,4.329 1.264,5.412 1.443,1.082 1.984,4.69 -3.789,6.855 -1.182,0.443 -1.79,0.996 -2.019,1.605 0.12,0.535 0.281,1.122 0.497,1.774 0.218,0.656 0.443,1.145 0.672,1.511 0.163,0.204 0.333,0.408 0.504,0.605 1.701,1.373 3.413,-3.331 3.413,-3.331 0,0 2.687,3.102 1.41,5.784 -1.877,1.002 -3.763,1.988 -5.664,2.95 -4.167,-0.22 -6.682,-5.075 -7.19,-6.482 -0.002,-0.002 -0.001,-0.004 -0.002,-0.005 -1.001,-6.576 9.822,-8.38 7.297,-10.905 -2.526,-2.526 -10.102,-7.397 -7.577,-9.922 2.526,-2.526 5.232,-6.494 2.706,-10.463 -2.525,-3.969 -2.886,-5.412 -2.165,-8.839 0.97,-4.603 5.412,-5.953 1.084,-8.118 -4.331,-2.165 -5.412,-11.184 -2.165,-14.432 3.246,-3.247 -4.15,-15.333 -4.51,-8.839 -0.361,6.494 1.924,7.336 -2.045,12.388 -3.968,5.05 -9.741,4.088 -8.178,8.297 1.564,4.21 6.254,5.292 7.215,9.26 0.889,3.661 -3.487,9.381 0.121,11.907 3.608,2.525 6.975,7.335 2.285,10.943 -4.69,3.609 -5.532,1.924 -5.171,3.849 0.536,2.858 10.86,2.197 6.891,6.527 -3.969,4.329 -11.942,11.152 -7.974,12.594 3.969,1.444 9.02,2.886 6.495,6.135 -2.166,2.783 -8.045,2.916 -6.265,4.944 -3.003,1.256 -6.036,2.454 -9.088,3.612 -4.821,-2.501 -3.716,-5.339 0.199,-7.475 3.969,-2.165 -5.772,-2.886 -3.247,-9.019 2.526,-6.134 7.216,-6.855 5.772,-9.02 -1.442,-2.165 -10.823,-1.443 -8.297,-6.855 2.525,-5.411 12.025,-7.336 5.532,-10.223 -6.494,-2.886 -8.419,-0.24 -6.254,-5.651 2.165,-5.412 6.133,-7.578 0.361,-11.546 -5.773,-3.969 -5.557,-7.216 -3.139,-11.906 2.418,-4.69 6.025,-10.102 1.697,-15.875 -4.331,-5.773 -6.495,-7.937 -5.412,-14.792 1.081,-6.855 -2.166,-55.2 -0.723,-62.055 1.444,-6.855 9.021,-16.957 2.526,-16.597 -6.494,0.361 -35.357,63.138 -40.408,68.911 -5.051,5.773 -27.709,33.437 -57.871,26.821l-0.001 0c-7.382,1.387 -35.803,0.713 -51.808,-18.884 -17.678,-21.647 -25.616,-33.192 -28.142,-32.471 -2.525,0.722 -3.247,15.875 -7.215,19.844 -3.969,3.968 -6.855,7.576 -4.33,9.741 2.526,2.164 6.495,1.443 4.33,6.495 -2.165,5.05 -15.875,12.266 -9.02,14.07 6.855,1.804 13.71,3.968 9.381,9.02 -4.33,5.051 -15.153,5.772 -8.659,9.38 6.494,3.608 10.101,6.855 5.773,11.184 -4.33,4.33 -18.852,3.608 -14.883,5.773 3.968,2.164 12.357,4.69 8.749,8.659 -3.608,3.969 -9.922,7.305 -5.953,10.914 3.968,3.608 8.478,7.486 3.789,10.733 -4.691,3.247 -10.012,9.471 -4.601,10.192 5.412,0.722 6.129,5.502 -0.902,8.389l-0.378 0.158c-3.305,-1.33 -6.582,-2.715 -9.826,-4.16 -1.002,-0.866 -2.523,-1.615 -3.776,-2.311 -3.248,-1.805 -2.165,-7.577 2.526,-9.021 4.69,-1.442 4.69,-3.968 1.442,-6.494 -3.246,-2.526 -10.823,-6.855 -5.051,-10.463 5.773,-3.608 6.495,-3.608 5.412,-7.576 -1.082,-3.969 -12.15,-8.299 -7.517,-11.545 4.631,-3.248 11.126,-2.887 9.321,-8.659 -1.804,-5.773 -9.741,-3.969 -8.298,-9.742 1.443,-5.772 11.184,-2.165 9.381,-7.577 -1.804,-5.412 -11.185,-6.494 -9.742,-12.266 1.443,-5.772 11.185,-7.577 10.102,-14.431 -1.082,-6.856 -2.164,-9.742 -4.69,-9.381 -2.526,0.361 -5.051,8.659 -9.02,13.71 -3.968,5.051 -9.741,4.69 -13.349,9.381 -3.608,4.689 -3.968,4.329 0,6.854 3.969,2.526 -12.988,11.907 -8.298,14.433 4.69,2.524 10.462,4.328 3.969,9.379 -6.495,5.051 -4.902,6.133 -4.796,7.577 0.106,1.443 6.6,5.411 1.549,8.298 -5.051,2.887 -7.577,6.134 -3.608,9.381 3.969,3.246 2.886,7.215 -5.773,7.937 -0.307,0.025 -0.609,0.054 -0.908,0.085 -13.002,-8.507 -25.298,-18.004 -36.755,-28.411 0.508,-1.32 0.608,-3.009 0.141,-5.227 -1.443,-6.855 -0.722,-9.019 3.608,-12.267 4.33,-3.247 3.968,-3.969 2.165,-10.464 -1.804,-6.493 0,-9.74 2.525,-11.905 2.526,-2.165 -3.969,-18.4 3.969,-24.533 7.938,-6.134 2.526,-11.185 5.052,-22.369 2.525,-11.184 2.525,-19.122 -3.609,-28.142 -6.134,-9.02 -1.082,-24.534 0.361,-25.976 1.443,-1.444 3.608,-9.381 1.082,-14.071 -2.525,-4.691 -9.019,-22.369 -4.691,-28.142 4.331,-5.773 7.938,-5.051 4.691,-13.349 -3.246,-8.298 -6.855,-10.463 -3.246,-15.153 3.607,-4.691 5.05,-5.412 1.803,-7.937 -3.248,-2.526 -4.329,-6.856 -0.36,-9.742 3.969,-2.886 10.823,-7.937 8.297,-18.039 -2.525,-10.102 -3.247,-18.008 2.165,-26.141 5.412,-8.134 18.762,-28.338 17.679,-34.472 -1.082,-6.132 -5.412,-30.306 2.164,-38.244 7.577,-7.937 37.523,-46.54 42.934,-62.415 5.412,-15.875 46.542,-38.244 57.366,-41.492 10.823,-3.246 32.831,-0.36 37.882,0 0.61,0.044 1.3,0.585 2.035,1.519 1.916,-2.032 4.383,-3.813 7.562,-5.126 17.462,-7.216 62.561,1.083 81.683,14.251 19.121,13.169 39.326,45.279 42.212,49.609 2.886,4.329 15.514,33.192 20.565,39.325 5.051,6.134 23.451,28.142 23.451,37.162 0,9.019 -3.968,31.78 2.525,39.883 6.495,8.101 14.432,24.698 14.071,32.635 -0.361,7.937 -1.081,12.988 4.691,18.039 5.773,5.051 13.349,13.71 6.493,24.173 -6.854,10.463 -11.905,16.597 -5.411,20.566 6.494,3.967 2.165,11.183 1.083,15.874 -1.083,4.69 -6.856,18.4 0,23.812 6.854,5.412 14.07,10.824 12.988,20.925 -1.082,10.103 -5.773,22.37 -1.804,29.224 3.969,6.855 12.266,13.71 8.659,20.927 -3.608,7.215 -5.773,10.462 -3.247,13.348 2.525,2.886 10.072,11.185 4.134,17.318 -5.938,6.133 -8.103,10.824 -5.217,12.989 2.887,2.164 6.134,8.298 1.083,11.545 -5.051,3.248 -5.051,6.855 -3.247,8.658 0.217,0.217 0.397,0.45 0.54,0.696zm-72.337 -247.475c-2.165,12.989 -19.844,29.946 -19.844,29.946 0,0 -1.487,-19.133 0,-28.142 0,0 1.443,-18.039 7.938,-19.482 6.494,-1.444 14.07,4.69 11.906,17.678zm-126.89 -108.316c10.056,0.089 22.684,-0.417 32.363,-0.642 15.514,-0.36 15.153,6.133 27.42,9.742 12.267,3.608 24.534,31.749 25.616,46.902 1.083,15.154 14.792,30.667 15.875,37.883 1.082,7.216 3.247,60.973 0.721,76.672 -2.525,15.7 -6.132,9.556 -11.475,28.6 -5.341,19.044 -26.407,42.652 -29.293,44.815 -2.887,2.165 -2.166,-11.184 -6.855,-15.513 -4.691,-4.33 -16.597,-7.937 -24.174,-15.514 -7.576,-7.577 -26.337,-13.349 -31.388,-12.267 -5.051,1.083 -2.526,9.021 -2.886,19.483 -0.361,10.462 9.741,3.607 22.151,6.493 12.408,2.887 17.174,10.825 16.814,21.648 -0.361,10.824 -3.247,23.452 -11.906,29.585 -8.658,6.133 -31.565,4.157 -31.565,4.157 0,0 -7.761,-3.796 -25.8,-1.631 -18.04,2.164 -19.844,-4.691 -22.009,-11.185 -2.164,-6.494 -7.937,-22.37 1.804,-33.553 9.742,-11.185 25.616,-10.464 32.11,-14.432 6.494,-3.968 0,-20.204 0,-20.204 -1.979,-6.428 -17.678,0.722 -25.616,3.608 -7.937,2.886 -27.059,24.173 -30.306,27.059 -3.247,2.886 -3.367,-3.848 -4.088,-11.425 -0.722,-7.576 -8.901,-21.768 -13.59,-31.509 -4.691,-9.741 -14.432,-38.243 -17.68,-46.181 -3.246,-7.937 0.722,-43.294 1.444,-53.397 0.721,-10.101 10.824,-40.047 20.565,-63.498 9.741,-23.451 41.851,-24.173 53.397,-26.338 11.545,-2.165 29.584,5.773 36.369,3.247 0.949,-0.352 1.585,-1.264 1.982,-2.605zm-32.218 256.601c0,0 30.307,-2.887 37.522,0 7.216,2.886 -9.561,18.58 -15.695,22.91 0,0 -5.592,-4.15 -13.529,-11.004 -7.937,-6.855 -12.988,-9.02 -8.298,-11.906zm-85.146 -125.194c0,0 -7.216,-15.154 -9.381,-22.008 -2.164,-6.855 0.74,-23.737 5.051,-18.761 9.381,10.823 4.33,40.769 4.33,40.769z"/>
    </clipPath>
    <clipPath id="id2" style="clip-rule:nonzero">
     <path d="M300 7c161.819,0 293,131.181 293,293 0,161.819 -131.181,293 -293,293 -161.819,0 -293,-131.181 -293,-293 0,-161.819 131.181,-293 293,-293z"/>
    </clipPath>
 </defs>
 <g id="Camada_x0020_1">
  <metadata id="CorelCorpID_0Corel-Layer"/>
  <g>
  </g>
  <g style="clip-path:url(#id0)">
   <g id="_2070919226720">
    <circle id="Border" class="fil0" cx="299.666" cy="305.964" r="343.659"/>
    <circle id="ExternalDash" class="fil1 str0" cx="300" cy="300" r="280.095"/>
    <path id="Head" class="fil2" d="M204.937 267.817c0,0 -6.856,-8.659 -2.526,-17.318 4.329,-8.659 10.463,-8.299 20.926,-4.33 10.463,3.969 41.13,8.134 47.984,9.479 6.855,1.345 11.545,6.757 11.545,6.757 0,0 3.609,-1.443 4.69,-0.36 1.084,1.082 4.691,2.164 5.774,0.721 1.082,-1.444 -2.526,-5.412 0,-5.412 2.524,0 19.482,2.887 23.811,1.082 4.33,-1.803 14.432,-2.33 16.236,-2.788 1.804,-0.459 14.792,-1.902 19.843,-7.314 5.051,-5.411 24.173,0.722 27.06,5.051 2.886,4.33 8.658,8.298 7.937,11.906 -0.722,3.608 -5.051,8.659 -10.463,5.052 -5.411,-3.609 -11.906,-8.298 -19.122,-7.216 -7.216,1.082 -24.894,5.369 -29.945,8.457 -5.051,3.087 -19.122,3.087 -24.173,2.727 -5.051,-0.361 -8.948,-3.648 -9.886,0.16 -0.937,3.809 -6.71,7.777 -6.71,7.777 0,0 -6.855,-7.577 -11.545,-7.577 -4.691,0 -12.267,-3.968 -20.565,-5.772 -8.299,-1.804 -31.028,-9.38 -34.636,-9.741 -3.608,-0.361 -15.875,1.443 -16.235,8.659zm222.606 -1.083c-2.165,12.989 -19.844,29.946 -19.844,29.946 0,0 -1.487,-19.133 0,-28.142 0,0 1.443,-18.039 7.938,-19.482 6.494,-1.444 14.07,4.69 11.906,17.678zm75.044 196.269c-2.526,-2.886 -0.361,-6.133 3.247,-13.348 3.607,-7.217 -4.69,-14.072 -8.659,-20.927 -3.969,-6.854 0.722,-19.121 1.804,-29.224 1.082,-10.101 -6.134,-15.513 -12.988,-20.925 -6.856,-5.412 -1.083,-19.122 0,-23.812 1.082,-4.691 5.411,-11.907 -1.083,-15.874 -6.494,-3.969 -1.443,-10.103 5.411,-20.566 6.856,-10.463 -0.72,-19.122 -6.493,-24.173 -5.772,-5.051 -5.052,-10.102 -4.691,-18.039 0.361,-7.937 -7.576,-24.534 -14.071,-32.635 -6.493,-8.103 -2.525,-30.864 -2.525,-39.883 0,-9.02 -18.4,-31.028 -23.451,-37.162 -5.051,-6.133 -17.679,-34.996 -20.565,-39.325 -2.886,-4.33 -23.091,-36.44 -42.212,-49.609 -19.122,-13.168 -64.221,-21.467 -81.683,-14.251 -3.179,1.313 -5.646,3.094 -7.562,5.126 -0.735,-0.934 -1.425,-1.475 -2.035,-1.519 -5.051,-0.36 -27.059,-3.246 -37.882,0 -10.824,3.248 -51.954,25.617 -57.366,41.492 -5.411,15.875 -35.357,54.478 -42.934,62.415 -7.576,7.938 -3.246,32.112 -2.164,38.244 1.083,6.134 -12.267,26.338 -17.679,34.472 -5.412,8.133 -4.69,16.039 -2.165,26.141 2.526,10.102 -4.328,15.153 -8.297,18.039 -3.969,2.886 -2.888,7.216 0.36,9.742 3.247,2.525 1.804,3.246 -1.803,7.937 -3.609,4.69 0,6.855 3.246,15.153 3.247,8.298 -0.36,7.576 -4.691,13.349 -4.328,5.773 2.166,23.451 4.691,28.142 2.526,4.69 0.361,12.627 -1.082,14.071 -1.443,1.442 -6.495,16.956 -0.361,25.976 6.134,9.02 6.134,16.958 3.609,28.142 -2.526,11.184 2.886,16.235 -5.052,22.369 -7.938,6.133 -1.443,22.368 -3.969,24.533 -2.525,2.165 -4.329,5.412 -2.525,11.905 1.803,6.495 2.165,7.217 -2.165,10.464 -4.33,3.248 -5.051,5.412 -3.608,12.267 1.443,6.854 -2.526,8.659 -7.216,10.102 -4.689,1.443 -1.443,5.051 1.443,9.02 2.886,3.968 -1.443,6.854 -6.132,10.102 -4.691,3.247 4.689,12.627 6.493,15.153 1.804,2.525 3.247,6.132 7.216,10.462 3.969,4.33 -3.247,3.608 -6.133,7.577 -2.887,3.969 -2.887,5.772 2.164,9.02 5.051,3.247 -1.082,1.804 -4.329,6.494 -3.247,4.69 5.051,3.608 2.526,10.463 -2.526,6.855 -10.824,-0.362 -10.824,-0.362 -0.722,12.268 11.538,8.213 17.318,4.691 4.416,-2.691 1.443,-6.854 -0.362,-10.102 -1.803,-3.247 4.691,-3.968 8.66,-5.773 3.969,-1.803 6.855,-7.937 6.133,-9.74 -0.721,-1.805 1.804,-7.217 10.081,-11.186 8.276,-3.968 10.484,-8.658 3.268,-13.709 -7.215,-5.051 -1.443,-7.938 7.216,-8.659 8.659,-0.722 9.742,-4.691 5.773,-7.937 -3.969,-3.247 -1.443,-6.494 3.608,-9.381 5.051,-2.887 -1.443,-6.855 -1.549,-8.298 -0.106,-1.444 -1.699,-2.526 4.796,-7.577 6.493,-5.051 0.721,-6.855 -3.969,-9.379 -4.69,-2.526 12.267,-11.907 8.298,-14.433 -3.968,-2.525 -3.608,-2.165 0,-6.854 3.608,-4.691 9.381,-4.33 13.349,-9.381 3.969,-5.051 6.494,-13.349 9.02,-13.71 2.526,-0.361 3.608,2.525 4.69,9.381 1.083,6.854 -8.659,8.659 -10.102,14.431 -1.443,5.772 7.938,6.854 9.742,12.266 1.803,5.412 -7.938,1.805 -9.381,7.577 -1.443,5.773 6.494,3.969 8.298,9.742 1.805,5.772 -4.69,5.411 -9.321,8.659 -4.633,3.246 6.435,7.576 7.517,11.545 1.083,3.968 0.361,3.968 -5.412,7.576 -5.772,3.608 1.805,7.937 5.051,10.463 3.248,2.526 3.248,5.052 -1.442,6.494 -4.691,1.444 -5.774,7.216 -2.526,9.021 3.247,1.803 8.298,3.968 1.443,7.575 -6.855,3.608 -3.969,6.134 2.037,6.855 6.007,0.722 6.082,4.733 3.374,7.036 -5.231,4.45 0.722,9.02 7.396,9.02 -8.658,-5.683 -2.372,-4.507 -0.451,-7.666 0.625,-1.027 0.681,-2.736 -0.541,-3.699 -1.713,-1.353 4.515,-6.945 1.444,-8.389 -3.072,-1.443 -7.752,-1.533 -0.722,-4.419 7.031,-2.887 6.314,-7.667 0.902,-8.389 -5.411,-0.721 -0.09,-6.945 4.601,-10.192 4.689,-3.247 0.179,-7.125 -3.789,-10.733 -3.969,-3.609 2.345,-6.945 5.953,-10.914 3.608,-3.969 -4.781,-6.495 -8.749,-8.659 -3.969,-2.165 10.553,-1.443 14.883,-5.773 4.328,-4.329 0.721,-7.576 -5.773,-11.184 -6.494,-3.608 4.329,-4.329 8.659,-9.38 4.329,-5.052 -2.526,-7.216 -9.381,-9.02 -6.855,-1.804 6.855,-9.02 9.02,-14.07 2.165,-5.052 -1.804,-4.331 -4.33,-6.495 -2.525,-2.165 0.361,-5.773 4.33,-9.741 3.968,-3.969 4.69,-19.122 7.215,-19.844 2.526,-0.721 10.464,10.824 28.142,32.471 16.005,19.597 44.426,20.271 51.808,18.884l0.001 0c30.162,6.616 52.82,-21.048 57.871,-26.821 5.051,-5.773 33.914,-68.55 40.408,-68.911 6.495,-0.36 -1.082,9.742 -2.526,16.597 -1.443,6.855 1.804,55.2 0.723,62.055 -1.083,6.855 1.081,9.019 5.412,14.792 4.328,5.773 0.721,11.185 -1.697,15.875 -2.418,4.69 -2.634,7.937 3.139,11.906 5.772,3.968 1.804,6.134 -0.361,11.546 -2.165,5.411 -0.24,2.765 6.254,5.651 6.493,2.887 -3.007,4.812 -5.532,10.223 -2.526,5.412 6.855,4.69 8.297,6.855 1.444,2.165 -3.246,2.886 -5.772,9.02 -2.525,6.133 7.216,6.854 3.247,9.019 -3.968,2.165 -5.05,5.051 0,7.577 5.051,2.525 5.56,4.167 3.248,5.412 -6.254,3.367 -6.134,8.013 -1.444,10.342 3.213,1.595 7.513,0.89 10.175,0.184 0.991,-0.085 1.868,-0.317 2.453,-0.784 2.405,-1.925 -4.089,-3.489 -4.871,-3.489 -0.782,0 2.586,1.908 1.384,2.157 -0.976,0.201 -2.551,0.356 -3.907,-0.264 -0.293,-0.174 -0.594,-0.363 -0.904,-0.569 -0.097,-0.082 -0.185,-0.143 -0.27,-0.188 -4.844,-3.406 3,-3.125 7.606,-6.667 4.69,-3.609 2.405,-5.412 -3.007,-8.66 -5.412,-3.246 2.165,-2.886 4.691,-6.132 2.525,-3.249 -2.526,-4.691 -6.495,-6.135 -3.968,-1.442 4.005,-8.265 7.974,-12.594 3.969,-4.33 -6.355,-3.669 -6.891,-6.527 -0.361,-1.925 0.481,-0.24 5.171,-3.849 4.69,-3.608 1.323,-8.418 -2.285,-10.943 -3.608,-2.526 0.768,-8.246 -0.121,-11.907 -0.961,-3.968 -5.651,-5.05 -7.215,-9.26 -1.563,-4.209 4.21,-3.247 8.178,-8.297 3.969,-5.052 1.684,-5.894 2.045,-12.388 0.36,-6.494 7.756,5.592 4.51,8.839 -3.247,3.248 -2.166,12.267 2.165,14.432 4.328,2.165 -0.114,3.515 -1.084,8.118 -0.721,3.427 -0.36,4.87 2.165,8.839 2.526,3.969 -0.18,7.937 -2.706,10.463 -2.525,2.525 5.051,7.396 7.577,9.922 2.525,2.525 -8.298,4.329 -7.297,10.905 0.001,0.001 0,0.003 0.002,0.005 0.62,1.717 4.229,8.572 10.181,5.866 5.954,-2.706 1.263,-8.118 1.263,-8.118 0,0 -1.712,4.704 -3.413,3.331 -0.171,-0.197 -0.341,-0.401 -0.504,-0.605 -0.229,-0.366 -0.454,-0.855 -0.672,-1.511 -0.216,-0.652 -0.377,-1.239 -0.497,-1.774 0.229,-0.609 0.837,-1.162 2.019,-1.605 5.773,-2.165 5.232,-5.773 3.789,-6.855 -1.443,-1.083 -5.232,-3.608 -1.264,-5.412 3.969,-1.804 3.565,-2.381 0.679,-7.072 -2.887,-4.69 4.373,-5.736 2.388,-10.607 -1.347,-3.308 -1.984,-5.051 2.345,-8.659 4.331,-3.607 1.444,-6.855 -1.803,-10.462 -3.247,-3.608 6.494,-16.957 11.184,-16.957 4.69,0 8.659,3.246 7.216,9.38 -1.443,6.134 3.969,7.215 -0.361,9.02 -4.329,1.804 0,6.133 5.051,9.019 5.051,2.887 0.722,2.887 0,6.133 -0.721,3.248 5.773,8.66 8.659,10.464 2.886,1.803 -1.804,3.969 2.886,10.463 4.69,6.494 9.742,5.772 6.856,8.658 -2.886,2.887 1.081,6.134 3.968,8.299 2.886,2.164 3.969,6.494 3.969,6.494 0,0 5.051,-5.773 1.442,-7.216 -3.607,-1.443 -2.163,-6.494 3.248,-8.298 5.412,-1.804 5.412,-11.545 2.164,-12.988 -3.246,-1.443 -2.525,-10.102 1.083,-12.989 3.608,-2.887 4.33,-5.773 2.526,-7.577 -1.804,-1.803 -1.804,-5.41 3.247,-8.658 5.051,-3.247 1.804,-9.381 -1.083,-11.545 -2.886,-2.165 -0.721,-6.856 5.217,-12.989 5.938,-6.133 -1.609,-14.432 -4.134,-17.318zm-201.934 -304.585c10.056,0.089 22.684,-0.417 32.363,-0.642 15.514,-0.36 15.153,6.133 27.42,9.742 12.267,3.608 24.534,31.749 25.616,46.902 1.083,15.154 14.792,30.667 15.875,37.883 1.082,7.216 3.247,60.973 0.721,76.672 -2.525,15.7 -6.132,9.556 -11.475,28.6 -5.341,19.044 -26.407,42.652 -29.293,44.815 -2.887,2.165 -2.166,-11.184 -6.855,-15.513 -4.691,-4.33 -16.597,-7.937 -24.174,-15.514 -7.576,-7.577 -26.337,-13.349 -31.388,-12.267 -5.051,1.083 -2.526,9.021 -2.886,19.483 -0.361,10.462 9.741,3.607 22.151,6.493 12.408,2.887 17.174,10.825 16.814,21.648 -0.361,10.824 -3.247,23.452 -11.906,29.585 -8.658,6.133 -31.565,4.157 -31.565,4.157 0,0 -7.761,-3.796 -25.8,-1.631 -18.04,2.164 -19.844,-4.691 -22.009,-11.185 -2.164,-6.494 -7.937,-22.37 1.804,-33.553 9.742,-11.185 25.616,-10.464 32.11,-14.432 6.494,-3.968 0,-20.204 0,-20.204 -1.979,-6.428 -17.678,0.722 -25.616,3.608 -7.937,2.886 -27.059,24.173 -30.306,27.059 -3.247,2.886 -3.367,-3.848 -4.088,-11.425 -0.722,-7.576 -8.901,-21.768 -13.59,-31.509 -4.691,-9.741 -14.432,-38.243 -17.68,-46.181 -3.246,-7.937 0.722,-43.294 1.444,-53.397 0.721,-10.101 10.824,-40.047 20.565,-63.498 9.741,-23.451 41.851,-24.173 53.397,-26.338 11.545,-2.165 29.584,5.773 36.369,3.247 0.949,-0.352 1.585,-1.264 1.982,-2.605zm131.58 404.163c0,0 -0.342,-0.184 -0.88,-0.503 0.212,0.317 0.506,0.503 0.88,0.503zm-163.798 -147.562c0,0 30.307,-2.887 37.522,0 7.216,2.886 -9.561,18.58 -15.695,22.91 0,0 -5.592,-4.15 -13.529,-11.004 -7.937,-6.855 -12.988,-9.02 -8.298,-11.906zm-85.146 -125.194c0,0 -7.216,-15.154 -9.381,-22.008 -2.164,-6.855 0.74,-23.737 5.051,-18.761 9.381,10.823 4.33,40.769 4.33,40.769z"/>
   </g>
   <g style="clip-path:url(#id1)">
    <g>
     <circle id="InternalDash" class="fil1 str1" cx="300.201" cy="300.047" r="280.095"/>
    </g>
   </g>
   <g style="clip-path:url(#id2)">
    <path class="fil3" d="M204.937 267.817c0,0 -6.856,-8.659 -2.526,-17.318 4.329,-8.659 10.463,-8.299 20.926,-4.33 10.463,3.969 41.13,8.134 47.984,9.479 6.855,1.345 11.545,6.757 11.545,6.757 0,0 3.609,-1.443 4.69,-0.36 1.084,1.082 4.691,2.164 5.774,0.721 1.082,-1.444 -2.526,-5.412 0,-5.412 2.524,0 19.482,2.887 23.811,1.082 4.33,-1.803 14.432,-2.33 16.236,-2.788 1.804,-0.459 14.792,-1.902 19.843,-7.314 5.051,-5.411 24.173,0.722 27.06,5.051 2.886,4.33 8.658,8.298 7.937,11.906 -0.722,3.608 -5.051,8.659 -10.463,5.052 -5.411,-3.609 -11.906,-8.298 -19.122,-7.216 -7.216,1.082 -24.894,5.369 -29.945,8.457 -5.051,3.087 -19.122,3.087 -24.173,2.727 -5.051,-0.361 -8.948,-3.648 -9.886,0.16 -0.937,3.809 -6.71,7.777 -6.71,7.777 0,0 -6.855,-7.577 -11.545,-7.577 -4.691,0 -12.267,-3.968 -20.565,-5.772 -8.299,-1.804 -31.028,-9.38 -34.636,-9.741 -3.608,-0.361 -15.875,1.443 -16.235,8.659zm222.606 -1.083c-2.165,12.989 -19.844,29.946 -19.844,29.946 0,0 -1.487,-19.133 0,-28.142 0,0 1.443,-18.039 7.938,-19.482 6.494,-1.444 14.07,4.69 11.906,17.678zm75.044 196.269c-2.526,-2.886 -0.361,-6.133 3.247,-13.348 3.607,-7.217 -4.69,-14.072 -8.659,-20.927 -3.969,-6.854 0.722,-19.121 1.804,-29.224 1.082,-10.101 -6.134,-15.513 -12.988,-20.925 -6.856,-5.412 -1.083,-19.122 0,-23.812 1.082,-4.691 5.411,-11.907 -1.083,-15.874 -6.494,-3.969 -1.443,-10.103 5.411,-20.566 6.856,-10.463 -0.72,-19.122 -6.493,-24.173 -5.772,-5.051 -5.052,-10.102 -4.691,-18.039 0.361,-7.937 -7.576,-24.534 -14.071,-32.635 -6.493,-8.103 -2.525,-30.864 -2.525,-39.883 0,-9.02 -18.4,-31.028 -23.451,-37.162 -5.051,-6.133 -17.679,-34.996 -20.565,-39.325 -2.886,-4.33 -23.091,-36.44 -42.212,-49.609 -19.122,-13.168 -64.221,-21.467 -81.683,-14.251 -3.179,1.313 -5.646,3.094 -7.562,5.126 -0.735,-0.934 -1.425,-1.475 -2.035,-1.519 -5.051,-0.36 -27.059,-3.246 -37.882,0 -10.824,3.248 -51.954,25.617 -57.366,41.492 -5.411,15.875 -35.357,54.478 -42.934,62.415 -7.576,7.938 -3.246,32.112 -2.164,38.244 1.083,6.134 -12.267,26.338 -17.679,34.472 -5.412,8.133 -4.69,16.039 -2.165,26.141 2.526,10.102 -4.328,15.153 -8.297,18.039 -3.969,2.886 -2.888,7.216 0.36,9.742 3.247,2.525 1.804,3.246 -1.803,7.937 -3.609,4.69 0,6.855 3.246,15.153 3.247,8.298 -0.36,7.576 -4.691,13.349 -4.328,5.773 2.166,23.451 4.691,28.142 2.526,4.69 0.361,12.627 -1.082,14.071 -1.443,1.442 -6.495,16.956 -0.361,25.976 6.134,9.02 6.134,16.958 3.609,28.142 -2.526,11.184 2.886,16.235 -5.052,22.369 -7.938,6.133 -1.443,22.368 -3.969,24.533 -2.525,2.165 -4.329,5.412 -2.525,11.905 1.803,6.495 2.165,7.217 -2.165,10.464 -4.33,3.248 -5.051,5.412 -3.608,12.267 1.443,6.854 -2.526,8.659 -7.216,10.102 -4.689,1.443 -1.443,5.051 1.443,9.02 2.886,3.968 -1.443,6.854 -6.132,10.102 -4.691,3.247 4.689,12.627 6.493,15.153 1.804,2.525 3.247,6.132 7.216,10.462 3.969,4.33 -3.247,3.608 -6.133,7.577 -2.887,3.969 -2.887,5.772 2.164,9.02 5.051,3.247 -1.082,1.804 -4.329,6.494 -3.247,4.69 5.051,3.608 2.526,10.463 -2.526,6.855 -10.824,-0.362 -10.824,-0.362 -0.722,12.268 11.538,8.213 17.318,4.691 4.416,-2.691 1.443,-6.854 -0.362,-10.102 -1.803,-3.247 4.691,-3.968 8.66,-5.773 3.969,-1.803 6.855,-7.937 6.133,-9.74 -0.721,-1.805 1.804,-7.217 10.081,-11.186 8.276,-3.968 10.484,-8.658 3.268,-13.709 -7.215,-5.051 -1.443,-7.938 7.216,-8.659 8.659,-0.722 9.742,-4.691 5.773,-7.937 -3.969,-3.247 -1.443,-6.494 3.608,-9.381 5.051,-2.887 -1.443,-6.855 -1.549,-8.298 -0.106,-1.444 -1.699,-2.526 4.796,-7.577 6.493,-5.051 0.721,-6.855 -3.969,-9.379 -4.69,-2.526 12.267,-11.907 8.298,-14.433 -3.968,-2.525 -3.608,-2.165 0,-6.854 3.608,-4.691 9.381,-4.33 13.349,-9.381 3.969,-5.051 6.494,-13.349 9.02,-13.71 2.526,-0.361 3.608,2.525 4.69,9.381 1.083,6.854 -8.659,8.659 -10.102,14.431 -1.443,5.772 7.938,6.854 9.742,12.266 1.803,5.412 -7.938,1.805 -9.381,7.577 -1.443,5.773 6.494,3.969 8.298,9.742 1.805,5.772 -4.69,5.411 -9.321,8.659 -4.633,3.246 6.435,7.576 7.517,11.545 1.083,3.968 0.361,3.968 -5.412,7.576 -5.772,3.608 1.805,7.937 5.051,10.463 3.248,2.526 3.248,5.052 -1.442,6.494 -4.691,1.444 -5.774,7.216 -2.526,9.021 3.247,1.803 8.298,3.968 1.443,7.575 -6.855,3.608 -3.969,6.134 2.037,6.855 6.007,0.722 6.082,4.733 3.374,7.036 -5.231,4.45 0.722,9.02 7.396,9.02 -8.658,-5.683 -2.372,-4.507 -0.451,-7.666 0.625,-1.027 0.681,-2.736 -0.541,-3.699 -1.713,-1.353 4.515,-6.945 1.444,-8.389 -3.072,-1.443 -7.752,-1.533 -0.722,-4.419 7.031,-2.887 6.314,-7.667 0.902,-8.389 -5.411,-0.721 -0.09,-6.945 4.601,-10.192 4.689,-3.247 0.179,-7.125 -3.789,-10.733 -3.969,-3.609 2.345,-6.945 5.953,-10.914 3.608,-3.969 -4.781,-6.495 -8.749,-8.659 -3.969,-2.165 10.553,-1.443 14.883,-5.773 4.328,-4.329 0.721,-7.576 -5.773,-11.184 -6.494,-3.608 4.329,-4.329 8.659,-9.38 4.329,-5.052 -2.526,-7.216 -9.381,-9.02 -6.855,-1.804 6.855,-9.02 9.02,-14.07 2.165,-5.052 -1.804,-4.331 -4.33,-6.495 -2.525,-2.165 0.361,-5.773 4.33,-9.741 3.968,-3.969 4.69,-19.122 7.215,-19.844 2.526,-0.721 10.464,10.824 28.142,32.471 16.005,19.597 44.426,20.271 51.808,18.884l0.001 0c30.162,6.616 52.82,-21.048 57.871,-26.821 5.051,-5.773 33.914,-68.55 40.408,-68.911 6.495,-0.36 -1.082,9.742 -2.526,16.597 -1.443,6.855 1.804,55.2 0.723,62.055 -1.083,6.855 1.081,9.019 5.412,14.792 4.328,5.773 0.721,11.185 -1.697,15.875 -2.418,4.69 -2.634,7.937 3.139,11.906 5.772,3.968 1.804,6.134 -0.361,11.546 -2.165,5.411 -0.24,2.765 6.254,5.651 6.493,2.887 -3.007,4.812 -5.532,10.223 -2.526,5.412 6.855,4.69 8.297,6.855 1.444,2.165 -3.246,2.886 -5.772,9.02 -2.525,6.133 7.216,6.854 3.247,9.019 -3.968,2.165 -5.05,5.051 0,7.577 5.051,2.525 5.56,4.167 3.248,5.412 -6.254,3.367 -6.134,8.013 -1.444,10.342 3.213,1.595 7.513,0.89 10.175,0.184 0.991,-0.085 1.868,-0.317 2.453,-0.784 2.405,-1.925 -4.089,-3.489 -4.871,-3.489 -0.782,0 2.586,1.908 1.384,2.157 -0.976,0.201 -2.551,0.356 -3.907,-0.264 -0.293,-0.174 -0.594,-0.363 -0.904,-0.569 -0.097,-0.082 -0.185,-0.143 -0.27,-0.188 -4.844,-3.406 3,-3.125 7.606,-6.667 4.69,-3.609 2.405,-5.412 -3.007,-8.66 -5.412,-3.246 2.165,-2.886 4.691,-6.132 2.525,-3.249 -2.526,-4.691 -6.495,-6.135 -3.968,-1.442 4.005,-8.265 7.974,-12.594 3.969,-4.33 -6.355,-3.669 -6.891,-6.527 -0.361,-1.925 0.481,-0.24 5.171,-3.849 4.69,-3.608 1.323,-8.418 -2.285,-10.943 -3.608,-2.526 0.768,-8.246 -0.121,-11.907 -0.961,-3.968 -5.651,-5.05 -7.215,-9.26 -1.563,-4.209 4.21,-3.247 8.178,-8.297 3.969,-5.052 1.684,-5.894 2.045,-12.388 0.36,-6.494 7.756,5.592 4.51,8.839 -3.247,3.248 -2.166,12.267 2.165,14.432 4.328,2.165 -0.114,3.515 -1.084,8.118 -0.721,3.427 -0.36,4.87 2.165,8.839 2.526,3.969 -0.18,7.937 -2.706,10.463 -2.525,2.525 5.051,7.396 7.577,9.922 2.525,2.525 -8.298,4.329 -7.297,10.905 0.001,0.001 0,0.003 0.002,0.005 0.62,1.717 4.229,8.572 10.181,5.866 5.954,-2.706 1.263,-8.118 1.263,-8.118 0,0 -1.712,4.704 -3.413,3.331 -0.171,-0.197 -0.341,-0.401 -0.504,-0.605 -0.229,-0.366 -0.454,-0.855 -0.672,-1.511 -0.216,-0.652 -0.377,-1.239 -0.497,-1.774 0.229,-0.609 0.837,-1.162 2.019,-1.605 5.773,-2.165 5.232,-5.773 3.789,-6.855 -1.443,-1.083 -5.232,-3.608 -1.264,-5.412 3.969,-1.804 3.565,-2.381 0.679,-7.072 -2.887,-4.69 4.373,-5.736 2.388,-10.607 -1.347,-3.308 -1.984,-5.051 2.345,-8.659 4.331,-3.607 1.444,-6.855 -1.803,-10.462 -3.247,-3.608 6.494,-16.957 11.184,-16.957 4.69,0 8.659,3.246 7.216,9.38 -1.443,6.134 3.969,7.215 -0.361,9.02 -4.329,1.804 0,6.133 5.051,9.019 5.051,2.887 0.722,2.887 0,6.133 -0.721,3.248 5.773,8.66 8.659,10.464 2.886,1.803 -1.804,3.969 2.886,10.463 4.69,6.494 9.742,5.772 6.856,8.658 -2.886,2.887 1.081,6.134 3.968,8.299 2.886,2.164 3.969,6.494 3.969,6.494 0,0 5.051,-5.773 1.442,-7.216 -3.607,-1.443 -2.163,-6.494 3.248,-8.298 5.412,-1.804 5.412,-11.545 2.164,-12.988 -3.246,-1.443 -2.525,-10.102 1.083,-12.989 3.608,-2.887 4.33,-5.773 2.526,-7.577 -1.804,-1.803 -1.804,-5.41 3.247,-8.658 5.051,-3.247 1.804,-9.381 -1.083,-11.545 -2.886,-2.165 -0.721,-6.856 5.217,-12.989 5.938,-6.133 -1.609,-14.432 -4.134,-17.318zm-201.934 -304.585c10.056,0.089 22.684,-0.417 32.363,-0.642 15.514,-0.36 15.153,6.133 27.42,9.742 12.267,3.608 24.534,31.749 25.616,46.902 1.083,15.154 14.792,30.667 15.875,37.883 1.082,7.216 3.247,60.973 0.721,76.672 -2.525,15.7 -6.132,9.556 -11.475,28.6 -5.341,19.044 -26.407,42.652 -29.293,44.815 -2.887,2.165 -2.166,-11.184 -6.855,-15.513 -4.691,-4.33 -16.597,-7.937 -24.174,-15.514 -7.576,-7.577 -26.337,-13.349 -31.388,-12.267 -5.051,1.083 -2.526,9.021 -2.886,19.483 -0.361,10.462 9.741,3.607 22.151,6.493 12.408,2.887 17.174,10.825 16.814,21.648 -0.361,10.824 -3.247,23.452 -11.906,29.585 -8.658,6.133 -31.565,4.157 -31.565,4.157 0,0 -7.761,-3.796 -25.8,-1.631 -18.04,2.164 -19.844,-4.691 -22.009,-11.185 -2.164,-6.494 -7.937,-22.37 1.804,-33.553 9.742,-11.185 25.616,-10.464 32.11,-14.432 6.494,-3.968 0,-20.204 0,-20.204 -1.979,-6.428 -17.678,0.722 -25.616,3.608 -7.937,2.886 -27.059,24.173 -30.306,27.059 -3.247,2.886 -3.367,-3.848 -4.088,-11.425 -0.722,-7.576 -8.901,-21.768 -13.59,-31.509 -4.691,-9.741 -14.432,-38.243 -17.68,-46.181 -3.246,-7.937 0.722,-43.294 1.444,-53.397 0.721,-10.101 10.824,-40.047 20.565,-63.498 9.741,-23.451 41.851,-24.173 53.397,-26.338 11.545,-2.165 29.584,5.773 36.369,3.247 0.949,-0.352 1.585,-1.264 1.982,-2.605zm131.58 404.163c0,0 -0.342,-0.184 -0.88,-0.503 0.212,0.317 0.506,0.503 0.88,0.503zm-163.798 -147.562c0,0 30.307,-2.887 37.522,0 7.216,2.886 -9.561,18.58 -15.695,22.91 0,0 -5.592,-4.15 -13.529,-11.004 -7.937,-6.855 -12.988,-9.02 -8.298,-11.906zm-85.146 -125.194c0,0 -7.216,-15.154 -9.381,-22.008 -2.164,-6.855 0.74,-23.737 5.051,-18.761 9.381,10.823 4.33,40.769 4.33,40.769z"/>
   </g>
  </g>
  <path class="fil1 str2" d="M300 7c161.819,0 293,131.181 293,293 0,161.819 -131.181,293 -293,293 -161.819,0 -293,-131.181 -293,-293 0,-161.819 131.181,-293 293,-293z"/>
 </g>
</svg>
