<?xml version="1.0" encoding="UTF-8"?>
<!DOCTYPE svg PUBLIC "-//W3C//DTD SVG 1.1//EN" "http://www.w3.org/Graphics/SVG/1.1/DTD/svg11.dtd">
<!-- Creator: CorelDRAW Standard 2024 -->
<svg xmlns="http://www.w3.org/2000/svg" xml:space="preserve" width="600px" height="600px" version="1.1" style="shape-rendering:geometricPrecision; text-rendering:geometricPrecision; image-rendering:optimizeQuality; fill-rule:evenodd; clip-rule:evenodd"
viewBox="0 0 600 600"
 xmlns:xlink="http://www.w3.org/1999/xlink"
 xmlns:xodm="http://www.corel.com/coreldraw/odm/2003">
 <defs>
  <style type="text/css">
   <![CDATA[
    .fil0 {fill:#E9DBBE}
   ]]>
  </style>
 </defs>
 <g id="Camada_x0020_1">
  <metadata id="CorelCorpID_0Corel-Layer"/>
  <path class="fil0" d="M92.602 581.15c1.766,-0.123 11.455,-7.189 13.476,-8.619l40.608 -27.332c8.977,-5.956 17.641,-12.1 26.618,-18.251l80.931 -54.902c8.82,-5.937 16.803,-11.807 26.624,-18.232l27.524 -18.09c1.479,-0.075 104.618,70.322 108.12,72.725l80.91 54.942c3.593,2.451 25.069,17.679 27.319,17.81 0.876,-7.445 0.142,-276.23 0.142,-283.041l0 -248.045c0,-6.646 0.852,-30.705 -0.329,-35.374l-431.674 -0.104 -0.269 566.513zm345.761 -537.698c6.399,0 64.156,0 70.556,0 3.887,0 6.127,3.276 6.127,6.127 0,2.795 -2.214,6.128 -6.127,6.128l-70.556 0c-2.962,0 -6.261,-2.324 -6.12,-6.431 0.102,-3.016 2.712,-5.824 6.12,-5.824zm-21.754 0c6.4,0 1.968,0 8.368,0 3.887,0 6.127,3.276 6.127,6.127 0,2.795 -2.214,6.128 -6.127,6.128l-8.368 0c-2.962,0 -6.261,-2.324 -6.12,-6.431 0.102,-3.016 2.712,-5.824 6.12,-5.824zm-41.138 0c6.4,0 -0.033,0 6.366,0 3.888,0 6.128,3.276 6.128,6.127 0,2.795 -2.215,6.128 -6.128,6.128l-6.366 0c-2.962,0 -6.261,-2.324 -6.12,-6.431 0.102,-3.016 2.712,-5.824 6.12,-5.824zm-19.448 0c6.4,0 -1.274,0 5.126,0 3.888,0 6.128,3.276 6.128,6.127 0,2.795 -2.215,6.128 -6.128,6.128l-5.126 0c-2.962,0 -6.261,-2.324 -6.12,-6.431 0.102,-3.016 2.712,-5.824 6.12,-5.824zm-17.84 -0.021c3.396,0 6.148,2.752 6.148,6.148 0,3.396 -2.752,6.148 -6.148,6.148 -3.395,0 -6.148,-2.752 -6.148,-6.148 0,-3.396 2.753,-6.148 6.148,-6.148zm-105.711 0.021c6.4,0 3.973,0 10.373,0 3.888,0 6.128,3.276 6.128,6.127 0,2.795 -2.215,6.128 -6.128,6.128l-10.373 0c-2.962,0 -6.26,-2.324 -6.12,-6.431 0.103,-3.016 2.712,-5.824 6.12,-5.824zm-19.872 0c6.399,0 -1.274,0 5.126,0 3.887,0 6.127,3.276 6.127,6.127 0,2.795 -2.214,6.128 -6.127,6.128l-5.126 0c-2.963,0 -6.261,-2.324 -6.121,-6.431 0.103,-3.016 2.713,-5.824 6.121,-5.824zm-26.941 0c6.399,0 3.973,0 10.373,0 3.887,0 6.127,3.276 6.127,6.127 0,2.795 -2.215,6.128 -6.127,6.128l-10.373 0c-2.962,0 -6.261,-2.324 -6.121,-6.431 0.103,-3.016 2.713,-5.824 6.121,-5.824zm-30.772 0c6.4,0 11.079,0 17.479,0 3.888,0 6.128,3.276 6.128,6.127 0,2.795 -2.216,6.128 -6.128,6.128l-17.479 0c-2.962,0 -6.261,-2.324 -6.121,-6.431 0.103,-3.016 2.713,-5.824 6.121,-5.824zm-52.784 0c6.4,0 28.385,0 34.785,0 3.888,0 6.128,3.276 6.128,6.127 0,2.795 -2.215,6.128 -6.128,6.128l-34.785 0c-2.961,0 -6.26,-2.324 -6.12,-6.431 0.103,-3.016 2.712,-5.824 6.12,-5.824zm371.018 -21.616c6.4,0 29.044,0 35.444,0 3.888,0 6.128,3.277 6.128,6.128 0,2.795 -2.216,6.127 -6.128,6.127l-35.444 0c-2.962,0 -6.261,-2.323 -6.12,-6.43 0.102,-3.017 2.712,-5.825 6.12,-5.825zm-34.709 0c6.399,0 10.909,0 17.309,0 3.887,0 6.127,3.277 6.127,6.128 0,2.795 -2.215,6.127 -6.127,6.127l-17.309 0c-2.963,0 -6.261,-2.323 -6.121,-6.43 0.103,-3.017 2.713,-5.825 6.121,-5.825zm-23.958 0c6.399,0 4.192,0 10.592,0 3.888,0 6.128,3.277 6.128,6.128 0,2.795 -2.215,6.127 -6.128,6.127l-10.592 0c-2.963,0 -6.26,-2.323 -6.121,-6.43 0.103,-3.016 2.712,-5.825 6.121,-5.825zm-21.613 0c6.4,0 -0.635,0 5.765,0 3.888,0 5.487,3.277 5.487,6.128 0,2.795 -2.215,6.127 -6.128,6.127l-5.124 0c-2.962,0 -6.26,-2.323 -6.12,-6.43 0.102,-3.016 2.711,-5.825 6.12,-5.825zm-25.276 0c6.4,0 4.436,0 10.836,0 3.888,0 6.128,3.277 6.128,6.128 0,2.795 -2.216,6.127 -6.128,6.127l-10.836 0c-2.962,0 -6.26,-2.323 -6.121,-6.43 0.103,-3.016 2.712,-5.825 6.121,-5.825zm-95.435 -0.147c3.395,0 6.148,2.752 6.148,6.148 0,3.395 -2.753,6.148 -6.148,6.148 -3.396,0 -6.149,-2.753 -6.149,-6.148 0,-3.396 2.753,-6.148 6.149,-6.148zm-23.539 0.147c6.4,0 0.001,0 6.401,0 3.887,0 6.127,3.277 6.127,6.128 0,2.795 -2.214,6.127 -6.127,6.127l-6.401 0c-2.962,0 -6.261,-2.323 -6.121,-6.43 0.103,-3.017 2.713,-5.825 6.121,-5.825zm-19.767 0c6.4,0 0.002,0 6.401,0 3.888,0 6.128,3.277 6.128,6.128 0,2.795 -2.215,6.127 -6.128,6.127l-6.401 0c-2.962,0 -6.261,-2.323 -6.12,-6.43 0.102,-3.017 2.712,-5.825 6.12,-5.825zm-43.918 0c6.4,0 2.931,0 9.331,0 3.888,0 6.128,3.277 6.128,6.128 0,2.795 -2.216,6.127 -6.128,6.127l-9.331 0c-2.962,0 -6.261,-2.322 -6.12,-6.43 0.103,-3.017 2.712,-5.825 6.12,-5.825zm-83.21 0c6.4,0 64.071,0 70.47,0 3.888,0 6.128,3.277 6.128,6.128 0,2.795 -2.215,6.127 -6.128,6.127l-70.47 0c-2.961,0 -6.26,-2.322 -6.12,-6.43 0.103,-3.017 2.712,-5.825 6.12,-5.825zm96.276 145.328l-0.002 280.187c0,4.824 -1.517,4.323 7.914,4.294 25.011,-0.078 45.921,2.92 62.481,-23.678 7.011,-11.262 8.942,-23.03 11.446,-37.663 1.371,-8.012 0.563,-191.559 0.512,-221.324 -0.014,-8.73 1.978,-14.113 11.079,-14.113l29.111 0.002c8.549,0 11.314,5.493 11.314,13.507l-0.044 134.03c-0.02,21.958 4.382,44.405 10.772,61.73 11.656,31.604 35.995,62.835 68.618,75.722 8.779,3.468 17.117,6.969 26.818,8.72 4.463,0.805 29.202,5.263 31.957,2.669 1.188,-1.154 0.755,-2.857 0.726,-5.087 -0.028,-2.23 -0.016,-4.462 -0.016,-6.692 0,-9.847 0.826,-61.059 -0.67,-64.662 -2.54,-6.113 -8.964,-5.428 -18.645,-7.748 -6.115,-1.465 -13.634,-5.178 -17.566,-8.696 -4.957,-4.433 -7.867,-8.707 -11.197,-15.556 -6.935,-14.261 -8.83,-28.423 -8.83,-47.072l0.105 -114.015c0.039,-30.653 -3.176,-26.852 42.515,-26.85 3.535,0 5.002,0.739 3.182,-11.6 -4.665,-31.622 -25.482,-50.03 -60.192,-49.978 -21.819,0.033 -250.9,-0.377 -251.959,0.261 -3.203,1.931 0.874,24.66 1.687,27.946 2.358,9.541 5.052,14.547 10.395,21.074 17.343,21.186 38.489,2.374 38.489,24.592z"/>
 </g>
</svg>
