<?xml version="1.0" encoding="UTF-8"?>
<!DOCTYPE svg PUBLIC "-//W3C//DTD SVG 1.1//EN" "http://www.w3.org/Graphics/SVG/1.1/DTD/svg11.dtd">
<!-- Creator: CorelDRAW Standard 2024 -->
<svg xmlns="http://www.w3.org/2000/svg" xml:space="preserve" width="600px" height="600px" version="1.1" style="shape-rendering:geometricPrecision; text-rendering:geometricPrecision; image-rendering:optimizeQuality; fill-rule:evenodd; clip-rule:evenodd"
viewBox="0 0 600 600"
 xmlns:xlink="http://www.w3.org/1999/xlink"
 xmlns:xodm="http://www.corel.com/coreldraw/odm/2003">
 <defs>
  <style type="text/css">
   <![CDATA[
    .fil0 {fill:#E9DBBE}
   ]]>
  </style>
 </defs>
 <g id="Camada_x0020_1">
  <metadata id="CorelCorpID_0Corel-Layer"/>
  <path class="fil0" d="M53 580.69c3.411,0 4.246,0.043 7.383,-0.698 4.361,-1.03 1.423,0.698 5.617,0.698l9.344 -0.102c0.926,-3.637 1.954,-9.472 3.103,-12.345 12.194,-0.663 9.807,0.053 10.779,4.792 0.336,1.637 1.057,5.557 1.493,6.91 0.815,0.996 10.373,0.564 11.533,0.52 -0.189,-5.79 -11.052,-55.354 -13.041,-66.94 -13.513,-1.666 -10.902,1.286 -11.815,5.115 -0.587,2.465 -1.215,5.104 -1.784,7.642 -1.885,8.407 -6.563,31.23 -8.706,38.412 -0.376,1.258 -0.761,2.072 -1.069,3.2 -0.421,1.543 -0.329,2.832 -1.337,4.139 -0.327,-0.477 -0.293,-0.436 -0.618,-1.258 -0.204,-0.518 -0.124,-0.662 -0.382,-1.273 -4.537,-0.403 -8.356,4.021 -13.837,-2.899 -5.253,-6.633 -5.073,-32.527 -0.52,-38.708 5.141,-6.977 7.451,-3.393 14.474,-3.577l-0.061 -9.621c-8.152,-3.376 -20.792,-1.786 -25.97,8.625 -5.565,11.187 -7.345,45.463 5.104,54.179 2.761,1.933 5.976,3.189 10.31,3.189zm476 -0.163l9.007 -0.157c5.165,-10.439 -2.673,-12.576 10.995,-12.242l2 0.097 2.432 12.429 9.566 0.036c2.799,-0.003 2.628,0.081 1.152,-6.642 -1.965,-8.953 -2.983,-17.383 -5.584,-26.774 -1.531,-5.527 -2.351,-12.68 -3.344,-18.463l-2.003 -8.909c-0.21,-1.255 -0.558,-3.04 -0.899,-4.498 -0.595,-2.548 -0.513,-2.436 -8.322,-2.156l-2.758 0.198c-1.713,8.527 -4.639,22.621 -6.796,30.236l-6.946 29.958 -0.855 -2.252 -15.073 -0.165 -0.21 -57.743 -9.362 -0.232c-3.229,0 -2.676,0.217 -2.623,3.445l-0.008 61.611c0.294,2.876 1.346,2.127 4.617,2.064 8.347,-0.162 16.712,0.159 25.014,0.159zm17 -43.053l-2.672 21.528 5.839 -0.118 -3.167 -21.41zm-64.864 -23.867l-10.809 0.213 -0.042 65.929 25.795 -0.08 0.305 -7.73 -14.763 -0.062c-1.428,-2.568 -1.183,-52.264 -0.486,-58.27zm-20.066 0.08c-2.738,-0.224 -9.439,-0.566 -11.783,0.276 -0.545,13.205 -0.079,33.385 -0.042,47.773 0.013,4.871 -0.561,10.545 -6.211,10.094 -5.264,-0.42 -5.441,-5.54 -5.421,-10.587 0.026,-6.66 0.75,-46.685 -0.486,-47.7 -2.975,-0.934 -8.109,-0.405 -11.582,-0.221 -0.56,4.13 -0.166,35.921 -0.166,42.914 0,16.292 -0.402,25.472 17.618,25.583 18.065,0.112 18.158,-8.478 18.157,-25.083 0,-13.804 0.69,-29.474 -0.084,-43.049zm-59.697 66.382c1.241,-1.981 0.35,-18.556 0.453,-22.515 0.853,0.674 1.073,0.437 1.852,2.462 0.398,1.035 0.68,2.023 1,3.051l6.394 17.529 11.893 0.09c0.368,-2.952 -4.396,-13.306 -5.325,-16.094 -1.443,-4.326 -5.285,-12.382 -5.713,-15.856 0.662,-2.543 4.107,0.662 7.397,-11.199 2.108,-7.597 1.29,-22.224 -11.792,-23.753 -4.252,-0.497 -13.276,-1.116 -17.811,-0.306l-0.159 64.816c0.072,2.24 0.108,2.338 2.374,2.45 1.871,0.092 8.06,0.485 9.437,-0.675zm0.363 -38.567c4.964,-0.309 6.381,-4.541 6.465,-9.76 0.084,-5.162 -1.52,-9.698 -6.728,-9.613l0.263 19.373zm-31.365 39.1l11.533 0.074 0.212 -67.15 -11.774 -0.113 0.029 67.189zm-35.463 -63.364c0,18.23 -0.552,46.278 0.111,63.351l11.415 0.034c0.538,-2.981 0.22,-17.478 0.216,-22.387 -0.001,-1.18 -0.025,-2.36 -0.03,-3.535 -0.008,-1.868 -0.143,-2.71 0.528,-3.346 2.056,-1.948 20.005,3.712 20.05,-19.118 0.041,-20.973 -14.231,-18.989 -29.698,-18.989 -3.379,0 -2.592,0.713 -2.592,3.99zm11.742 7.999l0.025 16.371c11.496,2.577 11.313,-19.625 1.73,-19.648 -2.049,-0.005 -1.755,1.368 -1.755,3.277zm-60.081 -11.499c-2.315,1.025 -5.352,1.437 -8.067,4.99 -5.766,7.542 -5.139,26.028 -5.105,35.508 0.069,19.381 4.684,30.714 26.021,26.936 14.417,-2.553 13.514,-24.906 12.926,-40.44 -0.51,-13.468 -1.453,-23.381 -13.338,-26.967 -2.556,-0.771 -9.968,-1.119 -12.437,-0.027zm-1.541 26.499c0.002,7.337 -2.514,35.688 9.649,31.291 7.317,-2.645 5.874,-21.293 5.874,-30.291 0,-7.854 -0.449,-17.475 -7.153,-18.529 -7.199,-1.132 -8.37,11.506 -8.37,17.529zm-50.378 -26.845c-0.671,6.093 -0.013,51.233 -0.153,63.377 -0.038,3.219 -0.528,3.724 2.446,3.906 2.029,0.124 4.481,0.016 6.557,0.015 10.595,-0.008 14.158,0.647 19.478,-5.993 6.933,-8.655 7.588,-35.729 5.315,-44.311 -1.744,-6.584 -4.76,-12.392 -10.409,-15.034 -4.897,-2.291 -16.644,-2.747 -23.234,-1.96zm11.623 9.148c-0.835,5.742 -0.074,34.665 -0.175,44.733 -0.028,2.796 -0.243,4.433 3.009,3.535 2.101,-0.581 3.315,-1.679 4.343,-3.115 4.844,-6.762 4.938,-32.826 1.535,-39.492 -1.427,-2.795 -4.913,-5.942 -8.712,-5.661zm-31.939 57.546c0.666,-0.819 1.721,-8.186 -0.945,-8.712 -4.994,-0.984 -13.236,1.715 -13.877,-1.714l-0.11 -5.424c0.022,-10.825 0.494,-45.189 -0.105,-50.771l-11.98 -0.156 -0.097 65.433c0.236,2.379 1.377,1.876 3.739,1.848 3.882,-0.046 21.574,0.748 23.375,-0.504zm-66.834 0.604l8.906 -0.078 3.405 -12.109c1.977,-0.746 7.513,-0.779 9.371,0.055 2.966,2.157 -0.491,12.132 4.818,12.132 9.22,0 9.694,0.834 9.435,-2.353l-2.847 -13.692c-3.259,-15.327 -5.381,-28.979 -9.036,-44.448 -0.349,-1.479 -0.58,-3.22 -0.854,-4.641 -0.587,-3.038 -0.423,-2.308 -8.198,-2.308 -4.513,0 -3.172,2.193 -4.271,6.71l-12.391 53.55c-1.898,7.782 -1.843,7.182 1.662,7.182zm14.098 -21.083l5.857 0.052c0.468,-2.346 -1.348,-16.889 -2.955,-19.04 -1.168,1.593 -1.566,6.752 -1.972,9.107 -0.485,2.808 -1.613,6.29 -0.93,9.881zm-44.643 20.999c0.722,-3.671 0.099,-12.571 0.1,-16.871 0.001,-3.087 -0.98,-14.598 0.445,-16.572 1.251,1.91 7.784,20.199 9.624,24.963 0.937,2.427 2.21,6.524 3.425,8.481l10.322 0.062 0.185 -66.442 -11.29 -0.212 0.582 33.475c-1.455,-0.617 -6.033,-13.814 -6.791,-16.245 -0.984,-3.156 -2.114,-5.413 -3.085,-8.472 -3.041,-9.574 -1.883,-10.076 -14.792,-8.875 -0.719,4.156 -0.144,53.544 -0.281,63.382 -0.049,3.449 -1.776,4.127 11.556,3.326zm-30.531 -20.993c0.481,-2.551 -1.158,-9.904 -1.665,-14.46 -0.607,-5.462 -0.538,-3.579 -1.911,-4.143 -0.846,3.608 -1.19,8.415 -1.912,12.228 -1.321,6.969 -2.259,6.693 5.488,6.375z"/>
  <path class="fil0" d="M119.109 485.549c1.457,-0.101 9.444,-5.926 11.11,-7.106l33.478 -22.532c7.4,-4.91 14.543,-9.975 21.943,-15.046l66.72 -45.261c7.271,-4.895 13.852,-9.734 21.949,-15.03l22.691 -14.914c1.219,-0.062 86.246,57.973 89.134,59.955l66.702 45.294c2.962,2.02 20.667,14.575 22.522,14.682 0.722,-6.137 0.117,-227.724 0.117,-233.338l0 -204.489c0,-5.479 0.702,-25.314 -0.271,-29.163l-355.873 -0.085 -0.222 467.033zm285.046 -443.279c5.276,0 52.89,0 58.166,0 3.205,0 5.052,2.702 5.052,5.052 0,2.304 -1.826,5.052 -5.052,5.052l-58.166 0c-2.442,0 -5.161,-1.916 -5.046,-5.302 0.085,-2.487 2.236,-4.802 5.046,-4.802zm-17.934 0c5.276,0 1.622,0 6.898,0 3.205,0 5.052,2.702 5.052,5.052 0,2.304 -1.826,5.052 -5.052,5.052l-6.898 0c-2.442,0 -5.161,-1.916 -5.046,-5.302 0.085,-2.487 2.236,-4.802 5.046,-4.802zm-33.914 0c5.276,0 -0.028,0 5.248,0 3.205,0 5.052,2.702 5.052,5.052 0,2.304 -1.826,5.052 -5.052,5.052l-5.248 0c-2.442,0 -5.162,-1.916 -5.046,-5.302 0.085,-2.487 2.236,-4.802 5.046,-4.802zm-16.033 0c5.276,0 -1.05,0 4.226,0 3.205,0 5.052,2.702 5.052,5.052 0,2.304 -1.826,5.052 -5.052,5.052l-4.226 0c-2.442,0 -5.161,-1.916 -5.046,-5.302 0.085,-2.487 2.236,-4.802 5.046,-4.802zm-14.707 -0.017c2.799,0 5.069,2.27 5.069,5.069 0,2.799 -2.27,5.069 -5.069,5.069 -2.799,0 -5.069,-2.27 -5.069,-5.069 0,-2.799 2.27,-5.069 5.069,-5.069zm-87.148 0.017c5.276,0 3.275,0 8.551,0 3.205,0 5.051,2.702 5.051,5.052 0,2.304 -1.826,5.052 -5.051,5.052l-8.551 0c-2.442,0 -5.162,-1.916 -5.046,-5.302 0.084,-2.487 2.236,-4.802 5.046,-4.802zm-16.383 0c5.276,0 -1.05,0 4.226,0 3.205,0 5.051,2.702 5.051,5.052 0,2.304 -1.826,5.052 -5.051,5.052l-4.226 0c-2.442,0 -5.162,-1.916 -5.046,-5.302 0.084,-2.487 2.236,-4.802 5.046,-4.802zm-22.21 0c5.276,0 3.275,0 8.551,0 3.205,0 5.051,2.702 5.051,5.052 0,2.304 -1.826,5.052 -5.051,5.052l-8.551 0c-2.442,0 -5.162,-1.916 -5.046,-5.302 0.084,-2.487 2.236,-4.802 5.046,-4.802zm-25.369 0c5.276,0 9.134,0 14.41,0 3.205,0 5.051,2.702 5.051,5.052 0,2.304 -1.826,5.052 -5.051,5.052l-14.41 0c-2.442,0 -5.161,-1.916 -5.045,-5.302 0.084,-2.487 2.235,-4.802 5.045,-4.802zm-43.514 0c5.276,0 23.4,0 28.676,0 3.205,0 5.052,2.702 5.052,5.052 0,2.304 -1.826,5.052 -5.052,5.052l-28.676 0c-2.442,0 -5.162,-1.916 -5.046,-5.302 0.084,-2.487 2.236,-4.802 5.046,-4.802zm305.867 -17.819c5.276,0 23.944,0 29.22,0 3.204,0 5.051,2.701 5.051,5.051 0,2.304 -1.826,5.052 -5.051,5.052l-29.22 0c-2.442,0 -5.162,-1.915 -5.046,-5.302 0.084,-2.486 2.236,-4.801 5.046,-4.801zm-28.615 0c5.276,0 8.994,0 14.27,0 3.204,0 5.051,2.701 5.051,5.051 0,2.304 -1.826,5.052 -5.051,5.052l-14.27 0c-2.442,0 -5.161,-1.915 -5.046,-5.302 0.085,-2.486 2.236,-4.801 5.046,-4.801zm-19.751 0c5.276,0 3.457,0 8.733,0 3.204,0 5.051,2.701 5.051,5.051 0,2.304 -1.826,5.052 -5.051,5.052l-8.733 0c-2.442,0 -5.161,-1.915 -5.046,-5.302 0.085,-2.486 2.236,-4.801 5.046,-4.801zm-17.817 0c5.276,0 -0.524,0 4.752,0 3.205,0 4.524,2.701 4.524,5.051 0,2.304 -1.826,5.052 -5.052,5.052l-4.224 0c-2.442,0 -5.161,-1.915 -5.046,-5.302 0.084,-2.486 2.236,-4.801 5.046,-4.801zm-20.838 0c5.276,0 3.657,0 8.933,0 3.205,0 5.052,2.701 5.052,5.051 0,2.304 -1.826,5.052 -5.052,5.052l-8.933 0c-2.442,0 -5.161,-1.915 -5.046,-5.302 0.085,-2.486 2.236,-4.801 5.046,-4.801zm-78.677 -0.122c2.799,0 5.069,2.269 5.069,5.069 0,2.799 -2.27,5.068 -5.069,5.068 -2.799,0 -5.068,-2.269 -5.068,-5.068 0,-2.8 2.269,-5.069 5.068,-5.069zm-19.405 0.122c5.276,0 0.001,0 5.277,0 3.205,0 5.051,2.701 5.051,5.051 0,2.304 -1.826,5.052 -5.051,5.052l-5.277 0c-2.442,0 -5.162,-1.915 -5.046,-5.302 0.084,-2.486 2.236,-4.801 5.046,-4.801zm-16.296 0c5.276,0 0.001,0 5.277,0 3.205,0 5.052,2.701 5.052,5.051 0,2.304 -1.826,5.052 -5.052,5.052l-5.277 0c-2.442,0 -5.161,-1.915 -5.046,-5.302 0.085,-2.486 2.236,-4.801 5.046,-4.801zm-36.206 0c5.276,0 2.416,0 7.692,0 3.205,0 5.052,2.701 5.052,5.051 0,2.304 -1.826,5.052 -5.052,5.052l-7.692 0c-2.442,0 -5.161,-1.915 -5.046,-5.302 0.085,-2.486 2.236,-4.801 5.046,-4.801zm-68.598 0c5.276,0 52.82,0 58.096,0 3.204,0 5.051,2.701 5.051,5.051 0,2.304 -1.826,5.052 -5.051,5.052l-58.096 0c-2.442,0 -5.161,-1.915 -5.046,-5.302 0.085,-2.486 2.236,-4.801 5.046,-4.801zm79.37 119.808l-0.002 230.987c0,3.976 -1.25,3.564 6.525,3.539 20.619,-0.064 37.856,2.408 51.508,-19.52 5.781,-9.284 7.372,-18.986 9.437,-31.05 1.13,-6.604 0.464,-157.921 0.422,-182.459 -0.012,-7.197 1.63,-11.634 9.133,-11.634l24 0c7.047,0 9.326,4.529 9.326,11.136l-0.035 110.494c-0.017,18.103 3.612,36.608 8.879,50.891 9.61,26.054 29.675,51.801 56.569,62.426 7.238,2.858 14.112,5.744 22.109,7.188 3.68,0.663 24.075,4.338 26.346,2.2 0.979,-0.951 0.622,-2.355 0.598,-4.193 -0.023,-1.839 -0.013,-3.679 -0.013,-5.518 0,-8.117 0.681,-50.337 -0.552,-53.307 -2.094,-5.039 -7.391,-4.475 -15.371,-6.387 -5.041,-1.208 -11.24,-4.269 -14.482,-7.169 -4.086,-3.655 -6.485,-7.178 -9.231,-12.825 -5.717,-11.756 -7.279,-23.431 -7.279,-38.805l0.086 -93.995c0.033,-25.27 -2.618,-22.137 35.05,-22.136 2.914,0.001 4.123,0.61 2.623,-9.562 -3.846,-26.069 -21.007,-41.244 -49.622,-41.202 -17.987,0.027 -206.842,-0.311 -207.715,0.216 -2.64,1.591 0.72,20.329 1.39,23.038 1.945,7.866 4.165,11.993 8.57,17.374 14.298,17.465 31.731,1.957 31.731,20.273z"/>
 </g>
</svg>
