<?xml version="1.0" encoding="UTF-8"?>
<!DOCTYPE svg PUBLIC "-//W3C//DTD SVG 1.1//EN" "http://www.w3.org/Graphics/SVG/1.1/DTD/svg11.dtd">
<!-- Creator: CorelDRAW Standard 2024 -->
<svg xmlns="http://www.w3.org/2000/svg" xml:space="preserve" width="410px" height="425px" version="1.1" style="shape-rendering:geometricPrecision; text-rendering:geometricPrecision; image-rendering:optimizeQuality; fill-rule:evenodd; clip-rule:evenodd"
viewBox="0 0 410 425"
 xmlns:xlink="http://www.w3.org/1999/xlink"
 xmlns:xodm="http://www.corel.com/coreldraw/odm/2003">
 <defs>
  <style type="text/css">
   <![CDATA[
    .fil0 {fill:#E9DBBE}
   ]]>
  </style>
 </defs>
 <g id="Camada_x0020_1">
  <metadata id="CorelCorpID_0Corel-Layer"/>
  <g id="_2107777438464">
   <path class="fil0" d="M406.73 421.851c-2.621,0.868 -265.909,-0.173 -282.059,-0.228 -29.011,-0.099 -65.165,-0.711 -93.414,-0.036l29.766 -8.761c9.797,-2.763 20.147,-6.603 29.716,-10.249 20.391,-7.766 40.679,-17.294 59.775,-27.661 43.695,-23.724 84.242,-54.236 119.596,-89.627 49.102,-49.153 92.969,-113.875 117.257,-179.366 4.009,-10.808 12.086,-33.661 14.914,-44.921 0.635,-2.529 3.283,-12.74 4.136,-14.369 -0.789,2.093 0.039,126.868 0.052,140.588 0.015,15.753 -0.352,31.276 -0.214,47.019l0.463 141.057c-0.086,15.222 0.707,31.477 0.012,46.554zm-46.597 -263.569c-67.078,127.712 -188.376,224.779 -328.439,260.025 -2.964,0.746 -13.761,2.514 -14.965,4.691 0.984,2.487 9.124,1.439 11.783,1.465 4.12,0.04 8.251,0.026 12.374,0.034l148.48 0.266 42.137 0.737c3.945,-0.74 10.844,-0.463 14.073,-0.465l41.362 0.19c18.371,0.322 37.166,-0.693 55.506,0.175l17.523 -0.312c5.864,-1.239 47.374,1.528 49.271,-0.671 0.646,-1.697 0.789,-44.23 0.389,-47.993 -0.094,-11.493 0.022,-22.872 0.088,-34.36l-0.242 -86.966 0.128 -28.614 -0.217 -21.94c-0.093,-7.701 -0.47,-17.224 -0.032,-24.74 0.923,-15.817 0.017,-33.104 0.128,-49.147 0.069,-9.798 0.126,-96.062 -0.705,-98.049 -1.626,-0.346 -0.297,-0.46 -1.872,0.085 -0.662,1.166 -3.566,13.197 -4.185,15.581 -4.106,15.821 -8.871,31.621 -14.565,47.031 -7.903,21.384 -17.398,42.753 -28.02,62.977z"/>
   <path class="fil0" d="M373.449 298.567c0.918,-2.894 -0.305,-4.812 0.96,-6.572 1.741,-0.843 1.942,-0.094 3.746,-0.111 1.174,-0.011 2.646,-0.495 3.877,-0.796 2.651,-0.649 4.68,1.07 7.34,0.809l0.118 7.119c-3.097,-0.318 -4.534,-1.854 -7.795,-1.487 -2.43,0.274 -5.953,1.544 -8.246,1.038zm-106.574 106.005c0.716,-2.664 -0.607,-3.922 0.767,-5.808 1.354,-0.662 4.083,0.039 6.59,-0.531 2.994,-0.679 3.71,-0.429 6.53,0.497l1.738 6.17c-4.176,0.775 -4.593,-1.378 -7.572,-0.317 -2.39,0.851 -5.86,1.011 -8.053,-0.011zm122.217 -115.663c-2.721,0.121 -4.861,-1.363 -6.704,-0.981 -3.26,0.676 -3.293,1.604 -6.808,0.533 -2.333,-3.806 0.527,-4.931 0.235,-8.261 -0.388,-4.419 -1.256,-3.165 -0.335,-8.316 3.001,-0.451 3.743,-0.899 6.915,0.011 2.981,0.854 4.149,-0.339 6.962,-0.488 0.348,2.014 0.395,16.185 -0.265,17.502zm-23.881 4.433c1.994,-1.077 3.511,-0.998 5.529,-0.029 0.568,1.776 0.954,2.475 0.056,4.089l-5.585 -4.06zm-82.057 92.479c-0.78,3.444 -2.008,5.38 -2.594,9.594 -2.793,-0.241 -2.982,-1.268 -5.659,-0.494 -11.161,3.225 -5.579,-5.019 -5.841,-7.953 -0.398,-4.439 -1.332,-3.085 -0.35,-8.313 9.331,-1.411 8.663,0.638 14.444,7.166zm-35.5 14.074c4.255,-1.41 4.626,0.415 8.18,0.43 3.311,0.014 4.214,-2.104 8.134,-0.243 0.73,2.289 0.955,2.734 -0.226,5.017l-16.739 -0.292c-0.626,-1.786 -0.119,-3.325 0.651,-4.912zm-0.888 -3.225c-0.691,-1.789 0.167,-2.847 0.01,-4.76 -0.129,-1.595 -0.935,-3.366 -0.985,-4.582 -0.055,-1.35 0.788,-3.045 0.774,-4.956 -0.02,-2.586 -0.929,-2.869 0.767,-4.799 1.786,0.006 2.548,0.602 4.617,0.388 1.679,-0.174 3.02,-0.966 4.59,-0.75 1.517,0.21 2.916,0.765 4.595,0.807 1.989,0.05 2.407,-0.721 4.256,0.139 0.231,1.808 -0.306,2.976 -0.033,4.93 0.205,1.466 0.969,3.236 0.822,4.598 -0.148,1.368 -0.91,2.992 -0.945,4.584 -0.057,2.649 1.158,2.453 -0.966,4.507 -1.947,-0.041 -2.471,-0.552 -4.549,-0.199 -1.387,0.236 -2.921,0.967 -4.253,0.851 -1.372,-0.118 -2.668,-0.943 -4.584,-1.001 -1.438,-0.043 -2.435,0.355 -4.116,0.243zm106.718 -106.815c-0.597,-1.727 0.225,-2.857 0.072,-4.714 -0.132,-1.591 -0.941,-3.367 -0.995,-4.58 -0.062,-1.383 0.795,-3.103 0.784,-4.957 -0.016,-2.55 -0.928,-2.841 0.753,-4.794 1.797,0.01 2.539,0.602 4.619,0.379 1.657,-0.178 3.05,-0.974 4.589,-0.758 1.535,0.217 2.878,0.792 4.596,0.826 2.02,0.04 2.399,-0.754 4.268,0.126 0.275,1.572 -0.251,3.272 -0.089,4.93 0.146,1.501 0.988,3.479 0.875,4.603 -0.134,1.327 -0.91,3.001 -0.951,4.584 -0.068,2.634 1.148,2.466 -0.971,4.502 -1.894,-0.055 -2.526,-0.538 -4.564,-0.23 -1.666,0.251 -2.692,1.049 -4.23,0.814 -1.525,-0.232 -2.8,-0.876 -4.59,-0.936 -1.616,-0.055 -2.301,0.363 -4.166,0.205zm21.071 -21.682c-0.122,-1.615 0.331,-2.884 0.19,-4.593 -0.114,-1.377 -0.956,-3.882 -0.934,-4.588 0.03,-0.972 0.937,-2.782 0.977,-4.595 0.048,-2.122 -0.687,-2.244 -0.128,-4.354 2.071,-0.926 4.944,-0.062 7.743,-0.757 2.983,-0.74 3.941,0.679 7.009,0.665l0.004 18.206c-2.974,0.588 -4.279,1.216 -7.37,0.701 -2.39,-0.398 -6.111,0.124 -7.491,-0.685zm-106.763 106.765c-0.124,-1.6 0.309,-2.895 0.168,-4.589 -0.118,-1.407 -0.752,-3.462 -0.742,-4.58 0.011,-1.247 0.686,-3.287 0.773,-4.603 0.139,-2.128 -0.706,-2.138 -0.102,-4.356 2.351,-1.041 3.935,0.112 6.685,-0.416 2.844,-0.545 2.775,-1.128 5.73,0.184 -0.494,0.819 -2.791,4.761 -3.172,5.21 -1.196,1.417 -3.066,0.646 -3.607,3.617 -0.49,2.696 1.693,3.148 2.186,5.3 0.121,0.529 0.495,4.171 0.606,5.002 -1.414,-0.07 -2.96,-0.423 -4.222,-0.457 -2.16,-0.059 -2.285,0.869 -4.303,-0.312zm64.096 -74.639c-0.066,-0.641 0.043,-6.909 0.102,-7.622 1.805,-0.608 3.616,0.239 5.874,-0.153 2.839,-0.493 3.208,-1.807 6.015,0.003 -5.237,4.301 -4.552,4.199 -8.283,9.334l-3.708 -1.562zm-101.86 98.895c1.615,-0.073 3.419,-0.766 4.614,-0.78 1.234,-0.014 3.038,0.703 4.569,0.785 2.443,0.131 2.735,-0.793 5.045,0.395l-0.385 5.119c-1.743,0.671 -16.685,0.623 -18.665,-0.016l-0.079 -5.106c2.128,-1.112 2.537,-0.291 4.901,-0.397zm124.46 -131.331c-1.945,-4.12 0.29,-5.53 0.2,-8.512 -0.13,-4.327 -2.295,-3.197 -0.363,-8.627 4.663,-1.511 5.412,0.4 8.627,0.402 3.427,0.002 2.653,-1.955 8.086,-0.606 2.034,3.921 -0.105,5.273 -0.119,8.467 -0.016,3.58 1.865,4.33 0.37,8.699 -4.607,1.672 -5.202,-0.365 -8.69,-0.357 -3.447,0.008 -3.161,1.658 -8.111,0.534zm-21.292 21.377c-2.229,-4.331 0.23,-5.264 0.051,-8.686 -0.192,-3.655 -2.139,-4.533 -0.017,-8.598 5.255,-1.3 5.463,0.78 8.51,0.621 3.043,-0.159 4.446,-2.603 8.387,-0.223 1.509,5.048 -0.786,5.349 -0.65,8.204 0.179,3.752 2.031,3.115 0.611,8.191 -4.255,2.538 -5.516,-0.07 -8.711,-0.125 -3.144,-0.055 -3.153,2.079 -8.181,0.616zm-106.777 106.781c-2.24,-4.38 0.245,-5.26 0.055,-8.697 -0.205,-3.689 -2.155,-4.498 -0.015,-8.607 5.099,-1.256 4.916,0.49 8.513,0.425 3.35,-0.06 4.634,-2.278 8.377,-0.013 1.523,5.025 -0.756,5.228 -0.605,8.186 0.19,3.709 1.936,3.287 0.585,8.208 -4.312,2.541 -5.451,-0.048 -8.721,-0.127 -3.118,-0.074 -3.144,2.091 -8.189,0.625zm21.299 -21.389c-1.973,-4.179 0.304,-5.543 0.213,-8.513 -0.115,-3.723 -1.879,-3.982 -0.375,-8.624 5.429,-1.928 5.098,0.533 8.615,0.43 3.287,-0.098 4.061,-2.555 8.451,-0.319 1.417,4.423 -0.697,5.779 -0.471,8.502 0.298,3.569 1.858,4.007 0.368,8.347 -4.641,1.711 -5.212,-0.379 -8.688,-0.363 -3.469,0.017 -3.126,1.69 -8.113,0.54zm21.31 -21.418c-2.068,-4.399 0.101,-4.636 0.15,-8.314 0.053,-4.013 -1.737,-3.232 -0.401,-8.518 3.317,-1.795 4.659,-0.548 7.914,-0.026 2.731,0.439 4.169,-1.51 7.691,-0.562 2.509,7.34 2.047,3.593 1.259,8.045 -0.47,2.657 1.407,3.848 0.696,7.816 -4.591,4.435 -4.942,1.154 -8.918,1.02 -3.06,-0.102 -3.402,1.671 -8.391,0.539zm106.914 -106.656c-2.588,-4.224 0.454,-5.868 0.17,-8.782 -0.408,-4.171 -1.897,-2.924 -0.56,-8.157 2.836,-1.473 4.241,-0.869 7.189,-0.166 2.993,0.714 4.027,-0.79 6.656,-0.539l0.01 17.983c-2.366,-0.089 -4.677,-1.04 -6.631,-0.678 -3.528,0.653 -2.905,1.522 -6.834,0.339zm-171.137 153.695c4.423,-1.651 5.296,0.334 8.603,0.336 2.954,0.001 4.778,-2.184 8.716,-0.187l0.102 4.383c-1.94,0.562 -16.198,0.552 -17.916,-0.108 -0.535,-1.951 -0.076,-2.567 0.495,-4.424zm123.94 -101.572c-0.46,-0.09 -16.432,-5.377 -16.434,-5.379 4.009,-1.366 5.565,0.715 8.22,0.492 3.075,-0.258 4.689,-2.04 8.2,-0.153 0.533,2.065 0.831,3.11 0.014,5.04zm25.019 -51.269c-1.024,-2.134 -0.057,-2.446 -0.176,-4.686 -0.085,-1.593 -0.651,-3.18 -0.765,-4.59 -0.152,-1.897 0.725,-2.988 0.953,-4.602 0.403,-2.846 -1.377,-2.231 0.596,-4.827 2.007,-0.274 2.426,0.6 4.689,0.09 1.647,-0.371 2.921,-1.145 4.597,-0.877 1.548,0.249 2.99,0.929 4.601,0.915 1.689,-0.016 2.237,-0.683 4.022,-0.118 0.142,1.966 -0.413,3.047 -0.179,4.816 0.141,1.072 0.96,3.885 0.947,4.588 -0.023,1.126 -0.941,2.906 -1.014,4.605 -0.081,1.859 0.629,2.693 0.043,4.558 -1.635,0.463 -2.87,-0.023 -4.53,0.01 -1.732,0.033 -3.296,0.773 -4.603,0.753 -1.132,-0.017 -3.093,-0.628 -4.585,-0.722 -1.66,-0.106 -3.099,0.352 -4.596,0.087zm-21.44 21.286c-0.677,-1.895 0.25,-2.842 0.047,-4.753 -0.136,-1.285 -1.134,-3.521 -1.157,-4.605 -0.02,-0.962 0.827,-3.021 0.897,-4.59 0.12,-2.7 -0.854,-2.63 0.981,-4.914 1.945,-0.222 2.513,0.438 4.761,0.067 1.586,-0.261 2.911,-1.016 4.244,-0.758 1.556,0.301 2.743,0.903 4.595,0.941 2.087,0.042 2.083,-0.908 4.278,0.086 0.259,1.604 -0.231,2.898 -0.11,4.579 0.105,1.458 0.836,3.458 0.798,4.592 -0.044,1.303 -0.775,2.752 -0.821,4.595 -0.04,1.634 0.439,2.897 0.046,4.53 -1.786,0.609 -3.023,-0.092 -4.902,0.045 -1.685,0.124 -3.405,1.035 -4.611,0.998 -1.264,-0.04 -2.751,-0.901 -4.57,-1.012 -1.642,-0.1 -2.671,0.386 -4.476,0.199zm-21.305 21.394c-0.764,-1.863 0.082,-2.878 -0.104,-4.94 -0.135,-1.482 -0.976,-3.391 -0.967,-4.6 0.005,-0.942 0.889,-3.211 0.982,-4.591 0.16,-2.363 -0.928,-2.634 0.542,-4.496 1.595,-0.489 2.619,0.172 4.476,-0.026 1.519,-0.16 3.463,-1.015 4.59,-0.955 1.453,0.077 2.604,0.793 4.591,0.781 2.348,-0.013 2.441,-0.776 4.545,0.34 0.408,1.955 -0.465,2.428 -0.249,4.718 0.154,1.635 1.052,3.346 0.932,4.569 -0.139,1.419 -0.917,2.7 -0.976,4.611 -0.055,1.831 0.603,2.798 -0.08,4.541 -1.637,0.308 -2.923,-0.161 -4.533,-0.098 -1.654,0.065 -3.467,0.82 -4.595,0.822 -1.019,0.001 -3.123,-0.715 -4.589,-0.811 -1.68,-0.109 -2.893,0.381 -4.565,0.135zm-64.02 64.082c-1.015,-2.104 -0.079,-2.469 -0.194,-4.68 -0.092,-1.768 -0.726,-2.818 -0.909,-4.226 -0.186,-1.422 0.609,-3.127 0.815,-4.601 0.257,-1.84 -0.244,-2.626 -0.057,-4.425 1.005,-1.901 4.04,-0.773 6,-1.07 1.714,-0.261 2.776,-0.976 4.232,-0.616 1.627,0.403 2.754,1.061 4.604,1.043 1.672,-0.016 2.24,-0.658 4.01,-0.108 0.126,1.798 -0.342,2.955 -0.211,4.458 0.11,1.264 0.881,3.618 0.933,4.59 0.075,1.37 -0.795,3.08 -0.924,4.6 -0.467,5.507 2.812,4.834 -4.518,4.937 -1.772,0.025 -3.526,0.863 -4.954,0.724 -1.374,-0.135 -2.703,-0.522 -4.203,-0.663 -1.713,-0.159 -3.082,0.316 -4.624,0.037zm-21.438 21.286c-0.764,-1.98 0.26,-2.63 0.031,-4.747 -0.137,-1.261 -0.965,-3.366 -0.956,-4.606 0.009,-1.09 0.825,-3.081 0.943,-4.582 0.141,-1.783 -0.784,-3.434 0.283,-4.463 1.014,-0.979 2.96,-0.1 4.519,-0.289 1.255,-0.152 3.495,-1.001 4.597,-0.946 1.227,0.061 2.889,0.891 4.593,0.985 2.157,0.119 2.484,-0.814 4.617,0.134 0.267,1.659 -0.248,2.87 -0.066,4.579 0.137,1.293 0.759,3.402 0.755,4.592 -0.005,1.334 -0.688,3.215 -0.793,4.583 -0.13,1.698 0.463,2.793 0.035,4.538 -1.809,0.619 -3.024,-0.084 -4.907,0.051 -1.68,0.12 -3.403,1.026 -4.61,0.992 -1.264,-0.036 -2.746,-0.89 -4.57,-0.999 -1.65,-0.099 -2.665,0.38 -4.471,0.178zm-21.315 21.414c-0.852,-1.963 0.089,-2.678 -0.106,-4.954 -0.126,-1.47 -0.977,-3.426 -0.951,-4.6 0.032,-1.411 1.023,-3.071 1.173,-4.588 0.23,-2.339 -0.913,-2.498 0.354,-4.5 1.625,-0.631 2.739,-0.063 4.452,-0.206 1.558,-0.13 3.051,-0.925 4.592,-0.792 1.415,0.123 3.125,0.964 4.598,1.054 1.835,0.113 2.587,-0.732 4.434,-0.042 0.222,1.86 -0.318,3.009 -0.14,4.846 0.132,1.36 0.987,3.68 0.927,4.581 -0.081,1.221 -0.919,2.77 -0.975,4.599 -0.056,1.839 0.616,2.798 -0.071,4.542 -1.598,0.37 -2.812,-0.157 -4.533,-0.09 -1.645,0.064 -3.47,0.812 -4.595,0.811 -1.021,-0.001 -3.118,-0.707 -4.59,-0.8 -1.675,-0.106 -2.914,0.39 -4.569,0.139zm170.817 -170.887c-0.71,-1.861 0.168,-2.865 -0.046,-4.822 -0.143,-1.323 -0.923,-3.459 -0.926,-4.601 -0.003,-1.34 0.825,-3.036 0.866,-4.592 0.073,-2.819 -1.099,-2.605 1.114,-4.793 3.236,-0.096 2.662,0.748 6.694,-0.442 2.181,-0.645 4.244,0.255 6.603,0.709l0.042 18.28c-3.196,0.593 -4.348,1.38 -7.373,0.55 -3.187,-0.874 -4.304,0.071 -6.974,-0.289zm-106.769 106.768c-0.682,-1.799 0.075,-2.629 -0.014,-4.473 -0.085,-1.733 -0.899,-3.315 -0.987,-4.598 -0.084,-1.235 0.793,-3.061 0.936,-4.579 0.168,-1.774 -0.362,-2.537 -0.236,-4.158 2.062,-1.94 2.691,-0.566 5.532,-0.877 2.821,-0.309 2.733,-1.353 5.818,-0.585l1.275 7.177c-1.691,-0.237 -2.573,-1.546 -4.334,-0.8 -4.294,1.819 -3.228,7.04 0.762,7.458 1.983,0.207 3.06,-1.275 4.41,-2.541l1.732 7.723c-2.503,0.336 -5.139,1.361 -7.566,0.669 -3.557,-1.015 -4.406,-0.025 -7.328,-0.416zm-80.686 66.767c1.654,-0.101 3.33,-0.877 4.587,-0.82 1.211,0.053 3.269,0.65 4.589,0.755 2.302,0.182 2.528,-0.866 4.912,0.237l-0.609 5.198c-2.184,0.336 -16.209,0.332 -18.089,-0.2 -0.693,-6.886 0.283,-4.906 4.61,-5.17zm167.627 -174.164c-2.017,-3.974 0.409,-4.845 0.241,-8.075 -0.213,-4.068 -1.753,-3.145 -0.348,-8.12 3.702,-1.607 4.937,-0.166 8.185,0.224 2.678,0.321 4.246,-2.034 8.344,-0.322 0.955,4.044 -1.074,5.651 -0.583,8.222 0.6,3.135 2.053,3.892 0.377,7.736 -3.445,1.55 -4.888,0.201 -8.118,-0.309 -2.828,-0.447 -3.388,2.093 -8.098,0.644zm-21.502 21.401c-1.173,-2.827 0.047,-5.393 0.27,-8.275 0.215,-2.767 3.53,-6.21 5.325,-8.421 3.557,0.305 1.929,0.649 5.581,-0.216 1.888,-0.447 3.576,-0.294 5.327,0.533 1.43,4.576 -0.776,5.029 -0.436,8.103 0.469,4.237 1.378,3.188 0.306,8.026 -5.408,1.322 -4.54,-0.231 -8.745,-0.298 -3.024,-0.048 -3.049,1.151 -7.628,0.548zm-21.632 21.011c-0.76,-3.347 0.173,-3.107 2.515,-5.816 5.961,-6.893 8.519,-13.635 14.402,-10.357 0.696,3.762 -1.023,6.439 -0.603,8.461 0.783,3.755 1.995,3.919 0.121,7.9 -5.218,0.723 -4.692,-0.463 -8.368,-0.543 -3.05,-0.067 -4.248,2.559 -8.067,0.355zm-21.214 21.314c0.588,-1.905 13.455,-15.738 15.491,-16.948 3.586,2.506 0.526,5.547 0.682,8.766 0.203,4.235 1.747,2.953 0.297,8.361 -5.484,1.02 -5.325,-0.516 -8.752,-0.404 -1.807,0.059 -6.316,2.008 -7.718,0.225zm-63.929 64.453c-0.975,-2.339 -0.677,-3.662 -0.021,-6.145 0.853,-3.227 1.906,-3.191 4.55,-5.269 4.052,-3.185 7.019,-7.255 12.058,-5.196 0.244,1.952 0.571,2.052 0.207,4.081 -1.848,10.33 1.303,4.536 -0.414,12.274 -5.194,1.28 -3.956,0.088 -8.367,-0.321 -1.394,-0.129 -2.649,0.68 -4.231,0.894 -1.749,0.236 -2.115,-0.098 -3.782,-0.318zm-21.563 20.766c-0.839,-3.076 -0.049,-3.599 0.553,-6.417 0.322,-1.51 -0.653,-4.469 -0.866,-6.399l5.445 -3.673c3.555,0.469 2.215,1.514 6.064,0.289 2.37,-0.752 3.457,-0.94 5.656,0.263 0.723,3.914 -0.934,5.895 -0.683,8.101 0.453,3.99 1.929,3.137 0.569,7.847 -3.456,2.194 -5.052,0.688 -8.373,-0.132 -2.911,-0.718 -4.151,2.546 -8.365,0.121zm73.448 -63.787c-3.34,-0.54 -7.056,2.139 -9.527,-0.25 0.991,-1.687 15.286,-15.659 16.786,-16.204l0.614 1.7c-2.113,2.874 -3.865,3.806 -5.513,7.457 -1.081,2.395 -1.06,5.328 -2.36,7.297zm-14.663 12.812c0.034,3.117 2.785,4.444 0.211,8.739 -5.063,1.569 -4.436,-0.278 -8.21,-0.558 -2.658,-0.196 -3.628,1.738 -8.094,0.514l-0.203 -3.229c2.861,-2.387 13.834,-12.751 16.082,-13.514 3.416,1.076 0.19,5.903 0.214,8.048zm-79.7 72.779c-2.322,-3.814 0.536,-5.095 0.325,-8.065 -0.28,-3.943 -2.043,-3.332 -0.561,-8.176 4.153,-1.983 5.331,0.174 8.666,0.188 3.276,0.013 3.37,-1.764 7.707,-0.5 1.237,4.074 -0.924,5.751 -0.366,8.476 0.856,4.183 1.558,3.526 0.33,7.997 -4.436,0.843 -3.758,0.665 -8.042,-0.394 -1.997,-0.492 -4.304,1.133 -8.059,0.474zm191.844 -192.294c-0.999,-4.341 0.815,-5.275 0.589,-8.112 -0.274,-3.443 -2.002,-4.433 -0.147,-8.159 2.955,-0.783 3.39,-0.67 6.343,0.082 3.521,0.896 3.481,-0.487 6.024,-0.464 0.51,1.62 0.694,15.511 0.206,17.176 -3.031,0.041 -4,-1.486 -6.943,-0.626 -2.599,0.76 -3.591,1.089 -6.072,0.103zm-133.55 129.752c0.432,-1.156 0.77,-1.452 2.054,-1.97 0.57,1.682 -0.394,2.269 -2.054,1.97zm83.648 -85.637c0.519,-1.743 2.206,-3.744 3.686,-5.059l0.299 4.279c-1.747,1.436 -1.723,1.419 -3.985,0.78zm-103.167 106.451c-1.89,1.151 -2.519,0.026 -4.911,0.328 -1.95,0.246 -2.966,1.11 -4.564,0.644l9.568 -6.965c0.3,0.811 0.336,5.072 -0.093,5.993zm-51.914 47.079c3.042,0.187 3.25,-2.038 7.695,-0.77 0.841,1.517 0.996,1.925 0.7,3.575 -2.131,0.835 -13.839,0.225 -17.371,0.295l0.684 -3.566c4.891,-1.796 4.306,0.221 8.292,0.466zm180.029 -188.304c1.201,3.336 1.205,3.348 0.446,6.597 -0.578,2.47 0.227,5.053 -0.653,6.594l-9.616 0.755 9.823 -13.946zm29.596 -37.608c1.061,5.273 8.88,3.648 7.776,-1.383 -1.226,-5.594 -8.651,-2.957 -7.776,1.383zm-5.338 8.144c-0.08,-1.563 0.285,-2.953 0.181,-4.606 -0.444,-7.105 -2.76,-1.406 3.128,-13.312 7.541,-0.627 1.669,-2.023 10.457,-0.079l-0.181 18.128c-3.792,1.107 -12.757,0.296 -13.585,-0.131zm-174.612 192.525c-1.714,0.05 -2.475,-0.41 -4.582,-0.169 -8.649,0.988 -1.901,0.388 -8.472,-0.098 -2.209,-0.164 -2.315,0.787 -4.411,-0.293 1.531,-1.302 3.362,-2.294 5.107,-3.424 4.005,-2.592 1.939,-0.809 4.953,-1.483 3.696,-0.826 1.607,-4.693 8.456,-6.997 1.343,2.533 0.449,3.663 0.124,6.252 -0.395,3.15 0.99,3.995 -1.175,6.212zm-20.501 2.573c0.831,2.159 -0.156,2.514 0.08,4.65 0.137,1.236 0.76,3.062 0.914,4.254 0.185,1.425 -0.645,3.108 -0.862,4.58 -0.299,2.036 0.46,2.488 0.119,4.33 -0.903,1.733 -2.821,0.195 -5.541,0.646 -1.41,0.233 -2.883,1.002 -4.241,0.869 -1.324,-0.129 -3.196,-0.946 -4.598,-1.018 -1.891,-0.099 -2.112,0.715 -4.209,0.08 -0.27,-1.552 0.185,-2.902 0.062,-4.553 -0.115,-1.553 -0.503,-3.025 -0.653,-4.35 3.132,-1.948 6.53,-3.698 9.734,-5.567 2.552,-1.489 6.254,-4.488 9.195,-3.921zm191.849 -173.679c-2.204,0.795 -2.088,-0.316 -4.45,0.043 -1.079,0.164 -2.835,0.851 -3.896,0.932 -1.609,0.124 -2.586,-0.821 -7.756,-0.933l4.172 -6.271c5.319,3.53 10.704,-1.459 3.86,-6.814l3.286 -5.181c2.023,-0.107 3.8,-0.627 5.472,0.283 0.255,2.031 -0.743,2.318 -0.309,4.635 1.833,9.784 0.547,2.497 -0.097,8.864 -0.264,2.624 1.206,2.12 -0.282,4.442zm-0.169 -26.829c1.086,1.489 0.562,2.841 0.069,4.876l-3.005 0.458 2.936 -5.334zm-222.068 221.111c1.184,0.01 2.94,0.841 4.592,0.962 2.162,0.158 2.429,-0.677 4.356,-0.252 0.801,1.707 0.556,2.292 0.158,4.414l-18.258 -0.244c-0.49,-1.908 -0.611,-2.499 0.205,-4.171 2.037,-0.467 2.442,0.542 4.706,0.206 1.299,-0.192 2.96,-0.926 4.241,-0.915zm8.451 -2.88c-2.596,1.165 -4.093,0.841 -6.683,0.004 -4.292,-1.387 -3.635,1.346 -6.43,0.261l13.12 -6.551c0.732,3.088 1.011,3.038 -0.007,6.286zm-21.382 4.534l0.779 2.936c-1.563,1.1 -3.785,0.996 -5.888,0.813 -2.313,-0.201 -0.567,0.046 -1.735,-0.584l6.844 -3.165zm252.184 -255.501l-0.1 16.598c-1.636,0.098 -2.725,-0.673 -4.056,-0.767 -1.273,-0.089 -2.828,0.787 -4.367,0.779l8.523 -16.61zm-43.85 70.302c-52.577,78.065 -122.148,138.455 -205.988,180.378 -3.375,1.688 -18.003,7.644 -19.139,10.165 2.194,2.686 7.521,1.528 10.632,1.522 48.277,-0.101 97.648,0.475 145.651,0.092 1.808,-0.015 3.497,-0.003 5.304,0.012 9.434,0.073 1.581,-3.315 1.468,-11.856 -0.07,-5.359 1.928,-6.369 3.292,-10.592 -2.574,-3.704 -5.289,-4.867 -7.126,-9.567 -1.243,-3.181 -1.286,-6.384 -0.8,-9.509 0.601,-3.864 2.544,-7.104 5.544,-9.69 2.63,-2.267 7.543,-3.754 9.055,-5.563 -0.212,-2.006 -4.041,-9.884 -5.068,-12.7 -1.502,-4.124 -2.736,-8.417 -3.685,-12.735 -1.894,-8.612 -4.747,-18.123 1.809,-25.539 8.811,-9.968 26.976,-4.268 38.292,0.124 2.487,0.966 10.479,5.123 12.341,4.845 2.512,-2.726 1.908,-5.477 6.775,-9.122 13.673,-10.238 26.843,6.227 28.627,6.527 3.771,-0.702 4.766,-2.279 9.53,-2.091 4.249,0.168 5.443,1.2 9.136,2.773 1.907,-1.933 1.245,-2.86 1.195,-5.445 -0.487,-25.075 0.06,-53.421 -0.1,-78.836l0.109 -73.886c-0.009,-6.315 0.876,-8.546 -1.895,-9.057 -1.822,1.376 -8.256,16.264 -9.947,19.655 -3.39,6.798 -6.889,13.537 -10.568,20.17 -7.529,13.577 -15.704,26.948 -24.444,39.925z"/>
   <path class="fil0" d="M378.683 389.067c-2.14,0.417 -1.778,0.435 -2.22,-1.116l2.22 1.116zm-4.34 -12.517c-4.032,-6.813 -5.447,-20.757 -4.572,-28.116 1.064,-8.952 5.363,-21.533 11.655,-28.206 5.569,5.622 9.014,20.361 9.275,27.851 0.215,6.161 -2.775,22.809 -7.059,27.543 -0.483,-3.468 0.443,-7.141 -0.364,-11.635 -1.808,-10.071 -6.818,-18.726 -8.783,0.339 -0.256,2.49 0.048,11.473 -0.152,12.224zm4.352 5.659c-2.036,-4.404 -2.193,-19.645 -0.189,-24.003 3.284,5.748 3.414,18.176 0.189,24.003zm-13.357 11c-6.472,2.556 -17.962,4.102 -24.032,2.206 4.919,-3.275 19.248,-5.146 24.032,-2.206zm6.785 -5.907c-7.25,-2.169 -30.982,-22.443 -31.293,-29.874 6.875,2.097 13.394,6.228 18.722,11.369 3.599,3.474 11.881,13.929 12.571,18.505zm-36.172 8.871c3.264,5.034 21.301,1.584 23.223,1.965 -5.234,4.72 -21.83,7.449 -28.393,6.911 -7.792,-0.639 -21.468,-3.832 -27.692,-9.223 5.704,-5.341 19.984,-11.605 27.684,-11.519 5.101,0.057 8.631,-0.422 14.151,0.374 3.128,0.451 11.302,2.528 13.584,4.141 -1.76,0.358 -18.684,-0.149 -22.557,7.351zm27.381 -44.026c-2.129,-2.252 -4.98,-7.264 -7.276,-10.168 -4.091,-5.176 -4.355,-3.303 -4.566,-9.808 -0.132,-4.081 1.069,-16.733 3.586,-19.769 4.518,3.407 14.203,13.947 15.495,19.435 0.302,1.288 -2.181,7.858 -2.547,9.881 -0.41,2.268 -0.964,8.141 -1.481,9.53 -1.93,-2.624 -1.731,-11.889 -4.645,-12.975 -2.8,1.783 0.176,6.912 1.434,13.874zm-65.259 18.186c3.834,-3.305 15.846,-4.97 20.689,-5.144 7.053,-0.253 7.674,4.498 18.438,11.697 1.608,1.075 1.344,0.462 1.906,2.046 -2.983,-0.711 -12.296,-4.055 -14.672,-3.171l-0.247 1.583c2.735,2.428 7.553,1.728 10.421,3.677 -1.56,0.503 -6.667,0.722 -9.128,1.156 -2.931,0.515 -6.541,2.637 -9.237,1.446 -6.054,-2.673 -13.881,-8.239 -18.17,-13.29zm67.205 16.657c-15.384,-3.238 -34.45,-16.732 -44.694,-28.747 -5.503,-6.454 -10.395,-14.767 -13.524,-22.519 -2.076,-5.141 -5.816,-16.981 -5.921,-22.263 5.038,-0.611 16.711,3.975 21.824,6.225 16.427,7.229 30.054,20.284 38.744,35.859 2.241,4.019 8.942,17.65 8.774,21.658 -7.193,-6.717 -8.54,-13.663 -24.146,-20.765 -7.7,-3.505 -5.974,0.05 -12.497,-7.583 -2.182,-2.553 -8.647,-11.016 -11.2,-11.877 -3.012,1.555 0.71,4.224 2.445,6.216 1.974,2.266 3.968,4.515 5.935,6.789 9.475,10.951 3.799,4.97 9.349,13.335 9.538,14.375 19.454,17.997 24.911,23.672zm-71.294 -17.359c2.57,5.847 14.222,12.581 19.644,15.967 -1.949,1.881 -11.225,5.207 -14.67,10.561 3.171,4.066 13.473,7.803 18.384,9.45 18.063,6.059 39.836,-0.093 54.591,-11.781l-0.203 -1.667 2.298 0.23c-0.186,2.538 -0.907,6.012 1.639,7.333 2.765,-1.793 0.637,-3.229 1.722,-5.485 1.739,1.58 3.565,4.247 5.804,4.975l1.43 -1.737 -4.805 -4.934c2.875,-1.774 7.114,1.304 9.045,-1.72 -0.741,-2.708 -6.925,-1.091 -9.923,-1.714 7.13,-10.08 14.595,-24.416 14.371,-36.792 -0.11,-6.125 0.076,-11.983 -2.066,-18.388 -1.395,-4.174 -5.765,-15.862 -9.532,-17.689 -3.676,0.915 -6.971,9.422 -9.224,12.452 -2.52,-3.062 -11.32,-18.521 -18.772,-20.291 -2.345,1.88 -3.783,9.273 -4.2,12.447 -0.279,2.121 -0.788,4.414 -0.819,6.363 -0.03,1.82 0.335,4.847 -0.513,6.119 -7.946,-7.298 -15.088,-12.231 -24.827,-16.618 -5.348,-2.41 -19.257,-7.046 -24.598,-6.651 -1.971,0.976 0.708,11.162 1.214,13.277 0.955,3.993 2.733,9.207 4.302,13.064 5.946,14.603 8.489,15.097 15.817,25.883 -2.392,0.686 -22.241,1.302 -26.109,7.346z"/>
   <path class="fil0" d="M244.516 276.502c-3.596,-2.212 -9.248,-9.15 -10.901,-12.946 3.679,0.445 11.665,7.231 13.53,10.705l-2.629 2.241zm-13.473 10.869c-5.811,-4.953 -15.955,-33.565 -16.719,-41.659 6.059,-1.982 37.312,10.416 42.395,15.886 0.299,6.256 0.468,8.807 -4.812,13.8 -4.109,-4.18 -5.485,-7.245 -10.952,-11.118 -2.679,-1.898 -8.374,-5.327 -11.509,-5.695 -3.636,4.994 14.782,21.452 15.88,23.082 -3.613,4.004 -9.063,6.31 -14.283,5.704zm-19.415 -43.542c-1.445,6.013 7.51,27.757 10.46,34.264 3.833,8.456 7.46,17.72 21.029,9.012 1.648,-1.058 2.831,-2.101 4.363,-3.272 1.69,-1.292 2.983,-0.95 4.3,-2.627 1.107,-1.409 0.834,-2.142 2.804,-4.349 3.236,-3.628 5.607,-7.581 5.32,-12.563 -0.261,-4.55 -0.979,-5.332 -5.041,-7.92 -7.53,-4.797 -37.568,-17.214 -43.235,-12.545z"/>
   <path class="fil0" d="M241.874 245.469c0.143,-2.846 1.766,-10.303 3.611,-12.115 5.011,3.813 10.036,10.006 13.8,15.08 4.288,5.781 8.391,10.505 4.977,14.519 -0.914,-2.051 0.022,-3.757 -2.287,-6.527 -3.99,-4.787 -14.917,-8.003 -20.101,-10.957zm-3.188 1.609c1.569,1.335 12.447,5.541 15.735,7.377 11.357,6.342 3.688,10.145 7.081,13.818 3.904,-0.425 5.901,-5.121 7.651,-8.089 9.365,-0.943 4.5,-12.48 -2.766,-6.851 -2.213,-2.2 -5.396,-7.587 -7.812,-10.511 -3.031,-3.668 -6.584,-7.935 -10.268,-10.933 -4.946,-4.025 -5.972,-0.38 -7.299,4.127 -0.787,2.673 -2.367,8.449 -2.322,11.062z"/>
   <path class="fil0" d="M229.661 296.509c-7.258,-2.378 -22.079,-14.417 -26.66,-20.615 1.575,-1.789 9.635,-3.692 12.115,-3.575 2.083,3.811 3.763,8.846 6.082,13.18 5.613,10.493 7.48,7.324 11.423,9.238l-2.96 1.772zm-7.145 -0.065c-0.968,2.538 -2.654,5.146 1.126,7.248 3.228,1.796 5.623,-0.943 6.205,-4.137 3.849,-2.148 6.042,-2.977 8.226,-7.32 -3.327,-4.331 -7.049,4.813 -13.817,-7.095 -2.082,-3.662 -5.996,-14.115 -7.57,-16.068 -2.472,-0.006 -8.143,1.452 -10.693,2.204 -4.738,1.399 -8.597,2.295 -4.431,7.471 2.873,3.567 7.131,7.163 10.721,10.043 1.398,1.121 10.065,7.306 10.233,7.654z"/>
   <path class="fil0" d="M145.389 352.655c-2.245,4.669 5.195,9.079 8.03,3.569 2.453,-4.767 -5.112,-9.639 -8.03,-3.569z"/>
   <path class="fil0" d="M117.874 367.489c-2.283,4.947 5.685,9.098 8.199,3.229 1.967,-4.592 -5.445,-9.202 -8.199,-3.229z"/>
   <path class="fil0" d="M89.596 380.509c-2.174,6.067 6.392,8.662 8.1,2.929 1.588,-5.331 -6.192,-8.251 -8.1,-2.929z"/>
   <path class="fil0" d="M336.726 151.036c-3.135,5.559 4.758,9.073 7.508,4.359 2.849,-4.882 -4.77,-9.216 -7.508,-4.359z"/>
   <path class="fil0" d="M321.251 179.37c-1.82,5.506 6.25,8.007 8.227,2.539 1.809,-5.002 -6.257,-8.496 -8.227,-2.539z"/>
   <path class="fil0" d="M350.062 122.766c-2.991,5.645 4.964,9.166 7.506,4.338 2.693,-5.111 -4.991,-9.086 -7.506,-4.338z"/>
   <path class="fil0" d="M172.041 336.68c-1.24,6.979 6.965,6.702 8.159,2.212 1.466,-5.508 -7.118,-8.077 -8.159,-2.212z"/>
   <path class="fil0" d="M30.552 401.093c-2.048,4.682 5.412,8.756 8.068,2.885 1.882,-4.16 -5.396,-8.994 -8.068,-2.885z"/>
   <path class="fil0" d="M0.363 408.44c-2.108,5.406 5.553,8.273 7.879,2.946 1.907,-4.37 -5.543,-8.936 -7.879,-2.946z"/>
   <path class="fil0" d="M197.672 317.902c-2.679,5.814 5.864,8.532 7.862,2.973 1.54,-4.286 -5.459,-8.185 -7.862,-2.973z"/>
   <path class="fil0" d="M384.684 3.61c-2.707,5.832 5.913,8.492 7.867,2.969 1.528,-4.318 -5.463,-8.15 -7.867,-2.969z"/>
   <path class="fil0" d="M361.409 94.863c-1.628,6.026 6.173,7.518 7.867,2.559 1.739,-5.094 -6.27,-8.464 -7.867,-2.559z"/>
   <path class="fil0" d="M371.239 64.411c-2.483,5.846 5.384,8.923 7.716,3.35 1.977,-4.723 -5.736,-8.012 -7.716,-3.35z"/>
   <path class="fil0" d="M304.692 205.14c-2.168,6.068 6.004,8.125 7.891,2.954 1.719,-4.713 -6.039,-8.14 -7.891,-2.954z"/>
   <path class="fil0" d="M60.447 392.196c-1.485,5.953 6.897,7.423 8.073,1.848 1.068,-5.059 -6.707,-7.322 -8.073,-1.848z"/>
   <path class="fil0" d="M286.486 229.861c-2.819,6.122 4.993,8.592 7.328,4.014 2.516,-4.933 -5.206,-8.62 -7.328,-4.014z"/>
   <path class="fil0" d="M378.676 35.123c-1.328,6.031 6.845,6.979 8.079,1.852 1.209,-5.02 -6.795,-7.682 -8.079,-1.852z"/>
   <path class="fil0" d="M167.704 386.94c-1.891,4.447 5.154,7.914 7.245,2.857 1.951,-4.719 -5.139,-7.809 -7.245,-2.857z"/>
   <path class="fil0" d="M360.421 283.791c3.897,3.088 8.705,-3.235 4.286,-6.243 -3.723,-2.536 -8.448,2.945 -4.286,6.243z"/>
   <path class="fil0" d="M339.208 262.584c3.884,3.107 8.734,-3.204 4.289,-6.243 -3.672,-2.511 -8.427,2.934 -4.289,6.243z"/>
   <path class="fil0" d="M387.526 258.101c-1.814,-4.8 -8.428,-2.21 -7.165,2.294 1.373,4.9 9.045,2.682 7.165,-2.294z"/>
   <path class="fil0" d="M252.709 343.345c-1.881,5.001 4.41,7.671 6.898,2.984 2.152,-4.052 -5.129,-7.681 -6.898,-2.984z"/>
   <path class="fil0" d="M380.525 216.151c-1.127,5.087 6.742,6.11 7.42,1.111 0.574,-4.241 -6.19,-6.656 -7.42,-1.111z"/>
   <path class="fil0" d="M359.488 236.578c-1.904,5.099 4.473,7.551 6.885,2.986 2.148,-4.068 -5.135,-7.673 -6.885,-2.986z"/>
   <path class="fil0" d="M231.357 364.934c-1.935,5.699 5.601,7.132 7.07,2.255 1.206,-4.007 -5.458,-7.001 -7.07,-2.255z"/>
   <path class="fil0" d="M252.548 386.145c-1.93,5.655 5.621,7.118 7.058,2.257 1.198,-4.054 -5.431,-7.028 -7.058,-2.257z"/>
   <path class="fil0" d="M316.778 279.363c-2.141,4.911 4.65,7.375 6.774,2.991 1.939,-4.002 -4.55,-8.092 -6.774,-2.991z"/>
   <path class="fil0" d="M210.01 386.132c-2.166,4.914 4.656,7.392 6.772,2.99 1.916,-3.986 -4.529,-8.08 -6.772,-2.99z"/>
   <path class="fil0" d="M360.835 337.022c2.017,-1.371 1.796,-1.159 1.192,-3.442 -0.492,-1.856 -0.236,-2.164 -1.911,-2.826 -1.719,1.216 -1.665,0.814 -1.115,3.185 0.46,1.987 0.243,1.836 1.834,3.083z"/>
   <path class="fil0" d="M384.657 400.754c0.667,1.731 2.411,3.493 4.195,4.126l1.327 -1.649c-1.184,-1.628 -2.415,-3.112 -4.359,-3.951l-1.163 1.474z"/>
   <path class="fil0" d="M320.364 336.374c1.069,-1.473 1.506,-0.991 0.218,-2.801 -0.76,-1.071 -1.8,-1.947 -2.889,-2.571l-1.55 1.09c0.582,2.117 2.184,3.84 4.221,4.282z"/>
   <path class="fil0" d="M316.536 374.593c0.952,2.23 4.574,3.659 6.32,1.054 -1.394,-1.928 -4.638,-3.006 -6.32,-1.054z"/>
   <path class="fil0" d="M375.668 404.803c2.006,-1.455 2.109,-3.047 0.009,-4.487 -2.427,1.306 -2.353,3.101 -0.009,4.487z"/>
   <path class="fil0" d="M311.657 327.097c0.695,1.963 0.863,1.912 2.499,2.892 2.182,-1.758 1.414,-3.032 -1.047,-4.049l-1.452 1.157z"/>
   <path class="fil0" d="M314.078 373.539c-0.884,-2.459 -2.579,-2.53 -4.256,-0.368 1.481,1.725 3.09,2.721 4.256,0.368z"/>
   <path class="fil0" d="M358.757 328.17l0.884 -0.099c1.017,-1.595 0.589,-2.953 -0.916,-4.022 -2.241,1.03 -2.002,3.087 0.032,4.121z"/>
  </g>
 </g>
</svg>
