<?xml version="1.0" encoding="UTF-8"?>
<!DOCTYPE svg PUBLIC "-//W3C//DTD SVG 1.1//EN" "http://www.w3.org/Graphics/SVG/1.1/DTD/svg11.dtd">
<!-- Creator: CorelDRAW Standard 2024 -->
<svg xmlns="http://www.w3.org/2000/svg" xml:space="preserve" width="410px" height="425px" version="1.1" style="shape-rendering:geometricPrecision; text-rendering:geometricPrecision; image-rendering:optimizeQuality; fill-rule:evenodd; clip-rule:evenodd"
viewBox="0 0 410 425"
 xmlns:xlink="http://www.w3.org/1999/xlink"
 xmlns:xodm="http://www.corel.com/coreldraw/odm/2003">
 <defs>
  <style type="text/css">
   <![CDATA[
    .fil0 {fill:#E9DBBE}
   ]]>
  </style>
 </defs>
 <g id="Camada_x0020_1">
  <metadata id="CorelCorpID_0Corel-Layer"/>
  <g id="_2106904233728">
   <path class="fil0" d="M3.12 4.765c2.621,-0.868 265.909,0.173 282.059,0.228 29.011,0.099 65.165,0.711 93.414,0.036l-29.766 8.761c-9.797,2.763 -20.147,6.603 -29.716,10.248 -20.391,7.767 -40.679,17.295 -59.775,27.662 -43.695,23.723 -84.242,54.236 -119.596,89.627 -49.102,49.153 -92.969,113.875 -117.257,179.366 -4.009,10.807 -12.086,33.661 -14.914,44.921 -0.635,2.528 -3.283,12.74 -4.136,14.369 0.789,-2.094 -0.039,-126.868 -0.052,-140.589 -0.015,-15.752 0.352,-31.275 0.214,-47.018l-0.463 -141.057c0.086,-15.222 -0.707,-31.478 -0.012,-46.554zm46.597 263.569c67.078,-127.712 188.376,-224.779 328.439,-260.025 2.964,-0.746 13.761,-2.514 14.965,-4.691 -0.984,-2.487 -9.124,-1.439 -11.783,-1.465 -4.12,-0.04 -8.251,-0.026 -12.374,-0.035l-148.48 -0.265 -42.137 -0.737c-3.945,0.74 -10.844,0.463 -14.073,0.465l-41.362 -0.19c-18.371,-0.323 -37.166,0.692 -55.506,-0.176l-17.523 0.313c-5.864,1.239 -47.374,-1.528 -49.271,0.671 -0.646,1.696 -0.789,44.23 -0.389,47.993 0.094,11.492 -0.022,22.872 -0.088,34.36l0.242 86.965 -0.128 28.615 0.217 21.94c0.093,7.7 0.47,17.224 0.032,24.74 -0.923,15.817 -0.017,33.104 -0.128,49.147 -0.069,9.798 -0.126,96.062 0.705,98.048 1.626,0.347 0.297,0.46 1.872,-0.084 0.662,-1.167 3.566,-13.197 4.185,-15.581 4.106,-15.821 8.871,-31.621 14.565,-47.031 7.903,-21.385 17.398,-42.753 28.02,-62.977z"/>
   <path class="fil0" d="M36.401 128.049c-0.918,2.893 0.305,4.812 -0.96,6.572 -1.741,0.843 -1.942,0.093 -3.746,0.111 -1.174,0.011 -2.646,0.495 -3.877,0.796 -2.651,0.649 -4.68,-1.07 -7.34,-0.809l-0.118 -7.12c3.097,0.319 4.534,1.855 7.795,1.487 2.43,-0.273 5.953,-1.543 8.246,-1.037zm106.574 -106.005c-0.716,2.664 0.607,3.922 -0.767,5.808 -1.354,0.662 -4.083,-0.039 -6.59,0.531 -2.994,0.679 -3.71,0.429 -6.53,-0.497l-1.738 -6.17c4.176,-0.775 4.593,1.378 7.572,0.317 2.39,-0.851 5.86,-1.011 8.053,0.011zm-122.217 115.663c2.721,-0.121 4.861,1.363 6.704,0.981 3.26,-0.676 3.293,-1.604 6.808,-0.533 2.333,3.805 -0.527,4.93 -0.235,8.261 0.388,4.419 1.256,3.165 0.335,8.316 -3.001,0.451 -3.743,0.899 -6.915,-0.011 -2.981,-0.855 -4.149,0.338 -6.962,0.488 -0.348,-2.015 -0.395,-16.185 0.265,-17.502zm23.881 -4.433c-1.994,1.077 -3.511,0.997 -5.529,0.029 -0.568,-1.776 -0.954,-2.476 -0.056,-4.09l5.585 4.061zm82.057 -92.479c0.78,-3.444 2.008,-5.38 2.594,-9.594 2.793,0.241 2.982,1.268 5.659,0.493 11.161,-3.225 5.579,5.02 5.841,7.953 0.398,4.439 1.332,3.086 0.35,8.313 -9.331,1.412 -8.663,-0.637 -14.444,-7.165zm35.5 -14.074c-4.255,1.409 -4.626,-0.415 -8.18,-0.43 -3.311,-0.014 -4.214,2.104 -8.134,0.242 -0.73,-2.288 -0.955,-2.733 0.226,-5.016l16.739 0.292c0.626,1.785 0.119,3.325 -0.651,4.912zm0.888 3.225c0.691,1.788 -0.167,2.847 -0.01,4.76 0.129,1.595 0.935,3.366 0.985,4.582 0.055,1.35 -0.788,3.045 -0.774,4.956 0.02,2.586 0.929,2.868 -0.767,4.799 -1.786,-0.006 -2.548,-0.602 -4.617,-0.388 -1.679,0.174 -3.02,0.966 -4.59,0.749 -1.517,-0.209 -2.916,-0.764 -4.595,-0.806 -1.989,-0.051 -2.407,0.721 -4.256,-0.139 -0.231,-1.808 0.306,-2.976 0.033,-4.931 -0.205,-1.465 -0.969,-3.235 -0.822,-4.598 0.148,-1.367 0.91,-2.991 0.945,-4.584 0.057,-2.648 -1.158,-2.453 0.966,-4.506 1.947,0.041 2.471,0.552 4.549,0.198 1.387,-0.235 2.921,-0.966 4.253,-0.851 1.372,0.119 2.668,0.944 4.584,1.001 1.438,0.044 2.435,-0.354 4.116,-0.242zm-106.718 106.815c0.597,1.726 -0.225,2.857 -0.072,4.713 0.132,1.591 0.941,3.368 0.995,4.581 0.062,1.383 -0.795,3.102 -0.784,4.957 0.016,2.55 0.928,2.84 -0.753,4.794 -1.797,-0.01 -2.539,-0.602 -4.619,-0.379 -1.657,0.178 -3.05,0.974 -4.589,0.757 -1.535,-0.216 -2.878,-0.792 -4.596,-0.825 -2.02,-0.04 -2.399,0.753 -4.268,-0.127 -0.275,-1.572 0.251,-3.271 0.089,-4.929 -0.146,-1.501 -0.988,-3.479 -0.875,-4.603 0.134,-1.327 0.91,-3.001 0.951,-4.585 0.068,-2.633 -1.148,-2.465 0.971,-4.501 1.894,0.054 2.526,0.538 4.564,0.23 1.666,-0.251 2.692,-1.05 4.23,-0.815 1.525,0.233 2.8,0.877 4.59,0.937 1.616,0.054 2.301,-0.363 4.166,-0.205zm-21.071 21.682c0.122,1.615 -0.331,2.883 -0.19,4.592 0.114,1.378 0.956,3.883 0.934,4.589 -0.03,0.972 -0.937,2.781 -0.977,4.595 -0.048,2.121 0.687,2.244 0.128,4.354 -2.071,0.926 -4.944,0.062 -7.743,0.757 -2.983,0.74 -3.941,-0.679 -7.009,-0.665l-0.004 -18.206c2.974,-0.588 4.279,-1.216 7.37,-0.701 2.39,0.398 6.111,-0.124 7.491,0.685zm106.763 -106.765c0.124,1.6 -0.309,2.895 -0.168,4.589 0.118,1.407 0.752,3.461 0.742,4.58 -0.011,1.247 -0.686,3.287 -0.773,4.603 -0.139,2.128 0.706,2.137 0.102,4.356 -2.351,1.041 -3.935,-0.112 -6.685,0.415 -2.844,0.545 -2.775,1.128 -5.73,-0.183 0.494,-0.819 2.791,-4.761 3.172,-5.21 1.196,-1.417 3.066,-0.646 3.607,-3.617 0.49,-2.696 -1.693,-3.149 -2.186,-5.3 -0.121,-0.53 -0.495,-4.171 -0.606,-5.002 1.414,0.07 2.96,0.422 4.222,0.457 2.16,0.059 2.285,-0.87 4.303,0.312zm-64.096 74.639c0.066,0.641 -0.043,6.909 -0.102,7.622 -1.805,0.608 -3.616,-0.239 -5.874,0.152 -2.839,0.493 -3.208,1.807 -6.015,-0.003 5.237,-4.3 4.552,-4.198 8.283,-9.333l3.708 1.562zm101.86 -98.895c-1.615,0.072 -3.419,0.766 -4.614,0.78 -1.234,0.013 -3.038,-0.704 -4.569,-0.786 -2.443,-0.13 -2.735,0.793 -5.045,-0.395l0.385 -5.118c1.743,-0.671 16.685,-0.623 18.665,0.015l0.079 5.107c-2.128,1.112 -2.537,0.291 -4.901,0.397zm-124.46 131.331c1.945,4.12 -0.29,5.53 -0.2,8.511 0.13,4.327 2.295,3.198 0.363,8.628 -4.663,1.511 -5.412,-0.4 -8.627,-0.402 -3.427,-0.002 -2.653,1.955 -8.086,0.605 -2.034,-3.92 0.105,-5.272 0.119,-8.466 0.016,-3.58 -1.865,-4.33 -0.37,-8.699 4.607,-1.672 5.202,0.365 8.69,0.357 3.447,-0.009 3.161,-1.658 8.111,-0.534zm21.292 -21.378c2.229,4.332 -0.23,5.265 -0.051,8.687 0.192,3.655 2.139,4.533 0.017,8.598 -5.255,1.299 -5.463,-0.78 -8.51,-0.621 -3.043,0.159 -4.446,2.603 -8.387,0.223 -1.509,-5.048 0.786,-5.35 0.65,-8.204 -0.179,-3.752 -2.031,-3.116 -0.611,-8.191 4.255,-2.539 5.516,0.069 8.711,0.125 3.144,0.055 3.153,-2.079 8.181,-0.617zm106.777 -106.78c2.24,4.38 -0.245,5.26 -0.055,8.697 0.205,3.688 2.155,4.498 0.015,8.606 -5.099,1.257 -4.916,-0.49 -8.513,-0.424 -3.35,0.06 -4.634,2.278 -8.377,0.013 -1.523,-5.025 0.756,-5.228 0.605,-8.186 -0.19,-3.709 -1.936,-3.287 -0.585,-8.208 4.312,-2.541 5.451,0.048 8.721,0.127 3.118,0.074 3.144,-2.091 8.189,-0.625zm-21.299 21.388c1.973,4.18 -0.304,5.544 -0.213,8.514 0.115,3.723 1.879,3.982 0.375,8.624 -5.429,1.928 -5.098,-0.533 -8.615,-0.43 -3.287,0.098 -4.061,2.555 -8.451,0.319 -1.417,-4.423 0.697,-5.779 0.471,-8.503 -0.298,-3.568 -1.858,-4.007 -0.368,-8.347 4.641,-1.71 5.212,0.38 8.688,0.364 3.469,-0.017 3.126,-1.69 8.113,-0.541zm-21.31 21.419c2.068,4.399 -0.101,4.635 -0.15,8.314 -0.053,4.013 1.737,3.231 0.401,8.517 -3.317,1.796 -4.659,0.548 -7.914,0.026 -2.731,-0.438 -4.169,1.511 -7.691,0.563 -2.509,-7.34 -2.047,-3.593 -1.259,-8.045 0.47,-2.657 -1.407,-3.849 -0.696,-7.816 4.591,-4.435 4.942,-1.154 8.918,-1.02 3.06,0.102 3.402,-1.671 8.391,-0.539zm-106.914 106.655c2.588,4.225 -0.454,5.869 -0.17,8.783 0.408,4.171 1.897,2.924 0.56,8.157 -2.836,1.473 -4.241,0.869 -7.189,0.166 -2.993,-0.714 -4.027,0.79 -6.656,0.538l-0.01 -17.982c2.366,0.089 4.677,1.04 6.631,0.677 3.528,-0.652 2.905,-1.521 6.834,-0.339zm171.137 -153.694c-4.423,1.651 -5.296,-0.334 -8.603,-0.336 -2.954,-0.001 -4.778,2.184 -8.716,0.187l-0.102 -4.384c1.94,-0.561 16.198,-0.551 17.916,0.108 0.535,1.952 0.076,2.568 -0.495,4.425zm-123.94 101.572c0.46,0.09 16.432,5.377 16.434,5.379 -4.009,1.365 -5.565,-0.715 -8.22,-0.492 -3.075,0.258 -4.689,2.039 -8.2,0.153 -0.533,-2.066 -0.831,-3.11 -0.014,-5.04zm-25.019 51.269c1.024,2.134 0.057,2.446 0.176,4.686 0.085,1.592 0.651,3.18 0.765,4.589 0.152,1.898 -0.725,2.989 -0.953,4.602 -0.403,2.847 1.377,2.232 -0.596,4.828 -2.007,0.274 -2.426,-0.6 -4.689,-0.09 -1.647,0.371 -2.921,1.145 -4.597,0.877 -1.548,-0.249 -2.99,-0.93 -4.601,-0.915 -1.689,0.016 -2.237,0.683 -4.022,0.118 -0.142,-1.966 0.413,-3.047 0.179,-4.816 -0.141,-1.072 -0.96,-3.886 -0.947,-4.588 0.023,-1.126 0.941,-2.906 1.014,-4.605 0.081,-1.86 -0.629,-2.693 -0.043,-4.558 1.635,-0.463 2.87,0.023 4.53,-0.01 1.732,-0.033 3.296,-0.773 4.603,-0.753 1.132,0.017 3.093,0.627 4.585,0.722 1.66,0.106 3.099,-0.353 4.596,-0.087zm21.44 -21.286c0.677,1.895 -0.25,2.841 -0.047,4.753 0.136,1.285 1.134,3.52 1.157,4.605 0.02,0.962 -0.827,3.021 -0.897,4.59 -0.12,2.699 0.854,2.63 -0.981,4.913 -1.945,0.223 -2.513,-0.437 -4.761,-0.066 -1.586,0.261 -2.911,1.015 -4.244,0.758 -1.556,-0.301 -2.743,-0.903 -4.595,-0.941 -2.087,-0.042 -2.083,0.908 -4.278,-0.087 -0.259,-1.603 0.231,-2.898 0.11,-4.578 -0.105,-1.458 -0.836,-3.458 -0.798,-4.592 0.044,-1.303 0.775,-2.752 0.821,-4.595 0.04,-1.634 -0.439,-2.897 -0.046,-4.53 1.786,-0.609 3.023,0.092 4.902,-0.045 1.685,-0.124 3.405,-1.035 4.611,-0.998 1.264,0.04 2.751,0.901 4.57,1.012 1.642,0.099 2.671,-0.387 4.476,-0.199zm21.305 -21.394c0.764,1.863 -0.082,2.878 0.104,4.94 0.135,1.482 0.976,3.391 0.967,4.6 -0.005,0.941 -0.889,3.211 -0.982,4.59 -0.16,2.363 0.928,2.634 -0.542,4.497 -1.595,0.488 -2.619,-0.172 -4.476,0.025 -1.519,0.161 -3.463,1.015 -4.59,0.956 -1.453,-0.077 -2.604,-0.793 -4.591,-0.781 -2.348,0.013 -2.441,0.776 -4.545,-0.341 -0.408,-1.954 0.465,-2.427 0.249,-4.718 -0.154,-1.634 -1.052,-3.345 -0.932,-4.568 0.139,-1.419 0.917,-2.701 0.976,-4.612 0.055,-1.83 -0.603,-2.797 0.08,-4.54 1.637,-0.308 2.923,0.161 4.533,0.098 1.654,-0.065 3.467,-0.82 4.595,-0.822 1.019,-0.002 3.123,0.715 4.589,0.81 1.68,0.11 2.893,-0.38 4.565,-0.134zm64.02 -64.082c1.015,2.104 0.079,2.469 0.194,4.679 0.092,1.768 0.726,2.818 0.909,4.227 0.186,1.421 -0.609,3.127 -0.815,4.601 -0.257,1.84 0.244,2.625 0.057,4.425 -1.005,1.901 -4.04,0.773 -6,1.07 -1.714,0.26 -2.776,0.976 -4.232,0.615 -1.627,-0.402 -2.754,-1.06 -4.604,-1.042 -1.672,0.016 -2.24,0.657 -4.01,0.107 -0.126,-1.798 0.342,-2.954 0.211,-4.457 -0.11,-1.264 -0.881,-3.618 -0.933,-4.59 -0.075,-1.37 0.795,-3.08 0.924,-4.6 0.467,-5.507 -2.812,-4.834 4.518,-4.937 1.772,-0.026 3.526,-0.863 4.954,-0.724 1.374,0.134 2.703,0.522 4.203,0.662 1.713,0.16 3.082,-0.316 4.624,-0.036zm21.438 -21.286c0.764,1.979 -0.26,2.63 -0.031,4.747 0.137,1.261 0.965,3.365 0.956,4.606 -0.009,1.09 -0.825,3.081 -0.943,4.582 -0.141,1.782 0.784,3.434 -0.283,4.463 -1.014,0.979 -2.96,0.1 -4.519,0.289 -1.255,0.152 -3.495,1.001 -4.597,0.946 -1.227,-0.062 -2.889,-0.891 -4.593,-0.985 -2.157,-0.119 -2.484,0.814 -4.617,-0.134 -0.267,-1.66 0.248,-2.87 0.066,-4.579 -0.137,-1.293 -0.759,-3.403 -0.755,-4.593 0.005,-1.334 0.688,-3.214 0.793,-4.582 0.13,-1.698 -0.463,-2.794 -0.035,-4.538 1.809,-0.619 3.024,0.083 4.907,-0.051 1.68,-0.12 3.403,-1.026 4.61,-0.993 1.264,0.037 2.746,0.891 4.57,1 1.65,0.098 2.665,-0.381 4.471,-0.178zm21.315 -21.415c0.852,1.963 -0.089,2.679 0.106,4.955 0.126,1.47 0.977,3.425 0.951,4.599 -0.032,1.412 -1.023,3.072 -1.173,4.589 -0.23,2.338 0.913,2.498 -0.354,4.5 -1.625,0.631 -2.739,0.063 -4.452,0.206 -1.558,0.13 -3.051,0.925 -4.592,0.792 -1.415,-0.123 -3.125,-0.964 -4.598,-1.054 -1.835,-0.113 -2.587,0.731 -4.434,0.042 -0.222,-1.861 0.318,-3.01 0.14,-4.846 -0.132,-1.36 -0.987,-3.681 -0.927,-4.581 0.081,-1.221 0.919,-2.771 0.975,-4.599 0.056,-1.839 -0.616,-2.798 0.071,-4.542 1.598,-0.37 2.812,0.157 4.533,0.09 1.645,-0.064 3.47,-0.813 4.595,-0.811 1.021,0.001 3.118,0.707 4.59,0.8 1.675,0.105 2.914,-0.39 4.569,-0.14zm-170.817 170.888c0.71,1.861 -0.168,2.865 0.046,4.822 0.143,1.322 0.923,3.459 0.926,4.601 0.003,1.34 -0.825,3.036 -0.866,4.592 -0.073,2.818 1.099,2.605 -1.114,4.793 -3.236,0.096 -2.662,-0.749 -6.694,0.442 -2.181,0.645 -4.244,-0.255 -6.603,-0.709l-0.042 -18.28c3.196,-0.593 4.348,-1.38 7.373,-0.551 3.187,0.875 4.304,-0.071 6.974,0.29zm106.769 -106.768c0.682,1.799 -0.075,2.629 0.014,4.473 0.085,1.733 0.899,3.315 0.987,4.598 0.084,1.235 -0.793,3.061 -0.936,4.579 -0.168,1.774 0.362,2.537 0.236,4.158 -2.062,1.94 -2.691,0.565 -5.532,0.877 -2.821,0.309 -2.733,1.353 -5.818,0.585l-1.275 -7.177c1.691,0.237 2.573,1.546 4.334,0.8 4.294,-1.819 3.228,-7.041 -0.762,-7.458 -1.983,-0.207 -3.06,1.275 -4.41,2.541l-1.732 -7.723c2.503,-0.336 5.139,-1.361 7.566,-0.669 3.557,1.014 4.406,0.025 7.328,0.416zm80.686 -66.768c-1.654,0.102 -3.33,0.877 -4.587,0.821 -1.211,-0.054 -3.269,-0.651 -4.589,-0.755 -2.302,-0.183 -2.528,0.866 -4.912,-0.238l0.609 -5.197c2.184,-0.337 16.209,-0.332 18.089,0.2 0.693,6.885 -0.283,4.905 -4.61,5.169zm-167.627 174.165c2.017,3.973 -0.409,4.845 -0.241,8.075 0.213,4.068 1.753,3.145 0.348,8.119 -3.702,1.607 -4.937,0.167 -8.185,-0.223 -2.678,-0.322 -4.246,2.033 -8.344,0.322 -0.955,-4.044 1.074,-5.651 0.583,-8.222 -0.6,-3.135 -2.053,-3.892 -0.377,-7.736 3.445,-1.551 4.888,-0.201 8.118,0.309 2.828,0.446 3.388,-2.094 8.098,-0.644zm21.502 -21.401c1.173,2.827 -0.047,5.393 -0.27,8.274 -0.215,2.768 -3.53,6.211 -5.325,8.422 -3.557,-0.306 -1.929,-0.649 -5.581,0.215 -1.888,0.447 -3.576,0.294 -5.327,-0.532 -1.43,-4.576 0.776,-5.03 0.436,-8.103 -0.469,-4.238 -1.378,-3.189 -0.306,-8.027 5.408,-1.321 4.54,0.232 8.745,0.299 3.024,0.048 3.049,-1.151 7.628,-0.548zm21.632 -21.011c0.76,3.347 -0.173,3.107 -2.515,5.816 -5.961,6.893 -8.519,13.635 -14.402,10.356 -0.696,-3.762 1.023,-6.439 0.603,-8.46 -0.783,-3.755 -1.995,-3.919 -0.121,-7.9 5.218,-0.723 4.692,0.463 8.368,0.543 3.05,0.067 4.248,-2.56 8.067,-0.355zm21.214 -21.314c-0.588,1.904 -13.455,15.737 -15.491,16.948 -3.586,-2.506 -0.526,-5.547 -0.682,-8.767 -0.203,-4.235 -1.747,-2.952 -0.297,-8.361 5.484,-1.02 5.325,0.517 8.752,0.405 1.807,-0.059 6.316,-2.008 7.718,-0.225zm63.929 -64.454c0.975,2.34 0.677,3.662 0.021,6.146 -0.853,3.227 -1.906,3.19 -4.55,5.269 -4.052,3.184 -7.019,7.255 -12.058,5.195 -0.244,-1.951 -0.571,-2.051 -0.207,-4.08 1.848,-10.33 -1.303,-4.536 0.414,-12.274 5.194,-1.28 3.956,-0.088 8.367,0.321 1.394,0.129 2.649,-0.681 4.231,-0.894 1.749,-0.236 2.115,0.098 3.782,0.317zm21.563 -20.765c0.839,3.075 0.049,3.599 -0.553,6.417 -0.322,1.51 0.653,4.469 0.866,6.398l-5.445 3.674c-3.555,-0.469 -2.215,-1.514 -6.064,-0.29 -2.37,0.753 -3.457,0.941 -5.656,-0.262 -0.723,-3.915 0.934,-5.895 0.683,-8.102 -0.453,-3.989 -1.929,-3.137 -0.569,-7.846 3.456,-2.194 5.052,-0.688 8.373,0.131 2.911,0.718 4.151,-2.545 8.365,-0.12zm-73.448 63.787c3.34,0.54 7.056,-2.139 9.527,0.249 -0.991,1.688 -15.286,15.66 -16.786,16.205l-0.614 -1.7c2.113,-2.874 3.865,-3.806 5.513,-7.458 1.081,-2.394 1.06,-5.328 2.36,-7.296zm14.663 -12.812c-0.034,-3.117 -2.785,-4.444 -0.211,-8.739 5.063,-1.569 4.436,0.278 8.21,0.558 2.658,0.196 3.628,-1.738 8.094,-0.514l0.203 3.229c-2.861,2.387 -13.834,12.751 -16.082,13.514 -3.416,-1.076 -0.19,-5.903 -0.214,-8.048zm79.7 -72.779c2.322,3.813 -0.536,5.095 -0.325,8.065 0.28,3.943 2.043,3.332 0.561,8.176 -4.153,1.982 -5.331,-0.174 -8.666,-0.188 -3.276,-0.013 -3.37,1.764 -7.707,0.5 -1.237,-4.075 0.924,-5.751 0.366,-8.477 -0.856,-4.182 -1.558,-3.526 -0.33,-7.996 4.436,-0.843 3.758,-0.665 8.042,0.394 1.997,0.492 4.304,-1.134 8.059,-0.474zm-191.844 192.294c0.999,4.34 -0.815,5.275 -0.589,8.112 0.274,3.443 2.002,4.433 0.147,8.159 -2.955,0.783 -3.39,0.67 -6.343,-0.082 -3.521,-0.896 -3.481,0.487 -6.024,0.464 -0.51,-1.62 -0.694,-15.511 -0.206,-17.176 3.031,-0.041 4,1.486 6.943,0.626 2.599,-0.761 3.591,-1.089 6.072,-0.103zm133.55 -129.753c-0.432,1.157 -0.77,1.453 -2.054,1.971 -0.57,-1.682 0.394,-2.269 2.054,-1.971zm-83.648 85.638c-0.519,1.743 -2.206,3.743 -3.686,5.059l-0.299 -4.279c1.747,-1.436 1.723,-1.42 3.985,-0.78zm103.167 -106.451c1.89,-1.152 2.519,-0.027 4.911,-0.328 1.95,-0.247 2.966,-1.11 4.564,-0.644l-9.568 6.965c-0.3,-0.812 -0.336,-5.072 0.093,-5.993zm51.914 -47.079c-3.042,-0.188 -3.25,2.037 -7.695,0.77 -0.841,-1.518 -0.996,-1.925 -0.7,-3.576 2.131,-0.835 13.839,-0.224 17.371,-0.294l-0.684 3.566c-4.891,1.796 -4.306,-0.221 -8.292,-0.466zm-180.029 188.304c-1.201,-3.336 -1.205,-3.348 -0.446,-6.598 0.578,-2.469 -0.227,-5.052 0.653,-6.594l9.616 -0.754 -9.823 13.946zm-29.596 37.608c-1.061,-5.273 -8.88,-3.648 -7.776,1.383 1.226,5.593 8.651,2.957 7.776,-1.383zm5.338 -8.144c0.08,1.562 -0.285,2.953 -0.181,4.606 0.444,7.104 2.76,1.406 -3.128,13.312 -7.541,0.627 -1.669,2.022 -10.457,0.079l0.181 -18.128c3.792,-1.107 12.757,-0.296 13.585,0.131zm174.612 -192.525c1.714,-0.05 2.475,0.409 4.582,0.169 8.649,-0.988 1.901,-0.388 8.472,0.098 2.209,0.164 2.315,-0.788 4.411,0.292 -1.531,1.303 -3.362,2.295 -5.107,3.425 -4.005,2.591 -1.939,0.809 -4.953,1.482 -3.696,0.827 -1.607,4.694 -8.456,6.998 -1.343,-2.534 -0.449,-3.663 -0.124,-6.252 0.395,-3.15 -0.99,-3.995 1.175,-6.212zm20.501 -2.573c-0.831,-2.159 0.156,-2.514 -0.08,-4.65 -0.137,-1.236 -0.76,-3.062 -0.914,-4.254 -0.185,-1.426 0.645,-3.108 0.862,-4.58 0.299,-2.037 -0.46,-2.488 -0.119,-4.33 0.903,-1.734 2.821,-0.195 5.541,-0.646 1.41,-0.234 2.883,-1.002 4.241,-0.869 1.324,0.129 3.196,0.946 4.598,1.018 1.891,0.099 2.112,-0.715 4.209,-0.08 0.27,1.552 -0.185,2.902 -0.062,4.553 0.115,1.552 0.503,3.025 0.653,4.35 -3.132,1.947 -6.53,3.698 -9.734,5.566 -2.552,1.49 -6.254,4.489 -9.195,3.922zm-191.849 173.679c2.204,-0.795 2.088,0.316 4.45,-0.043 1.079,-0.164 2.835,-0.852 3.896,-0.932 1.609,-0.124 2.586,0.821 7.756,0.933l-4.172 6.271c-5.319,-3.53 -10.704,1.459 -3.86,6.814l-3.286 5.181c-2.023,0.107 -3.8,0.627 -5.472,-0.284 -0.255,-2.03 0.743,-2.317 0.309,-4.634 -1.833,-9.784 -0.547,-2.497 0.097,-8.864 0.264,-2.624 -1.206,-2.12 0.282,-4.442zm0.169 26.828c-1.086,-1.489 -0.562,-2.84 -0.069,-4.875l3.005 -0.459 -2.936 5.334zm222.068 -221.11c-1.184,-0.01 -2.94,-0.842 -4.592,-0.962 -2.162,-0.158 -2.429,0.677 -4.356,0.252 -0.801,-1.707 -0.556,-2.292 -0.158,-4.414l18.258 0.244c0.49,1.908 0.611,2.499 -0.205,4.171 -2.037,0.466 -2.442,-0.542 -4.706,-0.206 -1.299,0.192 -2.96,0.926 -4.241,0.915zm-8.451 2.88c2.596,-1.166 4.093,-0.841 6.683,-0.004 4.292,1.387 3.635,-1.346 6.43,-0.262l-13.12 6.551c-0.732,-3.087 -1.011,-3.037 0.007,-6.285zm21.382 -4.535l-0.779 -2.935c1.563,-1.101 3.785,-0.996 5.888,-0.814 2.313,0.201 0.567,-0.045 1.735,0.585l-6.844 3.164zm-252.184 255.501l0.1 -16.597c1.636,-0.098 2.725,0.673 4.056,0.767 1.273,0.089 2.828,-0.787 4.367,-0.78l-8.523 16.61zm43.85 -70.301c52.577,-78.065 122.148,-138.455 205.988,-180.378 3.375,-1.688 18.003,-7.644 19.139,-10.165 -2.194,-2.686 -7.521,-1.528 -10.632,-1.522 -48.277,0.101 -97.648,-0.475 -145.651,-0.092 -1.808,0.015 -3.497,0.002 -5.304,-0.012 -9.434,-0.073 -1.581,3.314 -1.468,11.856 0.07,5.359 -1.928,6.369 -3.292,10.592 2.574,3.704 5.289,4.867 7.126,9.567 1.243,3.18 1.286,6.383 0.8,9.509 -0.601,3.864 -2.544,7.104 -5.544,9.69 -2.63,2.267 -7.543,3.754 -9.055,5.563 0.212,2.006 4.041,9.883 5.068,12.7 1.502,4.124 2.736,8.416 3.685,12.734 1.894,8.613 4.747,18.123 -1.809,25.54 -8.811,9.968 -26.976,4.267 -38.292,-0.125 -2.487,-0.965 -10.479,-5.122 -12.341,-4.844 -2.512,2.726 -1.908,5.477 -6.775,9.122 -13.673,10.238 -26.843,-6.228 -28.627,-6.527 -3.771,0.702 -4.766,2.279 -9.53,2.091 -4.249,-0.168 -5.443,-1.2 -9.136,-2.774 -1.907,1.933 -1.245,2.861 -1.195,5.446 0.487,25.075 -0.06,53.421 0.1,78.836l-0.109 73.886c0.009,6.315 -0.876,8.546 1.895,9.057 1.822,-1.376 8.256,-16.264 9.947,-19.655 3.39,-6.799 6.889,-13.537 10.568,-20.17 7.529,-13.577 15.704,-26.949 24.444,-39.925z"/>
   <path class="fil0" d="M31.167 37.548c2.14,-0.416 1.778,-0.434 2.22,1.117l-2.22 -1.117zm4.34 12.518c4.032,6.812 5.447,20.757 4.572,28.115 -1.064,8.953 -5.363,21.534 -11.655,28.207 -5.569,-5.622 -9.014,-20.361 -9.275,-27.852 -0.215,-6.16 2.775,-22.809 7.059,-27.542 0.483,3.467 -0.443,7.141 0.364,11.635 1.808,10.07 6.818,18.725 8.783,-0.339 0.256,-2.491 -0.048,-11.474 0.152,-12.224zm-4.352 -5.659c2.036,4.404 2.193,19.645 0.189,24.003 -3.284,-5.748 -3.414,-18.176 -0.189,-24.003zm13.357 -11c6.472,-2.556 17.962,-4.102 24.032,-2.206 -4.919,3.275 -19.248,5.146 -24.032,2.206zm-6.785 5.907c7.25,2.169 30.982,22.443 31.293,29.874 -6.875,-2.097 -13.394,-6.228 -18.722,-11.369 -3.599,-3.475 -11.881,-13.929 -12.571,-18.505zm36.172 -8.871c-3.264,-5.034 -21.301,-1.585 -23.223,-1.965 5.234,-4.72 21.83,-7.45 28.393,-6.911 7.792,0.639 21.468,3.831 27.692,9.223 -5.704,5.341 -19.984,11.605 -27.684,11.519 -5.101,-0.057 -8.631,0.422 -14.151,-0.375 -3.128,-0.451 -11.302,-2.528 -13.584,-4.14 1.76,-0.358 18.684,0.149 22.557,-7.351zm-27.381 44.026c2.129,2.252 4.98,7.264 7.276,10.168 4.091,5.175 4.355,3.303 4.566,9.808 0.132,4.08 -1.069,16.733 -3.586,19.769 -4.518,-3.407 -14.203,-13.947 -15.495,-19.435 -0.302,-1.288 2.181,-7.858 2.547,-9.881 0.41,-2.269 0.964,-8.141 1.481,-9.53 1.93,2.624 1.731,11.889 4.645,12.974 2.8,-1.782 -0.176,-6.911 -1.434,-13.873zm65.259 -18.186c-3.834,3.305 -15.846,4.97 -20.689,5.144 -7.053,0.253 -7.674,-4.498 -18.438,-11.697 -1.608,-1.076 -1.344,-0.462 -1.906,-2.046 2.983,0.711 12.296,4.055 14.672,3.171l0.247 -1.583c-2.735,-2.428 -7.553,-1.728 -10.421,-3.677 1.56,-0.503 6.667,-0.723 9.128,-1.156 2.931,-0.515 6.541,-2.637 9.237,-1.446 6.054,2.673 13.881,8.239 18.17,13.29zm-67.205 -16.658c15.384,3.238 34.45,16.733 44.694,28.747 5.503,6.455 10.395,14.768 13.524,22.52 2.076,5.141 5.816,16.981 5.921,22.263 -5.038,0.611 -16.711,-3.975 -21.824,-6.226 -16.427,-7.228 -30.054,-20.283 -38.744,-35.858 -2.241,-4.019 -8.942,-17.65 -8.774,-21.658 7.193,6.717 8.54,13.663 24.146,20.765 7.7,3.505 5.974,-0.051 12.497,7.582 2.182,2.553 8.647,11.016 11.2,11.878 3.012,-1.555 -0.71,-4.224 -2.445,-6.216 -1.974,-2.267 -3.968,-4.515 -5.935,-6.789 -9.475,-10.951 -3.799,-4.971 -9.349,-13.335 -9.538,-14.376 -19.454,-17.997 -24.911,-23.673zm71.294 17.36c-2.57,-5.847 -14.222,-12.581 -19.644,-15.968 1.949,-1.88 11.225,-5.207 14.67,-10.56 -3.171,-4.066 -13.473,-7.803 -18.384,-9.45 -18.063,-6.059 -39.836,0.093 -54.591,11.781l0.203 1.667 -2.298 -0.23c0.186,-2.538 0.907,-6.012 -1.639,-7.334 -2.765,1.793 -0.637,3.23 -1.722,5.485 -1.739,-1.579 -3.565,-4.246 -5.804,-4.974l-1.43 1.736 4.805 4.935c-2.875,1.773 -7.114,-1.304 -9.045,1.72 0.741,2.708 6.925,1.09 9.923,1.714 -7.13,10.08 -14.595,24.415 -14.371,36.792 0.11,6.125 -0.076,11.982 2.066,18.388 1.395,4.174 5.765,15.862 9.532,17.688 3.676,-0.914 6.971,-9.421 9.224,-12.451 2.52,3.062 11.32,18.521 18.772,20.29 2.345,-1.879 3.783,-9.273 4.2,-12.446 0.279,-2.121 0.788,-4.414 0.819,-6.363 0.03,-1.82 -0.335,-4.847 0.513,-6.12 7.946,7.298 15.088,12.232 24.827,16.619 5.348,2.409 19.257,7.045 24.598,6.651 1.971,-0.976 -0.708,-11.162 -1.214,-13.277 -0.955,-3.993 -2.733,-9.207 -4.302,-13.064 -5.946,-14.603 -8.489,-15.098 -15.817,-25.883 2.392,-0.687 22.241,-1.303 26.109,-7.346z"/>
   <path class="fil0" d="M165.334 150.114c3.596,2.212 9.248,9.15 10.901,12.946 -3.679,-0.446 -11.665,-7.232 -13.53,-10.705l2.629 -2.241zm13.473 -10.869c5.811,4.952 15.955,33.565 16.719,41.659 -6.059,1.982 -37.312,-10.416 -42.395,-15.887 -0.299,-6.255 -0.468,-8.806 4.812,-13.799 4.109,4.18 5.485,7.245 10.952,11.118 2.679,1.898 8.374,5.326 11.509,5.694 3.636,-4.993 -14.782,-21.452 -15.88,-23.081 3.613,-4.004 9.063,-6.31 14.283,-5.704zm19.415 43.541c1.445,-6.012 -7.51,-27.757 -10.46,-34.263 -3.833,-8.456 -7.46,-17.721 -21.029,-9.012 -1.648,1.057 -2.831,2.1 -4.363,3.271 -1.69,1.293 -2.983,0.951 -4.3,2.628 -1.107,1.409 -0.834,2.142 -2.804,4.349 -3.236,3.628 -5.607,7.581 -5.32,12.563 0.261,4.55 0.979,5.332 5.041,7.919 7.53,4.797 37.568,17.214 43.235,12.545z"/>
   <path class="fil0" d="M167.976 181.146c-0.143,2.847 -1.766,10.304 -3.611,12.116 -5.011,-3.813 -10.036,-10.007 -13.8,-15.08 -4.288,-5.781 -8.391,-10.505 -4.977,-14.519 0.914,2.051 -0.022,3.757 2.287,6.526 3.99,4.787 14.917,8.004 20.101,10.957zm3.188 -1.608c-1.569,-1.335 -12.447,-5.541 -15.735,-7.377 -11.357,-6.342 -3.688,-10.145 -7.081,-13.819 -3.904,0.425 -5.901,5.122 -7.651,8.09 -9.365,0.943 -4.5,12.48 2.766,6.851 2.213,2.2 5.396,7.586 7.812,10.511 3.031,3.668 6.584,7.935 10.268,10.933 4.946,4.025 5.972,0.38 7.299,-4.127 0.787,-2.673 2.367,-8.45 2.322,-11.062z"/>
   <path class="fil0" d="M180.189 130.107c7.258,2.377 22.079,14.417 26.66,20.615 -1.575,1.789 -9.635,3.691 -12.115,3.574 -2.083,-3.81 -3.763,-8.845 -6.082,-13.18 -5.613,-10.492 -7.48,-7.324 -11.423,-9.238l2.96 -1.771zm7.145 0.065c0.968,-2.538 2.654,-5.146 -1.126,-7.249 -3.228,-1.795 -5.623,0.944 -6.205,4.138 -3.849,2.148 -6.042,2.977 -8.226,7.32 3.327,4.331 7.049,-4.813 13.817,7.095 2.082,3.662 5.996,14.115 7.57,16.068 2.472,0.006 8.143,-1.452 10.693,-2.205 4.738,-1.398 8.597,-2.295 4.431,-7.47 -2.873,-3.567 -7.131,-7.163 -10.721,-10.043 -1.398,-1.121 -10.065,-7.306 -10.233,-7.654z"/>
   <path class="fil0" d="M264.461 73.961c2.245,-4.669 -5.195,-9.079 -8.03,-3.569 -2.453,4.767 5.112,9.638 8.03,3.569z"/>
   <path class="fil0" d="M291.976 59.127c2.283,-4.947 -5.685,-9.098 -8.199,-3.229 -1.967,4.592 5.445,9.202 8.199,3.229z"/>
   <path class="fil0" d="M320.254 46.107c2.174,-6.068 -6.392,-8.662 -8.1,-2.929 -1.588,5.331 6.192,8.251 8.1,2.929z"/>
   <path class="fil0" d="M73.124 275.58c3.135,-5.56 -4.758,-9.073 -7.508,-4.359 -2.849,4.881 4.77,9.216 7.508,4.359z"/>
   <path class="fil0" d="M88.599 247.246c1.82,-5.507 -6.25,-8.007 -8.227,-2.54 -1.809,5.002 6.257,8.497 8.227,2.54z"/>
   <path class="fil0" d="M59.788 303.85c2.991,-5.646 -4.964,-9.166 -7.506,-4.339 -2.693,5.112 4.991,9.087 7.506,4.339z"/>
   <path class="fil0" d="M237.809 89.936c1.24,-6.979 -6.965,-6.702 -8.159,-2.212 -1.466,5.508 7.118,8.076 8.159,2.212z"/>
   <path class="fil0" d="M379.298 25.522c2.048,-4.681 -5.412,-8.755 -8.068,-2.884 -1.882,4.16 5.396,8.994 8.068,2.884z"/>
   <path class="fil0" d="M409.487 18.176c2.108,-5.406 -5.553,-8.274 -7.879,-2.946 -1.907,4.37 5.543,8.935 7.879,2.946z"/>
   <path class="fil0" d="M212.178 108.714c2.679,-5.814 -5.864,-8.532 -7.862,-2.973 -1.54,4.285 5.459,8.185 7.862,2.973z"/>
   <path class="fil0" d="M25.166 423.006c2.707,-5.832 -5.913,-8.492 -7.867,-2.97 -1.528,4.319 5.463,8.151 7.867,2.97z"/>
   <path class="fil0" d="M48.441 331.752c1.628,-6.025 -6.173,-7.517 -7.867,-2.558 -1.739,5.094 6.27,8.463 7.867,2.558z"/>
   <path class="fil0" d="M38.611 362.204c2.483,-5.846 -5.384,-8.922 -7.716,-3.349 -1.977,4.722 5.736,8.012 7.716,3.349z"/>
   <path class="fil0" d="M105.158 221.476c2.168,-6.068 -6.004,-8.125 -7.891,-2.954 -1.719,4.713 6.039,8.139 7.891,2.954z"/>
   <path class="fil0" d="M349.403 34.42c1.485,-5.954 -6.897,-7.424 -8.073,-1.848 -1.068,5.059 6.707,7.322 8.073,1.848z"/>
   <path class="fil0" d="M123.364 196.755c2.819,-6.123 -4.993,-8.592 -7.328,-4.014 -2.516,4.933 5.206,8.62 7.328,4.014z"/>
   <path class="fil0" d="M31.174 391.493c1.328,-6.031 -6.845,-6.979 -8.079,-1.852 -1.209,5.02 6.795,7.682 8.079,1.852z"/>
   <path class="fil0" d="M242.146 39.676c1.891,-4.447 -5.154,-7.914 -7.245,-2.857 -1.951,4.719 5.139,7.808 7.245,2.857z"/>
   <path class="fil0" d="M49.429 142.824c-3.897,-3.087 -8.705,3.235 -4.286,6.244 3.723,2.535 8.448,-2.945 4.286,-6.244z"/>
   <path class="fil0" d="M70.642 164.032c-3.884,-3.107 -8.734,3.203 -4.289,6.243 3.672,2.511 8.427,-2.934 4.289,-6.243z"/>
   <path class="fil0" d="M22.324 168.515c1.814,4.8 8.428,2.209 7.165,-2.294 -1.373,-4.901 -9.045,-2.682 -7.165,2.294z"/>
   <path class="fil0" d="M157.141 83.271c1.881,-5.001 -4.41,-7.672 -6.898,-2.984 -2.152,4.052 5.129,7.68 6.898,2.984z"/>
   <path class="fil0" d="M29.325 210.465c1.127,-5.087 -6.742,-6.11 -7.42,-1.111 -0.574,4.24 6.19,6.656 7.42,1.111z"/>
   <path class="fil0" d="M50.362 190.038c1.904,-5.099 -4.473,-7.551 -6.885,-2.986 -2.148,4.068 5.135,7.673 6.885,2.986z"/>
   <path class="fil0" d="M178.493 61.681c1.935,-5.698 -5.601,-7.131 -7.07,-2.254 -1.206,4.007 5.458,7.001 7.07,2.254z"/>
   <path class="fil0" d="M157.302 40.471c1.93,-5.655 -5.621,-7.118 -7.058,-2.258 -1.198,4.055 5.431,7.029 7.058,2.258z"/>
   <path class="fil0" d="M93.072 147.253c2.141,-4.911 -4.65,-7.375 -6.774,-2.991 -1.939,4.002 4.55,8.091 6.774,2.991z"/>
   <path class="fil0" d="M199.84 40.484c2.166,-4.914 -4.656,-7.392 -6.772,-2.99 -1.916,3.986 4.529,8.08 6.772,2.99z"/>
   <path class="fil0" d="M49.015 89.594c-2.017,1.37 -1.796,1.159 -1.192,3.442 0.492,1.856 0.236,2.163 1.911,2.825 1.719,-1.215 1.665,-0.813 1.115,-3.184 -0.46,-1.987 -0.243,-1.836 -1.834,-3.083z"/>
   <path class="fil0" d="M25.193 25.861c-0.667,-1.73 -2.411,-3.492 -4.195,-4.125l-1.327 1.649c1.184,1.628 2.415,3.112 4.359,3.951l1.163 -1.475z"/>
   <path class="fil0" d="M89.486 90.242c-1.069,1.473 -1.506,0.991 -0.218,2.801 0.76,1.071 1.8,1.947 2.889,2.571l1.55 -1.09c-0.582,-2.117 -2.184,-3.841 -4.221,-4.282z"/>
   <path class="fil0" d="M93.314 52.022c-0.952,-2.229 -4.574,-3.658 -6.32,-1.053 1.394,1.927 4.638,3.006 6.32,1.053z"/>
   <path class="fil0" d="M34.182 21.813c-2.006,1.455 -2.109,3.046 -0.009,4.487 2.427,-1.306 2.353,-3.101 0.009,-4.487z"/>
   <path class="fil0" d="M98.193 99.519c-0.695,-1.963 -0.863,-1.912 -2.499,-2.892 -2.182,1.758 -1.414,3.032 1.047,4.049l1.452 -1.157z"/>
   <path class="fil0" d="M95.772 53.077c0.884,2.459 2.579,2.529 4.256,0.368 -1.481,-1.726 -3.09,-2.721 -4.256,-0.368z"/>
   <path class="fil0" d="M51.093 98.446l-0.884 0.099c-1.017,1.595 -0.589,2.953 0.916,4.022 2.241,-1.03 2.002,-3.087 -0.032,-4.121z"/>
  </g>
 </g>
</svg>
