<?xml version="1.0" encoding="UTF-8"?>
<!DOCTYPE svg PUBLIC "-//W3C//DTD SVG 1.1//EN" "http://www.w3.org/Graphics/SVG/1.1/DTD/svg11.dtd">
<!-- Creator: CorelDRAW Standard 2024 -->
<svg xmlns="http://www.w3.org/2000/svg" xml:space="preserve" width="408px" height="140px" version="1.1" style="shape-rendering:geometricPrecision; text-rendering:geometricPrecision; image-rendering:optimizeQuality; fill-rule:evenodd; clip-rule:evenodd"
viewBox="0 0 408 140"
 xmlns:xlink="http://www.w3.org/1999/xlink"
 xmlns:xodm="http://www.corel.com/coreldraw/odm/2003">
 <defs>
  <style type="text/css">
   <![CDATA[
    .fil0 {fill:#24CA68}
    .fil2 {fill:white}
    .fil1 {fill:white;fill-rule:nonzero}
   ]]>
  </style>
 </defs>
 <g id="Camada_x0020_1">
  <metadata id="CorelCorpID_0Corel-Layer"/>
  <rect class="fil0" x="4.033" y="3.937" width="400.001" height="132.98" rx="35.775" ry="32.459"/>
  <path class="fil1" d="M313.968 47.79l0 13.355c1.149,-1.318 2.267,-2.364 3.358,-3.133 1.084,-0.763 2.288,-1.354 3.607,-1.735 1.329,-0.384 2.75,-0.575 4.271,-0.575 2.288,0 4.319,0.483 6.098,1.454 1.77,0.966 3.13,2.394 4.17,4.226 0.616,1.086 1.076,2.277 1.296,3.618 0.219,1.329 0.327,2.864 0.327,4.598l0 17.278c0,1.802 -0.418,3.167 -1.24,4.092 -0.823,0.923 -1.927,1.386 -3.291,1.386 -2.975,0 -4.424,-1.826 -4.463,-5.478l-0.152 -14.311c-0.03,-2.886 -0.432,-5.106 -1.285,-6.65 -0.858,-1.553 -2.491,-2.333 -4.891,-2.333 -1.601,0 -3.055,0.463 -4.339,1.375 -1.284,0.912 -2.278,2.145 -2.885,3.741 -0.507,1.333 -0.581,2.819 -0.581,6.254l0 11.924c0,1.78 -0.406,3.134 -1.206,4.069 -0.8,0.935 -1.916,1.409 -3.336,1.409 -2.964,0 -4.452,-1.826 -4.452,-5.478l0 -39.086c0,-1.825 0.395,-3.19 1.172,-4.103 0.777,-0.912 1.871,-1.374 3.28,-1.374 1.42,0 2.536,0.462 3.336,1.386 0.8,0.924 1.206,2.289 1.206,4.091z"/>
  <path class="fil1" d="M275.421 60.189l0 2.028c1.59,-2.097 3.08,-3.777 4.962,-4.757 1.882,-0.981 4.439,-1.81 6.886,-1.81 2.377,0 4.497,0.522 6.379,1.555 1.868,1.027 3.676,2.064 4.628,3.941 0.566,1.118 0.987,2.288 1.161,3.573 0.174,1.272 0.259,2.898 0.259,4.88l0 16.782c0,1.802 -0.418,3.168 -1.239,4.091 -0.823,0.923 -2.488,1.386 -3.808,1.386 -1.341,0 -2.438,-0.471 -3.28,-1.42 -0.836,-0.943 -1.245,-2.299 -1.25,-4.057l-0.05 -13.755c-0.009,-2.964 -0.415,-5.243 -1.24,-6.819 -0.819,-1.567 -2.468,-2.355 -4.936,-2.355 -1.601,0 -3.068,0.471 -4.396,1.431 -1.319,0.955 -2.311,2.269 -2.896,3.956 -0.462,1.333 -0.616,2.565 -0.616,6.249l0 11.293c0,1.825 -0.428,3.19 -1.273,4.103 -0.845,0.912 -1.939,1.374 -3.268,1.374 -1.297,0 -2.368,-0.473 -3.201,-1.42 -0.834,-0.946 -1.252,-2.299 -1.252,-4.057l0 -26.057c0,-1.714 0.32,-2.362 1.067,-3.204 0.751,-0.847 1.77,-1.273 3.065,-1.273 0.789,0 1.509,0.195 2.142,0.563 0.64,0.373 1.151,0.936 1.533,1.68 0.382,0.742 0.623,1.029 0.623,2.099z"/>
  <path class="fil1" d="M256.551 51.811c-1.251,0 -2.322,-0.384 -3.212,-1.15 -0.889,-0.765 -1.33,-1.859 -1.33,-3.269 0,-1.262 0.451,-2.31 1.364,-3.132 0.912,-0.823 1.972,-1.24 3.178,-1.24 1.172,0 2.202,0.37 3.1,1.116 0.903,0.751 1.352,1.837 1.352,3.256 0,1.387 -0.44,2.47 -1.319,3.247 -0.877,0.777 -1.915,1.172 -3.133,1.172z"/>
  <path class="fil1" d="M261.117 60.551l0 26.058c0,1.802 -0.429,3.167 -1.285,4.09 -0.857,0.925 -1.939,1.387 -3.257,1.387 -1.319,0 -2.39,-0.474 -3.212,-1.42 -0.823,-0.946 -1.24,-2.299 -1.24,-4.057l0 -25.787c0,-1.793 0.417,-3.134 1.24,-4.035 0.822,-0.901 1.893,-1.352 3.212,-1.352 1.318,0 2.4,0.45 3.257,1.352 0.856,0.901 1.285,2.164 1.285,3.764z"/>
  <path class="fil1" d="M238.603 86.954l-7.295 -10.202 -3.242 3.056 0 7.157c0,1.734 -0.463,3.077 -1.375,4.012 -0.912,0.934 -1.96,1.398 -3.155,1.398 -1.387,0 -3.28,-0.701 -4.071,-1.621 -0.796,-0.924 -1.5,-1.852 -1.5,-3.655l0 -38.421c0,-2.007 0.388,-3.527 1.161,-4.576 0.769,-1.045 2.979,-1.769 4.41,-1.769 1.386,0 2.488,0.478 3.302,1.42 0.818,0.949 1.228,2.347 1.228,4.193l0 21.843 9.036 -10.065c1.225,-1.364 2.22,-2.236 2.874,-2.716 0.66,-0.486 1.929,-1.312 2.876,-1.312 1.127,0 2.297,1.041 3.039,1.749 0.753,0.719 1.127,1.611 1.127,2.693 0,1.319 -1.536,2.785 -3.663,5.286l-4.79 5.635 8.432 12.281c0.724,1.054 1.169,1.909 1.465,2.469 0.298,0.563 0.45,1.093 0.45,1.6 0,1.431 -0.395,2.558 -1.172,3.381 -0.777,0.822 -1.814,1.239 -3.088,1.239 -1.104,0 -1.949,-0.297 -2.536,-0.89 -0.592,-0.598 -2.429,-2.669 -3.513,-4.185z"/>
  <path class="fil1" d="M203.985 86.101c-1.316,2.145 -4.118,3.936 -6.147,4.778 -2.038,0.846 -3.903,1.093 -6.428,1.093 -2.31,0 -4.35,-0.462 -6.097,-1.375 -1.747,-0.913 -3.1,-2.141 -4.046,-3.708 -0.947,-1.566 -1.421,-3.257 -1.421,-5.083 0,-2.468 0.756,-4.585 2.345,-6.3 1.211,-1.308 2.049,-2.126 4.682,-3.09 0.91,-0.333 2.602,-1.222 5.369,-1.375 2.21,-0.123 4.184,-0.574 5.84,-0.524 2.138,0.066 4.504,-0.656 4.924,-1.851 0.529,-2.076 0.207,-2.732 -0.638,-3.835 -0.855,-1.116 -2.302,-2.386 -4.973,-2.386 -2.288,0 -3.893,0.471 -5.044,1.104 -1.154,0.636 -2.214,1.334 -3.036,2.615 -0.819,1.273 -1.573,1.323 -1.917,1.734 -0.344,0.411 -1.082,0.609 -2.198,0.609 -1.014,0 -1.894,-0.327 -2.626,-0.981 -0.732,-0.642 -1.105,-1.476 -1.105,-2.49 0,-1.589 0.617,-3.024 1.736,-4.519 1.123,-1.501 2.819,-2.219 5.196,-3.188 2.378,-0.97 5.342,-1.455 8.893,-1.455 3.955,0 7.077,0.474 9.343,1.409 2.265,0.935 3.865,1.791 4.801,3.819 0.935,2.029 1.394,3.705 1.394,7.052 0,2.119 -0.348,4.368 -0.358,5.844 -0.01,1.475 -0.034,3.121 -0.045,4.925 -0.011,1.689 -0.157,4.444 0.407,6.28 0.562,1.826 0.835,3.01 0.835,3.539 0,0.925 -0.427,1.773 -1.296,2.524 -0.877,0.759 -3.38,0.895 -4.485,0.895 -0.924,0 -1.838,-0.429 -2.739,-1.296 -0.9,-0.867 -1.097,-2.701 -1.166,-4.764zm-0.893 -11.114c-1.318,0.484 -2.833,1.031 -5.355,1.566 -2.513,0.533 -3.847,0.565 -4.813,0.818 -0.97,0.252 -1.813,0.297 -2.687,1.032 -0.881,0.739 -1.329,1.431 -1.329,2.761 0,1.363 0.521,2.522 1.555,3.482 1.028,0.955 2.238,1.134 3.917,1.134 1.782,0 3.091,-0.084 4.588,-0.863 1.51,-0.786 2.365,-1.384 3.084,-2.616 0.799,-1.369 1.512,-2.144 1.228,-5.265l-0.188 -2.049z"/>
  <path class="fil1" d="M156.726 61.566l6.191 20.446 5.844 -20.987c0.488,-1.755 1.215,-2.935 1.814,-3.652 0.592,-0.711 2.383,-1.807 3.589,-1.807 1.15,0 2.706,0.633 3.508,1.406 0.796,0.768 1.157,2.687 1.157,3.703 0,0.394 -0.067,0.856 -0.214,1.386 -0.146,0.529 -0.305,1.025 -0.496,1.487 -0.191,0.462 -0.43,0.985 -0.643,1.578l-7.184 20.062c-0.22,0.618 -0.557,1.396 -0.946,2.344 -0.388,0.944 -0.812,1.748 -1.285,2.423 -0.473,0.677 -1.059,1.198 -1.747,1.567 -0.696,0.373 -2.945,0.45 -3.936,0.45 -1.274,0 -2.966,-0.181 -3.732,-0.765 -0.755,-0.575 -1.317,-1.22 -1.679,-1.917 -0.358,-0.687 -1.115,-2.01 -1.838,-4.102l-7.094 -20.517c-0.185,-0.536 -0.402,-1.063 -0.608,-1.589 -0.209,-0.531 -0.383,-1.06 -0.531,-1.612 -0.146,-0.552 -0.213,-1.026 -0.213,-1.42 0,-0.62 0.192,-1.23 0.563,-1.837 0.371,-0.608 0.89,-1.109 1.544,-1.488 0.662,-0.384 1.867,-0.967 2.644,-0.967 1.487,0 2.877,0.622 3.432,1.481 0.556,0.861 1.243,2.291 1.86,4.327z"/>
  <path class="fil1" d="M365.662 86.508c-1.316,2.145 -4.119,3.935 -6.148,4.777 -2.038,0.847 -3.903,1.093 -6.427,1.093 -2.31,0 -4.351,-0.461 -6.098,-1.374 -1.747,-0.913 -3.099,-2.142 -4.046,-3.708 -0.947,-1.567 -1.42,-3.258 -1.42,-5.083 0,-2.469 0.756,-4.586 2.345,-6.3 1.21,-1.308 2.049,-2.127 4.681,-3.091 0.911,-0.333 2.602,-1.222 5.369,-1.375 2.21,-0.123 4.184,-0.574 5.841,-0.523 2.137,0.066 4.503,-0.657 4.923,-1.852 0.53,-2.076 0.208,-2.732 -0.637,-3.835 -0.856,-1.115 -2.302,-2.386 -4.973,-2.386 -2.288,0 -3.893,0.471 -5.044,1.104 -1.155,0.636 -2.214,1.334 -3.037,2.615 -0.818,1.273 -1.573,1.323 -1.917,1.735 -0.343,0.411 -1.081,0.608 -2.197,0.608 -1.014,0 -1.894,-0.327 -2.627,-0.981 -0.732,-0.642 -1.104,-1.475 -1.104,-2.49 0,-1.59 0.617,-3.024 1.736,-4.519 1.123,-1.501 2.818,-2.219 5.196,-3.188 2.378,-0.969 5.342,-1.455 8.893,-1.455 3.955,0 7.077,0.474 9.343,1.409 2.264,0.935 3.865,1.791 4.8,3.819 0.936,2.029 1.395,3.705 1.395,7.052 0,2.119 -0.348,4.368 -0.358,5.844 -0.011,1.476 -0.034,3.121 -0.045,4.926 -0.011,1.689 -0.157,4.443 0.407,6.279 0.561,1.826 0.834,3.01 0.834,3.54 0,0.923 -0.426,1.773 -1.296,2.524 -0.876,0.758 -3.38,0.894 -4.485,0.894 -0.923,0 -1.838,-0.428 -2.738,-1.295 -0.901,-0.867 -1.097,-2.702 -1.166,-4.764zm-0.893 -11.114c-1.319,0.484 -2.833,1.031 -5.356,1.565 -2.512,0.533 -3.846,0.565 -4.813,0.817 -0.969,0.253 -1.812,0.299 -2.687,1.033 -0.881,0.739 -1.328,1.431 -1.328,2.761 0,1.364 0.521,2.522 1.555,3.483 1.028,0.955 2.238,1.133 3.917,1.133 1.781,0 3.091,-0.084 4.588,-0.863 1.51,-0.786 2.365,-1.384 3.084,-2.616 0.799,-1.368 1.512,-2.144 1.227,-5.265l-0.187 -2.048z"/>
  <path class="fil2" d="M42.072 25.938l68.327 0c8.638,0 15.705,7.067 15.705,15.705l0 77.069 -18.03 -10.47 -66.002 0c-8.638,0 -15.706,-7.067 -15.706,-15.706l0 -50.893c0,-8.638 7.068,-15.705 15.706,-15.705zm57.693 13.612c4.929,0 8.924,3.996 8.924,8.924 0,4.823 -3.825,8.752 -8.607,8.919l-13.555 23.769c1.472,1.971 2.344,4.417 2.344,7.067 0,6.529 -5.294,11.822 -11.823,11.822 -6.529,0 -11.823,-5.293 -11.823,-11.822 0,-2.667 0.884,-5.127 2.373,-7.105l-13.465 -23.611 -0.15 0.002c-4.928,0 -8.924,-3.996 -8.924,-8.924 0,-4.928 3.996,-8.925 8.924,-8.925 4.929,0 8.925,3.997 8.925,8.925 0,1.604 -0.423,3.108 -1.165,4.409l13.433 23.554c0.61,-0.097 1.235,-0.148 1.872,-0.148 0.653,0 1.293,0.055 1.917,0.156l13.279 -23.282c-0.888,-1.388 -1.403,-3.037 -1.403,-4.806 0,-4.928 3.995,-8.924 8.924,-8.924z"/>
 </g>
</svg>