<?xml version="1.0" encoding="UTF-8"?>
<svg id="Layer_1" data-name="Layer 1" xmlns="http://www.w3.org/2000/svg" version="1.1" viewBox="0 0 3015.4 825.2">
  <defs>
    <style>
      .cls-1 {
        fill-rule: evenodd;
      }

      .cls-1, .cls-2 {
        fill: #3eb761;
        stroke-width: 0px;
      }
    </style>
  </defs>
  <path class="cls-1" d="M141,18.1h602.1c67.9,0,123.5,55.6,123.5,123.5v447.7c0,2,0,3.9-.1,5.7v212l-160.3-94.2H141c-67.9,0-123.5-55.6-123.5-123.5V141.7c0-68,55.6-123.5,123.5-123.5M446.8,443.6c-4.6,0-9.2.3-13.7.9l-113.5-196.6c7.3-11.9,11.6-25.9,11.6-41,0-43.1-35-78.2-78.2-78.2s-78.2,35-78.2,78.2,33.2,76.5,74.9,78.2l115.5,200.1c-12.1,16.6-19.2,37.1-19.2,59.2,0,55.7,45.1,100.8,100.9,100.8s100.8-45.1,100.8-100.8-6.9-42-18.7-58.5l115.9-200.8c41.7-1.7,74.9-36.1,74.9-78.2s-35-78.2-78.2-78.2-78.2,35-78.2,78.2,4.2,29,11.5,41l-113.6,196.8c-4.7-.7-9.6-1.1-14.5-1.1"/>
  <path class="cls-2" d="M1049.1,331.1c-2.2-6.8-5.1-15.8-5.1-20.9,0-29.4,20.3-42.9,40.1-42.9,31,0,38.9,26,41.2,34.5l55.3,186.3h1.1l55.3-186.3c2.3-8.5,10.2-34.5,41.2-34.5s40.1,13.5,40.1,42.9-2.8,14.1-5.1,20.9l-77.9,216.8c-7.9,22-13,29.4-54.2,29.4s-46.3-7.3-54.2-29.4l-77.9-216.8h0Z"/>
  <path class="cls-2" d="M1606.5,490.3c0,34.4,8.5,42.3,8.5,55.3,0,18.6-17.5,31.6-37.3,31.6-35.6,0-47.4-22.6-48.6-48-32.2,35.6-69.4,48-112.9,48s-93.1-32.2-93.1-84.1,51.9-87.5,115.2-94.8l50.2-5.6c19.8-2.3,35.6-6.8,35.6-30.5s-24.3-33.9-51.9-33.9c-61,0-62.7,45.2-95.4,45.2s-35-14.7-35-31.6c0-32.7,46.3-74.5,131-74.5s133.8,25.4,133.8,84.7v138.3h0ZM1524.1,431c-9,8.5-25.9,11.3-35.6,13l-29.9,4.5c-34.4,5.1-53.1,15.8-53.1,40.6s17.5,33.9,45.7,33.9c45.2,0,72.8-29.4,72.8-59.8v-32.2h0Z"/>
  <path class="cls-2" d="M1655.2,197.3c0-27.1,16.4-41.2,41.2-41.2s41.2,14.1,41.2,41.2v187.4l91.4-101.6c8.5-9,19.2-15.8,31.6-15.8,18.6,0,38.9,16.4,38.9,37.3s-5.1,19.2-12.4,27.1l-61,63.8,85.8,115.2c2.8,4,8.5,13,8.5,26.5,0,20.9-16.9,40.1-38.9,40.1s-31-10.2-37.3-19.2l-77.9-110.1-28.8,25.4v62.7c0,27.1-16.4,41.2-41.2,41.2s-41.2-14.1-41.2-41.2V197.3h0Z"/>
  <path class="cls-2" d="M1981.7,153.8c23.7,0,42.9,19.2,42.9,42.9s-19.2,42.9-42.9,42.9-42.9-19.2-42.9-42.9,19.2-42.9,42.9-42.9M1940.5,308.5c0-22,9-41.2,41.2-41.2s41.2,19.2,41.2,41.2v227.5c0,22-9,41.2-41.2,41.2s-41.2-19.2-41.2-41.2v-227.5Z"/>
  <path class="cls-2" d="M2070.6,308.5c0-24.8,11.3-41.2,37.3-41.2s37.2,16.4,37.2,41.2v10.7h1.1c23.1-30.5,53.1-51.9,99.9-51.9s103.9,24.8,103.9,108.4v160.3c0,22-9,41.2-41.2,41.2s-41.2-19.2-41.2-41.2v-144c0-33.3-16.4-57-51.9-57s-62.7,23.7-62.7,64.9v136c0,22-9,41.2-41.2,41.2s-41.2-19.2-41.2-41.2v-227.5h0Z"/>
  <path class="cls-2" d="M2393.1,197.3c0-27.1,16.4-41.2,41.2-41.2s41.2,14.1,41.2,41.2v113.5h1.1c16.4-21.5,45.2-43.5,92-43.5s103.9,24.8,103.9,108.4v160.3c0,22-9,41.2-41.2,41.2s-41.2-19.2-41.2-41.2v-144c0-33.3-16.4-57-51.9-57s-62.7,23.7-62.7,64.9v136.1c0,22-9,41.2-41.2,41.2s-41.2-19.2-41.2-41.2V197.3h0Z"/>
  <path class="cls-2" d="M2989.4,490.3c0,34.4,8.5,42.3,8.5,55.3,0,18.6-17.5,31.6-37.3,31.6-35.6,0-47.4-22.6-48.5-48-32.2,35.6-69.4,48-112.9,48s-93.1-32.2-93.1-84.1,51.9-87.5,115.1-94.8l50.2-5.6c19.8-2.3,35.6-6.8,35.6-30.5s-24.3-33.9-51.9-33.9c-61,0-62.6,45.2-95.4,45.2s-35-14.7-35-31.6c0-32.7,46.3-74.5,131-74.5s133.8,25.4,133.8,84.7v138.3h0ZM2907,431c-9,8.5-26,11.3-35.6,13l-29.9,4.5c-34.4,5.1-53.1,15.8-53.1,40.6s17.5,33.9,45.7,33.9c45.2,0,72.8-29.4,72.8-59.8v-32.2h0Z"/>
</svg>