<?xml version="1.0" encoding="UTF-8"?>
<svg id="Layer_1" data-name="Layer 1" xmlns="http://www.w3.org/2000/svg" viewBox="0 0 3015.43 825.21">
  <defs>
    <style>
      .cls-1 {
        fill-rule: evenodd;
      }

      .cls-1, .cls-2 {
        fill: #fff;
        stroke-width: 0px;
      }
    </style>
  </defs>
  <path class="cls-1" d="M141.02,18.15h602.12c67.93,0,123.49,55.56,123.49,123.53v447.66c0,1.95-.04,3.86-.13,5.71v212l-160.33-94.19H141.02c-67.88,0-123.47-55.57-123.47-123.53V141.68c0-67.97,55.59-123.53,123.47-123.53M446.78,443.63c-4.65,0-9.21.33-13.67.91l-113.49-196.59c7.28-11.93,11.56-25.9,11.56-40.96,0-43.15-35.03-78.16-78.24-78.16s-78.22,35.01-78.22,78.16,33.22,76.48,74.9,78.19l115.5,200.08c-12.08,16.6-19.2,37.13-19.2,59.22,0,55.71,45.12,100.84,100.85,100.84s100.84-45.13,100.84-100.84c0-21.81-6.91-41.98-18.66-58.48l115.93-200.82c41.65-1.72,74.9-36.07,74.9-78.19s-35.01-78.16-78.21-78.16-78.25,35.01-78.25,78.16c0,15.06,4.21,29.04,11.54,40.96l-113.6,196.75c-4.73-.74-9.6-1.07-14.49-1.07"/>
  <path class="cls-2" d="M1049.14,331.07c-2.25-6.78-5.08-15.81-5.08-20.89,0-29.36,20.33-42.9,40.09-42.9,31.04,0,38.95,25.97,41.21,34.45l55.33,186.28h1.12l55.32-186.28c2.26-8.48,10.16-34.45,41.22-34.45,19.76,0,40.08,13.55,40.08,42.9,0,5.08-2.82,14.11-5.08,20.89l-77.9,216.77c-7.91,22.01-12.98,29.36-54.2,29.36s-46.29-7.34-54.19-29.36l-77.91-216.77Z"/>
  <path class="cls-2" d="M1606.51,490.27c0,34.43,8.48,42.34,8.48,55.32,0,18.63-17.51,31.61-37.27,31.61-35.56,0-47.42-22.58-48.55-47.99-32.17,35.57-69.42,47.99-112.89,47.99-46.85,0-93.14-32.18-93.14-84.11,0-68.31,51.93-87.5,115.16-94.84l50.25-5.64c19.75-2.26,35.55-6.78,35.55-30.49s-24.27-33.87-51.93-33.87c-60.97,0-62.66,45.16-95.41,45.16-20.88,0-34.99-14.68-34.99-31.61,0-32.74,46.28-74.51,130.97-74.51,79.03,0,133.78,25.4,133.78,84.68v138.31ZM1524.09,430.99c-9.02,8.47-25.95,11.29-35.55,12.98l-29.92,4.52c-34.44,5.09-53.07,15.81-53.07,40.65,0,18.63,17.5,33.87,45.72,33.87,45.16,0,72.82-29.36,72.82-59.84v-32.19Z"/>
  <path class="cls-2" d="M1655.24,197.28c0-27.1,16.38-41.22,41.22-41.22s41.21,14.11,41.21,41.22v187.42l91.45-101.61c8.48-9.03,19.19-15.81,31.62-15.81,18.62,0,38.95,16.38,38.95,37.26,0,14.68-5.08,19.19-12.43,27.09l-60.96,63.8,85.8,115.16c2.82,3.95,8.48,12.98,8.48,26.54,0,20.88-16.94,40.08-38.95,40.08-20.34,0-31.04-10.15-37.26-19.19l-77.91-110.07-28.79,25.4v62.66c0,27.09-16.37,41.21-41.21,41.21s-41.22-14.11-41.22-41.21V197.28Z"/>
  <path class="cls-2" d="M1981.73,153.81c23.71,0,42.9,19.2,42.9,42.9s-19.19,42.9-42.9,42.9-42.9-19.19-42.9-42.9,19.18-42.9,42.9-42.9M1940.52,308.49c0-22.01,9.02-41.22,41.21-41.22s41.21,19.2,41.21,41.22v227.49c0,22.02-9.03,41.22-41.21,41.22s-41.21-19.19-41.21-41.22v-227.49Z"/>
  <path class="cls-2" d="M2070.56,308.49c0-24.84,11.28-41.22,37.26-41.22s37.25,16.38,37.25,41.22v10.72h1.13c23.15-30.48,53.07-51.94,99.92-51.94,49.68,0,103.88,24.84,103.88,108.39v160.32c0,22.02-9.03,41.22-41.22,41.22s-41.22-19.19-41.22-41.22v-143.95c0-33.31-16.37-57.02-51.93-57.02-28.79,0-62.66,23.71-62.66,64.92v136.05c0,22.02-9.03,41.22-41.21,41.22s-41.21-19.19-41.21-41.22v-227.49Z"/>
  <path class="cls-2" d="M2393.09,197.28c0-27.1,16.37-41.22,41.21-41.22s41.21,14.11,41.21,41.22v113.47h1.13c16.38-21.46,45.17-43.47,92.01-43.47,49.69,0,103.89,24.84,103.89,108.39v160.32c0,22.01-9.04,41.21-41.22,41.21s-41.22-19.19-41.22-41.21v-143.95c0-33.32-16.38-57.03-51.94-57.03-28.79,0-62.66,23.71-62.66,64.93v136.05c0,22.01-9.03,41.21-41.21,41.21s-41.21-19.19-41.21-41.21V197.28Z"/>
  <path class="cls-2" d="M2989.41,490.27c0,34.43,8.48,42.34,8.48,55.32,0,18.63-17.51,31.61-37.27,31.61-35.56,0-47.42-22.58-48.54-47.99-32.18,35.57-69.44,47.99-112.91,47.99-46.85,0-93.13-32.18-93.13-84.11,0-68.31,51.92-87.5,115.15-94.84l50.25-5.64c19.75-2.26,35.57-6.78,35.57-30.49s-24.28-33.87-51.95-33.87c-60.97,0-62.65,45.16-95.41,45.16-20.88,0-34.99-14.68-34.99-31.61,0-32.74,46.29-74.51,130.97-74.51,79.04,0,133.79,25.4,133.79,84.68v138.31ZM2906.99,430.99c-9.04,8.47-25.97,11.29-35.57,12.98l-29.91,4.52c-34.45,5.09-53.07,15.81-53.07,40.65,0,18.63,17.49,33.87,45.72,33.87,45.16,0,72.83-29.36,72.83-59.84v-32.19Z"/>
</svg>